<?xml version="1.0" encoding="UTF-8"?>
<svg version="1.1" xmlns="http://www.w3.org/2000/svg" width="912" height="273">
<path d="M0 0 C1.17767944 0.53246338 1.17767944 0.53246338 2.37915039 1.07568359 C10.23231627 4.65699871 17.95981259 8.47166255 25.625 12.4375 C26.71425781 12.99695313 27.80351562 13.55640625 28.92578125 14.1328125 C37.59246983 18.70147748 37.59246983 18.70147748 40.625 22.4375 C41.15625 24.83984375 41.15625 24.83984375 41.125 27.375 C41.14046875 28.62603516 41.14046875 28.62603516 41.15625 29.90234375 C40.42324703 33.40027706 39.16102748 34.91356804 36.625 37.4375 C34.1208263 39.05883307 31.50601789 40.34912311 28.8125 41.625 C28.12607422 41.96724609 27.43964844 42.30949219 26.73242188 42.66210938 C18.88966455 46.48332037 11.88420139 47.76679638 3.23046875 48.21875 C2.24307205 48.27776489 1.25567535 48.33677979 0.23835754 48.39758301 C-2.90321363 48.58499603 -6.04522123 48.76237953 -9.1875 48.9375 C-12.319043 49.11291086 -15.45032479 49.29082304 -18.58122253 49.47741699 C-20.52315216 49.59314617 -22.46546455 49.702689 -24.40815735 49.80480957 C-35.20833499 50.18998858 -35.20833499 50.18998858 -44.875 54.25 C-48.02009803 58.8366013 -48.74001249 62.07161929 -47.84765625 67.5078125 C-47.16259639 70.30466845 -46.20595135 72.21420193 -44.375 74.4375 C-40.32551016 76.8671939 -35.97824696 76.99178158 -31.375 76.4375 C-28.02439895 75.36808352 -24.91364585 73.90299446 -21.75 72.375 C-20.86248047 71.96088867 -19.97496094 71.54677734 -19.06054688 71.12011719 C-13.16655142 68.35263201 -7.3461449 65.44479999 -1.54296875 62.4921875 C5.36826031 59.03745698 12.42288227 55.87285091 19.44067383 52.64233398 C25.70276889 49.75408666 31.93609083 46.81962819 38.125 43.77734375 C38.73225418 43.479953 39.33950836 43.18256226 39.96516418 42.87615967 C42.86773597 41.45418714 45.76512905 40.02327222 48.6550293 38.57568359 C62.88631374 31.58776224 62.88631374 31.58776224 68.90869141 32.95654297 C71.61656037 33.90300102 74.06738355 35.13181942 76.625 36.4375 C77.36766113 36.81084473 78.11032227 37.18418945 78.87548828 37.56884766 C83.11250257 39.70677548 87.3330255 41.87708493 91.52734375 44.09765625 C92.60230103 44.66432007 92.60230103 44.66432007 93.69897461 45.24243164 C98.65236284 48.31593087 99.59827587 51.96061356 100.9375 57.4375 C101.14334717 58.25404053 101.34919434 59.07058105 101.5612793 59.91186523 C102.26626101 62.74985513 102.94762463 65.5927966 103.625 68.4375 C103.893125 69.55141113 104.16125 70.66532227 104.4375 71.81298828 C105.28700233 75.37175413 106.11577717 78.93472414 106.9375 82.5 C107.33739136 84.19286133 107.33739136 84.19286133 107.74536133 85.91992188 C111.38669193 102.10786811 111.38669193 102.10786811 108.6171875 107.34228516 C106.50415753 110.02706687 104.87815966 111.35311345 101.625 112.4375 C95.67595263 112.9430225 91.62692492 111.63536157 86.375 109.125 C85.63644775 108.77614746 84.89789551 108.42729492 84.13696289 108.06787109 C77.01208585 104.48875486 71.53409814 99.73556544 66.625 93.4375 C66.625 92.7775 66.625 92.1175 66.625 91.4375 C66.02816406 91.17710938 65.43132812 90.91671875 64.81640625 90.6484375 C62.46393217 89.34849639 61.26449215 88.1257846 59.5625 86.0625 C57.34955811 83.43493284 55.10662391 80.85746765 52.76171875 78.34765625 C52.01643921 77.54884033 52.01643921 77.54884033 51.25610352 76.73388672 C50.26377806 75.67384056 49.26824121 74.61679015 48.26928711 73.56298828 C46.05538371 71.18574178 44.66601418 69.56054255 43.625 66.4375 C42.635 66.1075 41.645 65.7775 40.625 65.4375 C39.27131404 64.12483482 37.93700404 62.79182675 36.625 61.4375 C32.51094904 59.38047452 27.17204353 60.30583672 22.6875 60.6875 C20.4991253 61.25528941 20.4991253 61.25528941 19.4375 63.1875 C19.169375 63.93 18.90125 64.6725 18.625 65.4375 C18.233125 66.18 17.84125 66.9225 17.4375 67.6875 C16.33687291 71.41269937 16.40563161 74.73734764 17.625 78.4375 C20.78595539 83.63751729 25.01021617 85.39588793 30.375 87.75 C31.93340964 88.45195032 33.49065591 89.1564878 35.046875 89.86328125 C35.90579346 90.25330322 36.76471191 90.6433252 37.6496582 91.04516602 C43.33854159 93.70732257 48.93410888 96.55965872 54.54205322 99.38735962 C57.86583947 101.06308278 61.19276175 102.73255309 64.51953125 104.40234375 C65.1661673 104.7269458 65.81280334 105.05154785 66.47903442 105.38598633 C68.46500924 106.38268426 70.45120883 107.37893269 72.4375 108.375 C73.47209351 108.89400375 73.47209351 108.89400375 74.52758789 109.42349243 C83.55586972 113.9489669 92.59852882 118.42798332 101.79223633 122.61108398 C115.015744 128.71067659 115.015744 128.71067659 118.625 134.4375 C119.97836986 138.23108727 120.85499931 142.15211445 121.8125 146.0625 C122.22145508 147.62677734 122.22145508 147.62677734 122.63867188 149.22265625 C126.51689205 164.79385605 126.51689205 164.79385605 122.9375 171.6875 C121.7928125 173.04875 121.7928125 173.04875 120.625 174.4375 C119.8103125 175.43523437 118.995625 176.43296875 118.15625 177.4609375 C117.3209375 178.44320312 116.485625 179.42546875 115.625 180.4375 C114.12011116 182.30857846 112.61971052 184.18328062 111.125 186.0625 C110.4753125 186.85914063 109.825625 187.65578125 109.15625 188.4765625 C107.5810736 190.36034766 107.5810736 190.36034766 106.625 192.4375 C105.965 192.4375 105.305 192.4375 104.625 192.4375 C104.40070313 193.12457031 104.17640625 193.81164062 103.9453125 194.51953125 C102.27682951 198.20697738 100.07070169 201.02400329 97.5 204.125 C97.05140625 204.70572266 96.6028125 205.28644531 96.140625 205.88476562 C92.40778509 210.3944116 89.42594689 211.62302362 83.625 212.4375 C79.35583898 211.29905706 77.28066328 210.26287873 74.52734375 206.796875 C72.45599089 203.13904448 71.59282404 199.78025996 70.9375 195.6875 C70.23369087 190.92664509 70.23369087 190.92664509 68.625 186.4375 C68.82472932 179.18197594 70.09975936 171.97577222 71.32421875 164.8359375 C71.64987014 162.86210796 71.97471614 160.8881454 72.29882812 158.9140625 C72.80465498 155.85401903 73.31547514 152.79516408 73.84008789 149.73828125 C74.35024981 146.75234055 74.83886147 143.76349684 75.32421875 140.7734375 C75.48452072 139.8700766 75.64482269 138.9667157 75.8099823 138.03598022 C76.74230831 132.15404806 76.66328712 127.09507819 74.625 121.4375 C72.80370735 119.0091098 71.59187424 117.83758589 68.8125 116.6875 C64.48807302 116.19327977 60.9381046 115.87047756 56.875 117.625 C53.66907172 120.20755334 51.93040633 122.27455379 51.33984375 126.45703125 C51.15311039 131.35269274 51.83501967 135.95161801 52.81640625 140.73828125 C53.01087593 141.68957161 53.01087593 141.68957161 53.20927429 142.66007996 C55.14928146 152.08085929 57.18198403 161.4826961 59.21127319 170.884552 C59.69993329 173.14907891 60.18773119 175.41379203 60.67471313 177.67868042 C64.05716167 193.46787706 64.05716167 193.46787706 67.6796875 209.203125 C67.96287842 210.39059326 68.24606934 211.57806152 68.5378418 212.80151367 C69.03111184 214.83817641 69.53413315 216.87252003 70.05004883 218.90356445 C73.4397761 232.8079478 73.4397761 232.8079478 70.625 238.4375 C69.965 238.4375 69.305 238.4375 68.625 238.4375 C68.38136719 239.16324219 68.13773438 239.88898438 67.88671875 240.63671875 C66.46985241 243.78189883 64.79384189 245.73954281 62.4375 248.25 C58.92176613 252.03139221 55.52768117 255.87081256 52.23046875 259.84375 C48.98393375 263.06658767 45.97957915 263.68988446 41.49267578 263.72802734 C40.47126495 263.74078705 39.44985413 263.75354675 38.39749146 263.76669312 C36.75053787 263.77003159 36.75053787 263.77003159 35.0703125 263.7734375 C33.936008 263.7800943 32.80170349 263.7867511 31.63302612 263.79360962 C29.23404563 263.8037326 26.83503699 263.80842675 24.43603516 263.80810547 C20.77068535 263.81247534 17.10654278 263.84879166 13.44140625 263.88671875 C11.10937911 263.89258763 8.77734626 263.89655654 6.4453125 263.8984375 C4.80443161 263.91999405 4.80443161 263.91999405 3.13040161 263.94198608 C-3.00728355 263.9052378 -6.75511643 263.63267518 -11.375 259.4375 C-13.37188857 256.35139949 -14.4930738 254.1430104 -14.234375 250.40625 C-12.30299752 242.79110451 -6.54782981 237.08430157 -1.375 231.4375 C-0.76011719 230.7465625 -0.14523438 230.055625 0.48828125 229.34375 C3.3414904 226.79829102 6.53165009 225.05724888 9.875 223.25 C11.31519499 222.45589386 12.75529653 221.66161823 14.1953125 220.8671875 C14.93040039 220.46467773 15.66548828 220.06216797 16.42285156 219.64746094 C20.54584236 217.38210147 24.64102225 215.06713234 28.73632812 212.75219727 C32.01264169 210.90137176 35.29590271 209.06750358 38.6015625 207.26953125 C39.85938701 206.57554261 41.11720001 205.8815331 42.375 205.1875 C43.48359375 204.58421875 44.5921875 203.9809375 45.734375 203.359375 C49.95453257 200.55354051 52.20377726 197.95390185 53.5625 193.0625 C53.63635114 188.77913369 52.52572701 186.23895401 50.625 182.4375 C50.295 181.4475 49.965 180.4575 49.625 179.4375 C46.68613094 178.30262422 43.7507204 178.27382409 40.625 178.25 C39.779375 178.23582031 38.93375 178.22164062 38.0625 178.20703125 C34.25166327 178.56735075 32.34783433 179.64784905 29.765625 182.46875 C29.14171875 183.2834375 28.5178125 184.098125 27.875 184.9375 C27.1840625 185.82824219 26.493125 186.71898437 25.78125 187.63671875 C25.0696875 188.56097656 24.358125 189.48523438 23.625 190.4375 C22.21208231 192.21132602 20.7955417 193.98227366 19.375 195.75 C18.75109375 196.52988281 18.1271875 197.30976563 17.484375 198.11328125 C16.56398437 199.26376953 16.56398437 199.26376953 15.625 200.4375 C14.65626953 201.65373047 14.65626953 201.65373047 13.66796875 202.89453125 C11.53143796 205.55396059 9.3609892 208.18321843 7.1875 210.8125 C4.5566916 214.01014376 2.0258633 217.20792745 -0.3125 220.625 C-0.993125 221.553125 -1.67375 222.48125 -2.375 223.4375 C-3.035 223.4375 -3.695 223.4375 -4.375 223.4375 C-4.60960937 224.15550781 -4.84421875 224.87351563 -5.0859375 225.61328125 C-6.60091903 228.93246807 -8.48377825 230.98803077 -11 233.625 C-15.73986453 238.70488351 -20.08346561 243.9793349 -24.375 249.4375 C-25.95162824 251.42201216 -27.53503306 253.4011585 -29.125 255.375 C-29.84171875 256.27089844 -30.5584375 257.16679687 -31.296875 258.08984375 C-34.38830931 261.58223477 -36.06364011 263.26573451 -40.82324219 263.88916016 C-42.18896665 263.93582735 -43.55541227 263.96388487 -44.921875 263.9765625 C-45.65190735 263.98891937 -46.3819397 264.00127625 -47.13409424 264.01400757 C-48.67720558 264.03354193 -50.22044096 264.04480032 -51.76367188 264.04833984 C-54.10502807 264.06238023 -56.44097321 264.12966162 -58.78125 264.19921875 C-71.31319691 264.38657706 -71.31319691 264.38657706 -76.109375 260.32421875 C-77.85644531 258.3984375 -77.85644531 258.3984375 -79.375 256.4375 C-79.86838867 255.86773437 -80.36177734 255.29796875 -80.87011719 254.7109375 C-82.26966992 253.05665648 -83.57731695 251.35998312 -84.875 249.625 C-85.81988069 248.39159616 -86.76519558 247.15852484 -87.7109375 245.92578125 C-88.16436523 245.32975098 -88.61779297 244.7337207 -89.08496094 244.11962891 C-90.85010561 241.8179925 -92.67305489 239.56524705 -94.5 237.3125 C-95.79381217 235.68920771 -97.08536474 234.06411264 -98.375 232.4375 C-99.18582031 231.42429688 -99.99664062 230.41109375 -100.83203125 229.3671875 C-101.65986938 228.30808441 -102.48670907 227.24820007 -103.3125 226.1875 C-104.06402344 225.23359375 -104.81554687 224.2796875 -105.58984375 223.296875 C-107.54201753 220.16997957 -108.19753414 218.10512772 -108.375 214.4375 C-107.73828125 212.171875 -107.73828125 212.171875 -106.6875 210.1875 C-106.35363281 209.52234375 -106.01976562 208.8571875 -105.67578125 208.171875 C-103.65987085 205.48399447 -101.35990288 204.61031762 -98.08618164 204.03588867 C-78.74060069 202.66768269 -63.93142022 207.7408977 -46.375 215.4375 C-43.54902178 216.63998582 -40.71939376 217.83333398 -37.88818359 219.0234375 C-36.31420941 219.69078499 -34.74499852 220.36954547 -33.18212891 221.0625 C-27.8864719 223.38469956 -22.92602227 225.45972656 -17.25 223.4375 C-13.50829322 221.86053546 -11.72279221 219.98527366 -10 216.33203125 C-8.94916012 213.14667285 -8.89336263 210.74875693 -9.375 207.4375 C-11.6847298 202.9891315 -13.87307382 200.58522543 -18.375 198.4375 C-21.03985301 198.1401167 -23.47387964 197.99978824 -26.13671875 198.00512695 C-26.90350952 197.9949353 -27.67030029 197.98474365 -28.46032715 197.97424316 C-30.99445939 197.9440802 -33.52821152 197.93482705 -36.0625 197.92578125 C-37.84351819 197.90890326 -39.6245247 197.89074892 -41.40551758 197.87138367 C-46.1057562 197.82383181 -50.80594789 197.79410204 -55.50634766 197.76794434 C-60.21266805 197.7385048 -64.91880841 197.69157177 -69.625 197.64648438 C-75.78212306 197.59017421 -81.93925154 197.53633114 -88.09651184 197.49734783 C-89.71597924 197.48698254 -91.3354371 197.47498798 -92.95487976 197.46129322 C-97.31680895 197.4301439 -101.67235443 197.45282301 -106.03369141 197.53622437 C-106.97577957 197.54950114 -107.91786774 197.56277792 -108.88850403 197.57645702 C-110.69301016 197.60330044 -112.49739424 197.64215672 -114.30131531 197.69537067 C-120.60586077 197.77406269 -125.48949755 196.93202789 -130.421875 192.66796875 C-130.98390625 191.99378906 -131.5459375 191.31960937 -132.125 190.625 C-132.78113281 189.84382812 -133.43726563 189.06265625 -134.11328125 188.2578125 C-134.85964844 187.32710937 -135.60601562 186.39640625 -136.375 185.4375 C-136.84083496 184.85838867 -137.30666992 184.27927734 -137.78662109 183.68261719 C-148.52190824 170.29917655 -148.52190824 170.29917655 -148.5625 163.1875 C-148.58376953 161.50914062 -148.58376953 161.50914062 -148.60546875 159.796875 C-148.36557301 156.30008968 -147.48580929 153.75289168 -146.375 150.4375 C-145.74485046 147.83603435 -145.14328396 145.23870576 -144.5703125 142.625 C-144.23103968 141.12226682 -143.89117789 139.61966651 -143.55078125 138.1171875 C-143.022927 135.77498773 -142.49883877 133.43220128 -141.98486328 131.08691406 C-141.48308093 128.8052155 -140.96547441 126.52756898 -140.4453125 124.25 C-140.29724152 123.55608154 -140.14917053 122.86216309 -139.99661255 122.1472168 C-138.79389941 116.96590998 -136.89987942 112.35292577 -132.5625 109.0625 C-128.41212805 107.87667944 -124.79743343 107.71728054 -120.90625 109.6875 C-109.20387644 117.77802987 -103.64761791 130.71784455 -100.125 143.9375 C-97.06548066 155.15298647 -93.71668926 166.24857776 -90.07324219 177.28808594 C-89.46196593 179.16979088 -88.8969722 181.06640227 -88.33984375 182.96484375 C-87.58733396 185.69233559 -87.58733396 185.69233559 -84.75 186.8125 C-79.42453861 187.79869655 -75.23932564 188.0706672 -70.0625 186.3125 C-66.62976291 183.91756715 -65.61534806 182.45039078 -64.375 178.4375 C-64.03286847 170.61443275 -66.27492764 166.16106714 -71.4375 160.5 C-72.63885728 159.10731062 -73.83808051 157.71277751 -75.03515625 156.31640625 C-75.61539551 155.65012207 -76.19563477 154.98383789 -76.79345703 154.29736328 C-78.79854386 151.93942079 -80.59825096 149.47080024 -82.375 146.9375 C-85.59866546 142.40950029 -89.03846755 138.1068156 -92.5625 133.8125 C-97.35686404 127.96081567 -102.06894494 122.0541735 -106.6875 116.0625 C-107.25686279 115.3307959 -107.82622559 114.5990918 -108.4128418 113.84521484 C-108.93273682 113.16668457 -109.45263184 112.4881543 -109.98828125 111.7890625 C-110.45016846 111.18916504 -110.91205566 110.58926758 -111.38793945 109.97119141 C-112.375 108.4375 -112.375 108.4375 -112.375 106.4375 C-113.035 106.4375 -113.695 106.4375 -114.375 106.4375 C-114.6225 105.86 -114.87 105.2825 -115.125 104.6875 C-116.2687165 102.3813669 -116.2687165 102.3813669 -118.12109375 100.7109375 C-120.89838253 97.90958209 -123.30231742 94.94927249 -125.6875 91.8125 C-126.15478516 91.24660156 -126.62207031 90.68070312 -127.10351562 90.09765625 C-129.76001319 86.55827544 -130.69426342 84.13121569 -130.30859375 79.6796875 C-130.0306399 77.92669634 -129.71785129 76.17896184 -129.375 74.4375 C-129.21362549 73.52597168 -129.05225098 72.61444336 -128.88598633 71.67529297 C-128.35417809 68.83158588 -127.74968203 66.01214918 -127.125 63.1875 C-126.93292969 62.23359375 -126.74085937 61.2796875 -126.54296875 60.296875 C-125.2286503 54.34524426 -123.87204311 50.62617444 -119.375 46.4375 C-116.40625 44.59375 -116.40625 44.59375 -112.875 42.9375 C-111.46985638 42.27124591 -110.06492776 41.6045383 -108.66015625 40.9375 C-107.85078613 40.55851562 -107.04141602 40.17953125 -106.20751953 39.7890625 C-103.46869198 38.48220598 -100.75200277 37.13560118 -98.0397644 35.77453613 C-95.45305295 34.47753924 -92.86039452 33.19268908 -90.26708984 31.90893555 C-88.97120327 31.264877 -87.67738337 30.61664217 -86.38574219 29.96411133 C-84.54341758 29.03558543 -82.69297292 28.12547987 -80.83984375 27.21875 C-79.22517212 26.4153418 -79.22517212 26.4153418 -77.57788086 25.59570312 C-73.35334141 24.06805505 -69.52915323 23.82202765 -65.1875 25.0625 C-62.40509062 27.17329333 -61.0031946 29.35556022 -59.375 32.4375 C-58.53459837 45.24966074 -62.22401907 57.63840864 -70.375 67.4375 C-71.33109547 68.8416838 -72.26874072 70.25860809 -73.1875 71.6875 C-75.35199137 74.96302019 -77.60274194 78.16445235 -79.90356445 81.34570312 C-81.63842317 83.749896 -83.35325585 86.16793573 -85.06396484 88.58935547 C-85.9383353 89.82194101 -86.81889627 91.05015829 -87.70556641 92.27392578 C-94.48612216 101.39115308 -94.48612216 101.39115308 -95.7890625 112.3828125 C-95.65242188 113.06085938 -95.51578125 113.73890625 -95.375 114.4375 C-95.230625 115.406875 -95.08625 116.37625 -94.9375 117.375 C-92.25838872 120.91142689 -88.65186081 121.77900977 -84.375 122.4375 C-81.03152735 122.41049295 -78.29008676 122.10782344 -75.375 120.4375 C-69.86948223 114.47809221 -68.7006789 107.91102522 -67.0625 100.125 C-66.76996062 98.79679994 -66.47556357 97.46900787 -66.17944336 96.14160156 C-65.55524219 93.33903256 -64.93811821 90.53503629 -64.32519531 87.72998047 C-62.77898608 80.69662382 -61.1006008 73.69392912 -59.4375 66.6875 C-58.76574075 63.85444618 -58.09511316 61.0211283 -57.42578125 58.1875 C-57.25845993 57.47936661 -57.09113861 56.77123322 -56.91874695 56.04164124 C-55.84378581 51.47536378 -54.79731129 46.90331978 -53.76829529 42.32647705 C-53.06401156 39.19811214 -52.35068331 36.07183951 -51.63668823 32.94567871 C-51.29926005 31.45654318 -50.96625064 29.96639853 -50.63796997 28.47521973 C-50.1813653 26.40262694 -49.70947691 24.33404385 -49.234375 22.265625 C-48.97108398 21.0890332 -48.70779297 19.91244141 -48.43652344 18.70019531 C-46.79921002 13.66775362 -44.5036901 9.51654192 -39.6875 7.05859375 C-38.64783081 6.515979 -38.64783081 6.515979 -37.5871582 5.96240234 C-36.49213989 5.42413818 -36.49213989 5.42413818 -35.375 4.875 C-34.62114014 4.4929541 -33.86728027 4.1109082 -33.09057617 3.71728516 C-30.86237619 2.60117266 -28.62257322 1.51398273 -26.375 0.4375 C-24.60576172 -0.41521484 -24.60576172 -0.41521484 -22.80078125 -1.28515625 C-13.74964185 -5.36214376 -8.75102912 -4.01392132 0 0 Z M-23.3125 80.9375 C-24.62644832 81.67523949 -25.94159549 82.41084703 -27.2578125 83.14453125 C-27.93231445 83.52432129 -28.60681641 83.90411133 -29.30175781 84.29541016 C-32.71263176 86.17436309 -36.19756835 87.89869026 -39.6875 89.625 C-40.69127686 90.12628418 -40.69127686 90.12628418 -41.71533203 90.63769531 C-44.63098086 92.09154942 -47.55263358 93.52120982 -50.5 94.91015625 C-51.8303125 95.54244141 -51.8303125 95.54244141 -53.1875 96.1875 C-53.93644531 96.53296875 -54.68539062 96.8784375 -55.45703125 97.234375 C-58.36419085 99.05801075 -59.99131719 101.29535101 -61.08416748 104.54855347 C-61.31852509 105.68056686 -61.31852509 105.68056686 -61.55761719 106.83544922 C-61.74080505 107.69669403 -61.92399292 108.55793884 -62.11273193 109.44528198 C-62.29724915 110.3682608 -62.48176636 111.29123962 -62.671875 112.2421875 C-62.86976624 113.19892365 -63.06765747 114.15565979 -63.27154541 115.14138794 C-63.68667821 117.16270451 -64.09653067 119.18511175 -64.50146484 121.20849609 C-65.12196638 124.2973984 -65.76484646 127.38104068 -66.41015625 130.46484375 C-66.81125359 132.43201531 -67.21103694 134.39945535 -67.609375 136.3671875 C-67.80198914 137.28611786 -67.99460327 138.20504822 -68.1930542 139.15182495 C-69.11882803 143.8602195 -69.71614016 147.71666843 -68.375 152.4375 C-66.6504011 155.1224325 -66.6504011 155.1224325 -64.375 157.625 C-63.15490234 159.05199219 -63.15490234 159.05199219 -61.91015625 160.5078125 C-61.07355469 161.47460938 -60.23695312 162.44140625 -59.375 163.4375 C-57.84789633 165.2865058 -56.32690245 167.14057717 -54.8125 169 C-54.07386719 169.90105469 -53.33523437 170.80210937 -52.57421875 171.73046875 C-50.40045955 174.40616169 -48.26139505 177.10693404 -46.125 179.8125 C-41.46697748 185.93758688 -41.46697748 185.93758688 -35.375 190.4375 C-33.68580849 190.53469591 -31.99276553 190.56826569 -30.30078125 190.5703125 C-28.72623169 190.57369629 -28.72623169 190.57369629 -27.11987305 190.57714844 C-25.98718994 190.57231445 -24.85450684 190.56748047 -23.6875 190.5625 C-22.53096924 190.55766602 -21.37443848 190.55283203 -20.18286133 190.54785156 C-16.57999884 190.5232905 -12.97764793 190.48359977 -9.375 190.4375 C-8.25319336 190.42493164 -7.13138672 190.41236328 -5.97558594 190.39941406 C-2.83673746 190.35340641 0.29961182 190.27668074 3.4375 190.1875 C4.86678833 190.16647217 4.86678833 190.16647217 6.32495117 190.14501953 C10.35276749 189.99831461 12.94942461 189.83522526 16.46484375 187.765625 C18.94465105 185.09299362 21.18665674 182.35529101 23.375 179.4375 C23.80474121 178.86789551 24.23448242 178.29829102 24.67724609 177.71142578 C25.56528727 176.53269369 26.45053983 175.35185559 27.33300781 174.16894531 C28.54642609 172.54279974 29.76899805 170.92349598 30.9921875 169.3046875 C32.48374424 167.32798774 33.96700172 165.34499501 35.44140625 163.35546875 C36.92098124 161.37829072 38.42999103 159.42286189 39.96484375 157.48828125 C41.06505859 156.07095703 41.06505859 156.07095703 42.1875 154.625 C42.84878906 153.79355469 43.51007813 152.96210938 44.19140625 152.10546875 C48.04326639 144.93702059 44.34570753 136.36099734 42.4375 129 C42.11724854 127.75476563 41.79699707 126.50953125 41.46704102 125.2265625 C40.53221169 121.62677895 39.58063924 118.0318058 38.625 114.4375 C38.26583496 113.05087158 38.26583496 113.05087158 37.89941406 111.63623047 C37.31311187 109.39498546 36.69688605 107.16552848 36.0625 104.9375 C35.73121094 103.7515625 35.39992188 102.565625 35.05859375 101.34375 C32.4694538 96.09492133 27.39434614 94.17338434 22.25 91.875 C17.70144606 89.83762688 13.18362007 87.7566784 8.6875 85.60546875 C6.54169985 84.59107564 4.39586624 83.57675329 2.25 82.5625 C1.21568848 82.06161865 0.18137695 81.5607373 -0.88427734 81.04467773 C-9.49160397 77.0129128 -14.85325073 75.95182781 -23.3125 80.9375 Z " fill="#3C3BFA" transform="translate(148.375,7.5625)"/>
<path d="M0 0 C7.26 0 14.52 0 22 0 C26.63145299 16.23256824 31.0553576 32.35889589 34 49 C34.33 49 34.66 49 35 49 C35.15033691 48.2972998 35.30067383 47.59459961 35.45556641 46.87060547 C38.84856992 31.09557554 42.62195537 15.53163454 47 0 C54.92 0 62.84 0 71 0 C73.13001522 6.39004565 74.81862544 12.82982266 76.45898438 19.35546875 C76.99191192 21.46793968 77.53486278 23.57766708 78.078125 25.6875 C80.29482473 34.4222794 81.92841748 43.03959613 83 52 C84.30309557 47.63079722 85.34054096 43.37182858 86.125 38.875 C87.71720606 30.68177297 89.90633062 22.66556739 92.125 14.625 C92.30693909 13.96159607 92.48887817 13.29819214 92.67633057 12.61468506 C95.82045505 1.17954495 95.82045505 1.17954495 97 0 C98.56172745 -0.08685603 100.12729344 -0.10702219 101.69140625 -0.09765625 C102.63564453 -0.09443359 103.57988281 -0.09121094 104.55273438 -0.08789062 C105.54595703 -0.07951172 106.53917969 -0.07113281 107.5625 -0.0625 C108.55958984 -0.05798828 109.55667969 -0.05347656 110.58398438 -0.04882812 C113.05604849 -0.03700007 115.52799518 -0.02051849 118 0 C116.5769156 6.77527011 114.79027068 13.3674872 112.8125 20 C110.27340425 28.6088075 107.78827139 37.23004877 105.375 45.875 C105.08584717 46.90947266 104.79669434 47.94394531 104.4987793 49.00976562 C103.14861316 53.84962149 101.80837065 58.6919808 100.484375 63.5390625 C100.25314941 64.38227051 100.02192383 65.22547852 99.78369141 66.09423828 C99.35584283 67.65688462 98.93087158 69.22032265 98.50927734 70.78466797 C97.11133706 75.88866294 97.11133706 75.88866294 96 77 C94.21928754 77.08726223 92.4351686 77.10699041 90.65234375 77.09765625 C89.57275391 77.09443359 88.49316406 77.09121094 87.38085938 77.08789062 C86.24455078 77.07951172 85.10824219 77.07113281 83.9375 77.0625 C82.79732422 77.05798828 81.65714844 77.05347656 80.48242188 77.04882812 C77.65489649 77.03699747 74.8274736 77.0205141 72 77 C70.79050262 71.77562177 69.58206543 66.55099971 68.37451172 61.32617188 C67.96560668 59.55755367 67.55643715 57.78899658 67.14697266 56.02050781 C64.37028738 44.02686476 61.64970509 32.02235156 59 20 C54.32607099 38.93754287 49.98846127 57.90505903 46 77 C38.08 77 30.16 77 22 77 C20.23093058 72.28248156 18.58980435 67.8743492 17.23828125 63.078125 C16.92785889 61.9837915 16.61743652 60.88945801 16.29760742 59.76196289 C15.97252197 58.60301514 15.64743652 57.44406738 15.3125 56.25 C14.60698927 53.7538445 13.90125338 51.25775263 13.1953125 48.76171875 C13.01556381 48.12435287 12.83581512 47.486987 12.65061951 46.83030701 C11.38534948 42.34682183 10.09978782 37.86951372 8.8046875 33.39453125 C8.44979248 32.16508789 8.09489746 30.93564453 7.72924805 29.66894531 C7.0559906 27.33818389 6.38052518 25.00805861 5.70239258 22.67871094 C3.54085727 15.16803492 1.70383632 7.62794413 0 0 Z " fill="#000000" transform="translate(600,112)"/>
<path d="M0 0 C7.26 0 14.52 0 22 0 C22 12.21 22 24.42 22 37 C23.65 35.35 25.3 33.7 27 32 C34.18887612 26.9212191 42.54387883 27.23876566 51 28 C57.34846767 29.23590617 62.52431997 31.52560815 66.375 36.9296875 C69.66164307 42.02771908 71.12641311 45.70094748 71.11352539 51.84838867 C71.11341209 53.64991646 71.11341209 53.64991646 71.11329651 55.48783875 C71.10813522 56.78478165 71.10297394 58.08172455 71.09765625 59.41796875 C71.09579077 60.75889534 71.09436748 62.09982261 71.09336853 63.44075012 C71.08955356 66.96709073 71.07973199 70.49339004 71.06866455 74.01971436 C71.0584285 77.61925701 71.05386621 81.21880635 71.04882812 84.81835938 C71.0381088 91.87892474 71.02052025 98.93945533 71 106 C63.74 106 56.48 106 49 106 C48.98598145 103.63884033 48.98598145 103.63884033 48.97167969 101.22998047 C48.93176329 95.38154964 48.86599854 89.53364391 48.79248047 83.68554688 C48.76428068 81.15599317 48.74306127 78.62635151 48.72900391 76.09667969 C48.70756171 72.45722454 48.6609014 68.81882585 48.609375 65.1796875 C48.60814636 64.05134491 48.60691772 62.92300232 48.60565186 61.76046753 C48.49162635 55.62714142 48.30404488 51.56612358 44 47 C40.91696898 46.12748349 40.91696898 46.12748349 37.5625 46.375 C36.45003906 46.38273437 35.33757812 46.39046875 34.19140625 46.3984375 C30.18866056 47.15293302 28.70385589 47.9297554 26 51 C23.14999241 57.82033232 22.53838081 64.50751367 22.48828125 71.8203125 C22.47033005 72.80498505 22.45237885 73.78965759 22.43388367 74.8041687 C22.38023654 77.91107049 22.34603243 81.01782277 22.3125 84.125 C22.27928661 86.24741644 22.24479331 88.36981326 22.20898438 90.4921875 C22.12215651 95.66147442 22.06169828 100.83010959 22 106 C14.74 106 7.48 106 0 106 C0 71.02 0 36.04 0 0 Z " fill="#000000" transform="translate(373,83)"/>
<path d="M0 0 C6.35587961 6.23723652 7.54073701 14.89637304 7.69189453 23.41625977 C7.69158168 25.65383358 7.68051044 27.89142499 7.66015625 30.12890625 C7.65732635 31.31475815 7.65449646 32.50061005 7.65158081 33.72239685 C7.64045369 37.48170384 7.61536273 41.24076593 7.58984375 45 C7.57980431 47.56054342 7.57068015 50.12109059 7.5625 52.68164062 C7.54053879 58.93368702 7.50606051 65.18555209 7.46484375 71.4375 C2.18484375 71.4375 -3.09515625 71.4375 -8.53515625 71.4375 C-9.85515625 68.4675 -11.17515625 65.4975 -12.53515625 62.4375 C-13.12683594 62.99179688 -13.71851563 63.54609375 -14.328125 64.1171875 C-15.11832031 64.84164062 -15.90851563 65.56609375 -16.72265625 66.3125 C-17.88861328 67.39144531 -17.88861328 67.39144531 -19.078125 68.4921875 C-24.59148362 72.85729496 -29.69391069 72.77468589 -36.47265625 72.75 C-37.35373047 72.76611328 -38.23480469 72.78222656 -39.14257812 72.79882812 C-44.39738231 72.80276431 -47.96023603 72.2924194 -52.53515625 69.4375 C-53.40140625 68.90125 -54.26765625 68.365 -55.16015625 67.8125 C-60.66118119 62.31147506 -61.81394738 56.53340354 -62.03515625 48.875 C-61.80421698 41.65814793 -60.91497738 36.97981253 -55.91015625 31.734375 C-44.86251627 22.25181735 -28.23862164 23.27691251 -14.53515625 23.4375 C-14.7917787 21.99739519 -15.06606446 20.5604313 -15.34765625 19.125 C-15.49847656 18.32449219 -15.64929688 17.52398437 -15.8046875 16.69921875 C-16.62256396 14.16686328 -17.49530232 13.10740561 -19.53515625 11.4375 C-26.43234216 7.98890704 -34.97167425 11.21078787 -41.75 13.46484375 C-42.66910156 13.78582031 -43.58820313 14.10679687 -44.53515625 14.4375 C-45.52515625 14.7675 -46.51515625 15.0975 -47.53515625 15.4375 C-48.70669918 13.14820947 -49.87253699 10.85631638 -51.03515625 8.5625 C-51.36902344 7.91152344 -51.70289063 7.26054688 -52.046875 6.58984375 C-54.53515625 1.6640625 -54.53515625 1.6640625 -54.53515625 -0.5625 C-38.9773409 -8.30382841 -14.58771984 -11.53287969 0 0 Z M-36.53515625 40.4375 C-38.6845108 43.17977995 -39.46923724 44.98548392 -39.97265625 48.4375 C-39.37963079 52.5039603 -38.82807769 53.89296979 -35.53515625 56.4375 C-29.8599916 57.4588649 -24.33442327 57.51556655 -19.41015625 54.25 C-16.70284619 51.87863352 -15.25593311 50.04138432 -14.53515625 46.4375 C-14.39637098 43.09637314 -14.41837006 39.77888268 -14.53515625 36.4375 C-26.2567959 35.87534817 -26.2567959 35.87534817 -36.53515625 40.4375 Z " fill="#000000" transform="translate(521.53515625,117.5625)"/>
<path d="M0 0 C-0.6901558 4.12542568 -1.94887848 7.8451293 -3.4375 11.75 C-3.86933594 12.89984375 -4.30117188 14.0496875 -4.74609375 15.234375 C-6 18 -6 18 -8 19 C-9.98832045 18.28698713 -11.94339628 17.4798173 -13.875 16.625 C-23.51520384 12.38520519 -32.07193112 11.6490915 -42.22265625 14.953125 C-44.46877569 16.27611403 -45.04958706 17.61658102 -46 20 C-46.66 20 -47.32 20 -48 20 C-48.46036629 21.35347689 -48.91816537 22.707827 -49.375 24.0625 C-49.75785156 25.19365234 -49.75785156 25.19365234 -50.1484375 26.34765625 C-50.42945313 27.22292969 -50.71046875 28.09820312 -51 29 C-51.35707031 30.06476563 -51.71414063 31.12953125 -52.08203125 32.2265625 C-53.16545807 36.68013827 -53.34345027 40.74870118 -53.3125 45.3125 C-53.30831055 46.15192139 -53.30412109 46.99134277 -53.29980469 47.85620117 C-53.13938538 56.65963742 -51.6679813 63.99837604 -46 71 C-39.98944716 76.69420796 -33.72537146 77.42799967 -25.734375 77.3359375 C-20.08917155 76.82810539 -14.78013259 75.40002646 -9.3359375 73.875 C-6 73 -6 73 -3 73 C-3 78.94 -3 84.88 -3 91 C-17.839187 97.05282627 -36.18946961 99.53809155 -51.6875 93.9375 C-56.87869282 91.41282152 -61.10317365 88.24539568 -65 84 C-65.54140625 83.43925781 -66.0828125 82.87851563 -66.640625 82.30078125 C-75.75274717 71.69298246 -77.02263339 57.37310107 -77 44 C-77.01160156 42.80375 -77.02320313 41.6075 -77.03515625 40.375 C-76.63361057 26.24059191 -71.4703917 13.13307521 -61.234375 3.3046875 C-44.50401181 -10.68414559 -18.65749028 -9.32874514 0 0 Z " fill="#000000" transform="translate(358,94)"/>
<path d="M0 0 C6.56185325 5.49148002 9.85441461 11.56398768 11.25 19.9375 C11.25 26.2075 11.25 32.4775 11.25 38.9375 C-4.59 38.9375 -20.43 38.9375 -36.75 38.9375 C-35.01179521 47.81657142 -35.01179521 47.81657142 -29.75 53.9375 C-21.49645463 58.14377269 -11.0979226 56.65224996 -2.5625 54 C-0.62263017 53.31921549 1.31523999 52.63267351 3.25 51.9375 C4.57 51.6075 5.89 51.2775 7.25 50.9375 C7.25 56.5475 7.25 62.1575 7.25 67.9375 C-5.51468489 74.53258719 -21.18298873 75.41235384 -35.30371094 72.39111328 C-44.46928805 69.37451429 -51.23154147 62.83943044 -56.08203125 54.703125 C-61.38856068 43.52753653 -60.658123 28.65594637 -57.75 16.9375 C-56.41437439 13.35316654 -54.79629228 10.16503389 -52.75 6.9375 C-52.38003906 6.35355469 -52.01007812 5.76960938 -51.62890625 5.16796875 C-47.41746945 -0.58814729 -40.13953526 -4.34291249 -33.23828125 -5.78125 C-21.46438057 -7.11205196 -9.98543369 -7.02126681 0 0 Z M-32.75 12.9375 C-35.77626953 16.98251372 -36.75 19.7391632 -36.75 24.9375 C-27.51 24.9375 -18.27 24.9375 -8.75 24.9375 C-9.6541214 18.60865017 -9.95930178 16.59464353 -13.75 11.9375 C-19.36500402 8.41012568 -27.77179669 8.39854992 -32.75 12.9375 Z " fill="#000000" transform="translate(894.75,117.0625)"/>
<path d="M0 0 C11.70265941 8.09072749 17.25808476 21.03030896 20.78125 34.25 C23.14595415 42.9069733 25.62287145 51.51034305 28.34375 60.0625 C28.7783252 61.43921875 28.7783252 61.43921875 29.22167969 62.84375 C30.64944073 67.43501767 30.64944073 67.43501767 32.6472168 71.78979492 C34.03392757 74.86460873 33.14056622 77.52062405 32.53125 80.75 C32.53125 81.08 32.53125 81.41 32.53125 81.75 C33.52125 82.08 34.51125 82.41 35.53125 82.75 C35.20125 83.41 34.87125 84.07 34.53125 84.75 C28.88961923 84.8488093 23.24849101 84.92143996 17.60620117 84.96972656 C15.68651559 84.98985348 13.76689138 85.0171579 11.84741211 85.05175781 C9.08952704 85.1002293 6.33245173 85.12295742 3.57421875 85.140625 C2.28501778 85.17159271 2.28501778 85.17159271 0.96977234 85.20318604 C-5.00413707 85.20544041 -5.00413707 85.20544041 -7.53393555 82.72558594 C-7.84242432 82.07364258 -8.15091309 81.42169922 -8.46875 80.75 C-8.13875 80.09 -7.80875 79.43 -7.46875 78.75 C-8.45875 78.75 -9.44875 78.75 -10.46875 78.75 C-10.46875 78.09 -10.46875 77.43 -10.46875 76.75 C-11.17515625 76.72808594 -11.8815625 76.70617187 -12.609375 76.68359375 C-16.87528688 75.29076187 -18.62262891 72.34280483 -21.21875 68.8125 C-21.71246094 68.16603516 -22.20617187 67.51957031 -22.71484375 66.85351562 C-26.44935193 61.92703429 -27.62116921 59.64615415 -27.65625 53.5 C-27.67751953 51.82164062 -27.67751953 51.82164062 -27.69921875 50.109375 C-27.45932301 46.61258968 -26.57955929 44.06539168 -25.46875 40.75 C-24.83860046 38.14853435 -24.23703396 35.55120576 -23.6640625 32.9375 C-23.32478968 31.43476682 -22.98492789 29.93216651 -22.64453125 28.4296875 C-22.116677 26.08748773 -21.59258877 23.74470128 -21.07861328 21.39941406 C-20.57683093 19.1177155 -20.05922441 16.84006898 -19.5390625 14.5625 C-19.39099152 13.86858154 -19.24292053 13.17466309 -19.09036255 12.4597168 C-17.88764941 7.27840998 -15.99362942 2.66542577 -11.65625 -0.625 C-7.50587805 -1.81082056 -3.89118343 -1.97021946 0 0 Z " fill="#3B3AFA" transform="translate(27.46875,117.25)"/>
<path d="M0 0 C7.41460363 -0.02255577 14.82918865 -0.04091784 22.24381924 -0.05181217 C25.68640348 -0.05703982 29.12896312 -0.06413531 32.5715332 -0.07543945 C36.52555043 -0.08834235 40.47955756 -0.09322918 44.43359375 -0.09765625 C46.29605995 -0.10539818 46.29605995 -0.10539818 48.19615173 -0.11329651 C49.33725906 -0.11337204 50.47836639 -0.11344757 51.65405273 -0.11352539 C52.664431 -0.115746 53.67480927 -0.11796661 54.71580505 -0.12025452 C57 0 57 0 58 1 C59.20514636 6.56743673 59.5854212 12.03960579 56.84863281 17.14990234 C53.76342225 21.72633227 50.20469642 25.91585778 46.61083984 30.09765625 C44.54510582 32.53721361 42.66821854 35.08566782 40.8125 37.6875 C39.90371094 38.94820312 39.90371094 38.94820312 38.9765625 40.234375 C34.68967074 46.22972127 34.68967074 46.22972127 30.41137695 52.23120117 C28.30917307 55.18360151 26.17505412 58.09992784 24 61 C35.55 61 47.1 61 59 61 C59 66.28 59 71.56 59 77 C38.54 77 18.08 77 -3 77 C-3 62.10855628 -3 62.10855628 2.875 55.5625 C4.08012669 54.10973107 5.28322905 52.65528067 6.484375 51.19921875 C7.08314453 50.49200684 7.68191406 49.78479492 8.29882812 49.05615234 C10.7389031 46.10691132 12.9385392 43.01433799 15.125 39.875 C15.91564386 38.75448594 16.70731695 37.63469741 17.5 36.515625 C17.89832031 35.95294922 18.29664063 35.39027344 18.70703125 34.81054688 C22.74114897 29.16156331 26.88608038 23.59071127 31 18 C20.77 17.67 10.54 17.34 0 17 C0 11.39 0 5.78 0 0 Z " fill="#000000" transform="translate(767,112)"/>
<path d="M0 0 C3.61328125 0.03255208 7.2265625 0.06510417 10.83984375 0.09765625 C10.83984375 5.37765625 10.83984375 10.65765625 10.83984375 16.09765625 C17.76984375 16.09765625 24.69984375 16.09765625 31.83984375 16.09765625 C31.83984375 21.70765625 31.83984375 27.31765625 31.83984375 33.09765625 C24.90984375 33.09765625 17.97984375 33.09765625 10.83984375 33.09765625 C10.89088862 38.57987485 10.95380637 44.05924996 11.04736328 49.54052734 C11.07557381 51.40469178 11.09678796 53.26897585 11.11083984 55.13330078 C11.13226859 57.81475066 11.17891673 60.49476211 11.23046875 63.17578125 C11.23169739 64.0082135 11.23292603 64.84064575 11.23419189 65.69830322 C11.35566823 70.51134301 11.35566823 70.51134301 13.73217773 74.62866211 C16.27466234 76.40071469 17.58105626 76.55041977 20.65234375 76.41015625 C21.46316406 76.38566406 22.27398438 76.36117187 23.109375 76.3359375 C26.36664313 76.05168377 29.6030577 75.56005426 32.83984375 75.09765625 C32.83984375 80.37765625 32.83984375 85.65765625 32.83984375 91.09765625 C26.24997267 94.39259179 22.57091365 94.58500751 15.46484375 94.53515625 C14.46195313 94.55513672 13.4590625 94.57511719 12.42578125 94.59570312 C6.09906345 94.5915626 1.05114638 93.87906654 -4.16015625 90.09765625 C-10.92205824 82.99901446 -11.4657848 74.50566285 -11.35546875 65.12890625 C-11.35263885 64.20799194 -11.34980896 63.28707764 -11.34689331 62.33825684 C-11.335784 59.42458573 -11.31069703 56.51123294 -11.28515625 53.59765625 C-11.27511448 51.61068155 -11.26599073 49.62370199 -11.2578125 47.63671875 C-11.23587504 42.79024373 -11.20140986 37.94400378 -11.16015625 33.09765625 C-14.46015625 33.09765625 -17.76015625 33.09765625 -21.16015625 33.09765625 C-22.12539598 26.69197438 -22.12539598 26.69197438 -21.16015625 23.09765625 C-18.921875 21.40234375 -18.921875 21.40234375 -16.03515625 19.91015625 C-8.14713377 15.71202058 -6.77748722 9.10948617 -4.16015625 1.09765625 C-3.16015625 0.09765625 -3.16015625 0.09765625 0 0 Z " fill="#000000" transform="translate(562.16015625,95.90234375)"/>
<path d="M0 0 C7.26 0 14.52 0 22 0 C22 25.41 22 50.82 22 77 C14.74 77 7.48 77 0 77 C0 51.59 0 26.18 0 0 Z " fill="#000000" transform="translate(729,112)"/>
<path d="M0 0 C3.26680193 0.26925395 6.53826727 0.41356026 9.8125 0.5625 C10.69615234 0.60568359 11.57980469 0.64886719 12.49023438 0.69335938 C14.65999623 0.79891536 16.8299791 0.89991071 19 1 C19.33 0.34 19.66 -0.32 20 -1 C21.32 -0.67 22.64 -0.34 24 0 C23.67 1.98 23.34 3.96 23 6 C21.35 6 19.7 6 18 6 C17.67 7.65 17.34 9.3 17 11 C15.68 11.33 14.36 11.66 13 12 C13 13.65 13 15.3 13 17 C12.01 17 11.02 17 10 17 C9.9071875 17.928125 9.9071875 17.928125 9.8125 18.875 C9.544375 19.57625 9.27625 20.2775 9 21 C7.35448038 21.71727778 5.68577711 22.38325228 4 23 C3.34 23.99 2.68 24.98 2 26 C1.67 24.02 1.34 22.04 1 20 C0.67 20.66 0.34 21.32 0 22 C-0.66 22 -1.32 22 -2 22 C-2.50615298 20.73160474 -3.00469099 19.46016898 -3.5 18.1875 C-3.7784375 17.47980469 -4.056875 16.77210938 -4.34375 16.04296875 C-5 14 -5 14 -5 11 C-5.5775 10.731875 -6.155 10.46375 -6.75 10.1875 C-9.0325868 8.98280141 -10.9737942 7.59201885 -13 6 C-11.98590222 3.46475554 -11.38502734 2.22860998 -9 0.8125 C-8.34 0.544375 -7.68 0.27625 -7 0 C-4.26773418 -1.36613291 -3.01956423 -0.60391285 0 0 Z " fill="#3B3AFA" transform="translate(144,198)"/>
<path d="M0 0 C1.8253125 -0.01546875 1.8253125 -0.01546875 3.6875 -0.03125 C7.52106559 0.58356712 8.65615493 1.48004578 11 4.5 C12.59816475 7.69632951 12.36705452 11.02299267 12 14.5 C10.68779779 17.67691061 9.75281326 19.04831204 6.8125 20.8125 C1.98191745 21.99330907 -2.17893133 22.26889566 -6.8125 20.3125 C-9.46569012 18.11414247 -10.73465799 16.7336518 -12 13.5 C-12.19333887 9.17694284 -11.95227476 5.81941684 -9.37890625 2.25390625 C-6.15668675 -0.12175312 -3.96998222 -0.03364392 0 0 Z " fill="#010101" transform="translate(740,82.5)"/>
<path d="M0 0 C9.77081882 -0.13932737 19.54139941 -0.24578636 29.31301117 -0.31087303 C33.85095941 -0.34211971 38.38822554 -0.38446898 42.92578125 -0.45263672 C47.3089717 -0.51806958 51.69150819 -0.55375613 56.07514954 -0.56926346 C57.74329416 -0.58030718 59.41140498 -0.60187362 61.07926941 -0.63438034 C76.82300368 -0.92888309 76.82300368 -0.92888309 82.66662598 4.29916382 C85.64404277 8.09712157 87 12.1501412 87 17 C87.33 16.34 87.66 15.68 88 15 C88.66 15 89.32 15 90 15 C90.99 16.485 90.99 16.485 92 18 C92.99 17.34 93.98 16.68 95 16 C95.99 15.67 96.98 15.34 98 15 C98.33 14.01 98.66 13.02 99 12 C99.99 12 100.98 12 102 12 C102 10.35 102 8.7 102 7 C103.32 6.67 104.64 6.34 106 6 C106.33 4.35 106.66 2.7 107 1 C108.32 1.33 109.64 1.66 111 2 C109.23781859 5.10479582 107.51248309 7.49928498 105 10 C100.82304572 14.91222339 96.70864472 19.86521711 93.0625 25.1875 C92.381875 26.115625 91.70125 27.04375 91 28 C90.34 28 89.68 28 89 28 C88.5978125 29.1446875 88.5978125 29.1446875 88.1875 30.3125 C87.04865495 32.88988618 86.18583329 34.26954864 84 36 C83.34 36 82.68 36 82 36 C82 35.34 82 34.68 82 34 C82.66 34 83.32 34 84 34 C83.7215625 32.8553125 83.7215625 32.8553125 83.4375 31.6875 C83 29 83 29 84 26 C82.29159719 27.63412443 81.06546953 28.86906094 80 31 C78.08364783 31.05423638 76.16685075 31.09289963 74.25 31.125 C73.18265625 31.14820313 72.1153125 31.17140625 71.015625 31.1953125 C68.07529894 31.00487687 66.47638122 30.52670104 64 29 C66 28 66 28 68.625 28.625 C73.06990841 29.11887871 76.19721179 28.36258331 80 26 C82.96515205 22.78637152 83.8978562 19.72777459 84.5 15.4375 C83.77345399 10.44249621 81.84168209 7.37927432 77.80105591 4.35316467 C74.30206252 2.66283274 71.75218134 2.61499935 67.87060547 2.59936523 C67.17243713 2.59238617 66.4742688 2.5854071 65.75494385 2.57821655 C63.45890082 2.55830265 61.16330902 2.55874024 58.8671875 2.55859375 C57.26725049 2.54681826 55.66732445 2.53345361 54.06741333 2.51856995 C49.86331007 2.48242845 45.65930415 2.46219343 41.45507812 2.44702148 C34.7189281 2.42216249 27.98299304 2.38259257 21.24704361 2.32512093 C18.89437085 2.30878253 16.54190099 2.30501388 14.18917847 2.30210876 C12.74965054 2.29233435 11.31012583 2.28207138 9.87060547 2.27124023 C8.61327606 2.26696518 7.35594666 2.26269012 6.06051636 2.25828552 C3 2 3 2 0 0 Z " fill="#3D3DFA" transform="translate(55,203)"/>
<path d="M0 0 C2 2 2 2 2 5 C2.99 5.33 3.98 5.66 5 6 C4.9175 6.9075 4.835 7.815 4.75 8.75 C4.70300503 14.44813997 7.0595849 19.72449644 9 25 C10.32 24.01 11.64 23.02 13 22 C13.66 22.33 14.32 22.66 15 23 C16.32 20.36 17.64 17.72 19 15 C20.98 15 22.96 15 25 15 C24.236875 15.556875 23.47375 16.11375 22.6875 16.6875 C19.39719213 19.51869514 17.34067615 21.59193299 16.71484375 26.015625 C16.45778071 32.76632395 17.93182912 39.14489582 19.44140625 45.6796875 C19.94392648 48.66669583 20.05398873 50.22193699 19 53 C18.67 51.68 18.34 50.36 18 49 C17.13375 49.495 17.13375 49.495 16.25 50 C14 51 14 51 10 51 C10.06832031 49.80117187 10.13664063 48.60234375 10.20703125 47.3671875 C10.20312743 40.71248283 8.37966115 34.51912202 6.6875 28.125 C6.37876953 26.92230469 6.07003906 25.71960938 5.75195312 24.48046875 C4.08897509 18.03161496 2.35501928 11.60657097 0.52661133 5.20263672 C0 3 0 3 0 0 Z " fill="#4040F1" transform="translate(183,108)"/>
<path d="M0 0 C0.66 0.33 1.32 0.66 2 1 C1.01 2.32 0.02 3.64 -1 5 C1.97 5.99 4.94 6.98 8 8 C6 9 6 9 2.83203125 8.83203125 C-1.63975313 9.02804219 -4.54659514 10.481257 -8.3125 12.6875 C-9.62456669 13.42004748 -10.93706826 14.15181658 -12.25 14.8828125 C-12.88550781 15.2427832 -13.52101563 15.60275391 -14.17578125 15.97363281 C-16.6943297 17.39065338 -19.24299303 18.74039903 -21.8125 20.0625 C-22.58207031 20.46597656 -23.35164063 20.86945313 -24.14453125 21.28515625 C-24.75683594 21.52105469 -25.36914062 21.75695312 -26 22 C-26.66 21.67 -27.32 21.34 -28 21 C-27.835 20.38125 -27.67 19.7625 -27.5 19.125 C-26.92365356 17.03936614 -26.92365356 17.03936614 -27 15 C-25.68 15 -24.36 15 -23 15 C-23 15.66 -23 16.32 -23 17 C-21.68 16.67 -20.36 16.34 -19 16 C-19 15.01 -19 14.02 -19 13 C-18.01 12.67 -17.02 12.34 -16 12 C-15.67 11.34 -15.34 10.68 -15 10 C-17.64 10 -20.28 10 -23 10 C-23.33 9.34 -23.66 8.68 -24 8 C-23.44054687 7.92523438 -22.88109375 7.85046875 -22.3046875 7.7734375 C-15.24919467 6.61642742 -9.34390545 4.13244307 -2.90625 1.14453125 C-1.9471875 0.76683594 -0.988125 0.38914062 0 0 Z " fill="#3F41E8" transform="translate(133,77)"/>
<path d="M0 0 C2.09500311 3.60576754 2.88559905 7.39641758 3.7265625 11.43359375 C3.87910492 12.14854507 4.03164734 12.8634964 4.18881226 13.60011292 C4.50910345 15.10824573 4.82664329 16.61696516 5.14160156 18.1262207 C5.62294995 20.42769808 6.11552284 22.72656786 6.609375 25.02539062 C6.91994792 26.49464871 7.22986562 27.96404547 7.5390625 29.43359375 C7.68590485 30.11707382 7.83274719 30.80055389 7.98403931 31.50474548 C8.71801388 35.05903463 9.16352107 38.36974489 9 42 C8.26394531 41.938125 7.52789062 41.87625 6.76953125 41.8125 C3.44838291 42.03734502 2.24013701 42.92327836 -0.3125 45 C-1.00988281 45.556875 -1.70726562 46.11375 -2.42578125 46.6875 C-2.94527344 47.120625 -3.46476563 47.55375 -4 48 C-4.66 47.67 -5.32 47.34 -6 47 C-5.0409375 45.9790625 -5.0409375 45.9790625 -4.0625 44.9375 C-1.54827559 41.35663493 -1.07285404 39.37124259 -1 35 C-1.77996935 31.90480516 -2.81176654 28.96051388 -4 26 C-0.69771116 26.70666263 0.71219877 27.50421684 3 30 C3.66 30.33 4.32 30.66 5 31 C5 28.69 5 26.38 5 24 C4.34 24 3.68 24 3 24 C0.86637059 19.86609302 0.8547641 16.42271681 1.02734375 11.890625 C1.21942703 9.98715798 1.21942703 9.98715798 0 9 C-0.07179964 7.48071962 -0.08392007 5.95832518 -0.0625 4.4375 C-0.05347656 3.61121094 -0.04445312 2.78492188 -0.03515625 1.93359375 C-0.02355469 1.29550781 -0.01195312 0.65742188 0 0 Z " fill="#3E3EF0" transform="translate(203,162)"/>
<path d="M0 0 C9.77081882 -0.13932737 19.54139941 -0.24578636 29.31301117 -0.31087303 C33.85095941 -0.34211971 38.38822554 -0.38446898 42.92578125 -0.45263672 C47.3089717 -0.51806958 51.69150819 -0.55375613 56.07514954 -0.56926346 C57.74329416 -0.58030718 59.41140498 -0.60187362 61.07926941 -0.63438034 C76.82769015 -0.92897075 76.82769015 -0.92897075 82.66662598 4.31747437 C85.67127808 8.1089118 86.23943886 10.94356802 86.125 15.75 C86.10695313 16.73484375 86.08890625 17.7196875 86.0703125 18.734375 C86.04710937 19.48203125 86.02390625 20.2296875 86 21 C85.34 21 84.68 21 84 21 C84.04640625 20.41992188 84.0928125 19.83984375 84.140625 19.2421875 C84.40129681 13.60050472 83.88357735 10.40838511 80 6 C75.9225036 2.96076417 72.90521025 2.61964349 67.87060547 2.59936523 C67.17243713 2.59238617 66.4742688 2.5854071 65.75494385 2.57821655 C63.45890082 2.55830265 61.16330902 2.55874024 58.8671875 2.55859375 C57.26725049 2.54681826 55.66732445 2.53345361 54.06741333 2.51856995 C49.86331007 2.48242845 45.65930415 2.46219343 41.45507812 2.44702148 C34.7189281 2.42216249 27.98299304 2.38259257 21.24704361 2.32512093 C18.89437085 2.30878253 16.54190099 2.30501388 14.18917847 2.30210876 C12.74965054 2.29233435 11.31012583 2.28207138 9.87060547 2.27124023 C8.61327606 2.26696518 7.35594666 2.26269012 6.06051636 2.25828552 C3 2 3 2 0 0 Z " fill="#474AD1" transform="translate(55,203)"/>
<path d="M0 0 C1.125 3.75 1.125 3.75 0 6 C0.66 5.34 1.32 4.68 2 4 C2.99 4 3.98 4 5 4 C5.33 3.01 5.66 2.02 6 1 C8.88415883 -0.44207941 11.41721528 -0.09394887 14.625 -0.0625 C15.81351563 -0.05347656 17.00203125 -0.04445312 18.2265625 -0.03515625 C19.14179688 -0.02355469 20.05703125 -0.01195312 21 0 C21 0.33 21 0.66 21 1 C20.32453125 1.04898438 19.6490625 1.09796875 18.953125 1.1484375 C18.06109375 1.22320312 17.1690625 1.29796875 16.25 1.375 C14.92742187 1.47941406 14.92742187 1.47941406 13.578125 1.5859375 C8.33094677 2.42866612 6.22816836 4.63131031 3.0625 8.8125 C0.22184494 12.48145822 -2.61819421 15.82955707 -6 19 C-5.67 17.35 -5.34 15.7 -5 14 C-5.93779297 14.24169922 -5.93779297 14.24169922 -6.89453125 14.48828125 C-11.16886986 15.19260623 -15.36288277 15.18424106 -19.6875 15.1875 C-20.9878418 15.20586914 -20.9878418 15.20586914 -22.31445312 15.22460938 C-23.14267578 15.22654297 -23.97089844 15.22847656 -24.82421875 15.23046875 C-25.95476685 15.23663208 -25.95476685 15.23663208 -27.1081543 15.24291992 C-29 15 -29 15 -31 13 C-30.13048706 12.99383667 -30.13048706 12.99383667 -29.2434082 12.98754883 C-26.59875891 12.95450723 -23.95638161 12.88385736 -21.3125 12.8125 C-19.94448242 12.80379883 -19.94448242 12.80379883 -18.54882812 12.79492188 C-14.01309646 12.64647975 -11.71272051 12.56107785 -8.0625 9.6875 C-7.381875 8.800625 -6.70125 7.91375 -6 7 C-5.10861328 6.00033203 -5.10861328 6.00033203 -4.19921875 4.98046875 C-3.70035156 4.38878906 -3.20148438 3.79710937 -2.6875 3.1875 C-1.91986328 2.28064453 -1.91986328 2.28064453 -1.13671875 1.35546875 C-0.76160156 0.90816406 -0.38648438 0.46085938 0 0 Z " fill="#4545E2" transform="translate(173,184)"/>
<path d="M0 0 C2 3 2 3 3.25390625 5.75 C5.36150171 9.67286225 7.97882248 12.69896637 10.9375 16 C14.64538781 20.16739293 18.01439335 24.28058322 21 29 C19 28 17 27 15 26 C14.67 25.01 14.34 24.02 14 23 C13.34 22.67 12.68 22.34 12 22 C12 21.34 12 20.68 12 20 C11.01 19.67 10.02 19.34 9 19 C7.60287726 17.04402816 6.26220093 15.04563599 5 13 C5.37634925 16.76349253 5.80386724 19.6234251 7.5625 23 C9.35670955 26.74443732 9.4894606 28.87454635 9 33 C7.85548681 36.10158119 6.49651149 39.05374301 5 42 C3.68 42 2.36 42 1 42 C0.67 42.66 0.34 43.32 0 44 C-0.66 43.67 -1.32 43.34 -2 43 C-2 42.34 -2 41.68 -2 41 C-1.05125 40.401875 -0.1025 39.80375 0.875 39.1875 C4.32116878 36.77518186 5.20520193 36.06230123 6 32 C6.64896835 25.11095139 4.8018324 21.2000345 0.4375 15.875 C-1.02138281 14.23176539 -2.49407572 12.60023469 -4 11 C-2.68 10.34 -1.36 9.68 0 9 C0 6.03 0 3.06 0 0 Z " fill="#4647E1" transform="translate(78,154)"/>
<path d="M0 0 C0.66 0.33 1.32 0.66 2 1 C1.360625 1.433125 0.72125 1.86625 0.0625 2.3125 C-2.26746003 3.91239177 -2.26746003 3.91239177 -3 7 C-3.66 7 -4.32 7 -5 7 C-5.33 12.28 -5.66 17.56 -6 23 C-6.99 23 -7.98 23 -9 23 C-8.979375 23.969375 -8.95875 24.93875 -8.9375 25.9375 C-9 29 -9 29 -10 30 C-10.20699563 31.49496842 -10.36679259 32.9966592 -10.5 34.5 C-10.88888889 38.88888889 -10.88888889 38.88888889 -12 40 C-14.9361415 50.51950933 -14.9361415 50.51950933 -14 61 C-14.99 61.495 -14.99 61.495 -16 62 C-18.65075343 67.78164333 -20.43736318 73.67033582 -21 80 C-21.66 80 -22.32 80 -23 80 C-22.28941588 72.71426411 -20.63861993 65.73682688 -18.9375 58.625 C-18.46726589 56.64852432 -17.99787602 54.67184968 -17.52867126 52.69512939 C-17.19949245 51.30857122 -16.86978193 49.92213919 -16.53956604 48.53582764 C-15.47183012 44.03957687 -14.43741845 39.53685844 -13.42570496 35.02767944 C-12.73131826 31.93548336 -12.02751643 28.84546249 -11.32302856 25.7555542 C-10.98499358 24.2620898 -10.65117123 22.76766512 -10.32174683 21.27227783 C-9.85746963 19.1683217 -9.37765382 17.06844688 -8.89453125 14.96875 C-8.49004761 13.16567383 -8.49004761 13.16567383 -8.07739258 11.32617188 C-6.45783918 6.32621821 -4.38869828 2.92579885 0 0 Z " fill="#4849D0" transform="translate(108,15)"/>
<path d="M0 0 C5.45593671 1.60676453 10.3302147 4.05030894 15.375 6.625 C16.20644531 7.04523438 17.03789062 7.46546875 17.89453125 7.8984375 C19.93156359 8.92866075 21.96662189 9.96258821 24 11 C24 11.33 24 11.66 24 12 C22.02 12 20.04 12 18 12 C18 11.34 18 10.68 18 10 C15.36 10.33 12.72 10.66 10 11 C10 11.99 10 12.98 10 14 C10.99 14 11.98 14 13 14 C13.9702889 16.91086669 14.16467847 18.90223685 14.1875 21.9375 C14.20167969 22.79214844 14.21585938 23.64679688 14.23046875 24.52734375 C13.98703556 27.13909303 13.3178268 28.75500652 12 31 C12.05220703 30.14728516 12.05220703 30.14728516 12.10546875 29.27734375 C12.32314799 23.0683026 11.65875158 18.44806846 7.75 13.37890625 C5.36525322 11.49985354 3.29427107 11.26853558 0.3125 10.8125 C-1.17830078 10.57466797 -1.17830078 10.57466797 -2.69921875 10.33203125 C-3.45847656 10.22246094 -4.21773437 10.11289063 -5 10 C-1.20960634 7.87000003 1.65736138 7.83297544 6 8 C6.33 7.01 6.66 6.02 7 5 C4.36 4.67 1.72 4.34 -1 4 C-1 1 -1 1 0 0 Z " fill="#4140E6" transform="translate(213,113)"/>
<path d="M0 0 C0.66 0.33 1.32 0.66 2 1 C1.38125 1.5775 0.7625 2.155 0.125 2.75 C-1.81347053 4.80249821 -2.90014249 6.43366582 -4 9 C-4.66 9 -5.32 9 -6 9 C-6 8.01 -6 7.02 -6 6 C-6.66 6 -7.32 6 -8 6 C-8.28875 6.94875 -8.5775 7.8975 -8.875 8.875 C-10 12 -10 12 -12 14 C-13.11375 13.76023437 -13.11375 13.76023437 -14.25 13.515625 C-17.71494961 12.86594695 -19.69341247 13.58594623 -23 14.75 C-24.010625 15.09546875 -25.02125 15.4409375 -26.0625 15.796875 C-29.0230191 16.92058397 -29.0230191 16.92058397 -31.63671875 18.59765625 C-34.69815178 20.41427519 -37.49150513 20.65602991 -41 21 C-37.62597405 18.24861226 -33.95144928 16.3422816 -30.0625 14.4375 C-29.38171387 14.10177979 -28.70092773 13.76605957 -27.99951172 13.42016602 C-26.49814593 12.68253266 -24.99547239 11.94755683 -23.49169922 11.21484375 C-21.73637944 10.35902646 -19.98296969 9.49928608 -18.23095703 8.63671875 C-15.3665687 7.22805089 -12.49664236 5.83131217 -9.625 4.4375 C-8.70340088 3.98366943 -7.78180176 3.52983887 -6.83227539 3.06225586 C-5.97239014 2.64854736 -5.11250488 2.23483887 -4.2265625 1.80859375 C-3.45908691 1.43532959 -2.69161133 1.06206543 -1.90087891 0.67749023 C-0.95994385 0.34213257 -0.95994385 0.34213257 0 0 Z " fill="#3A3AF4" transform="translate(72,33)"/>
<path d="M0 0 C0.66 0 1.32 0 2 0 C2.33 0.66 2.66 1.32 3 2 C3.94875 1.79375 4.8975 1.5875 5.875 1.375 C7.421875 1.189375 7.421875 1.189375 9 1 C9.66 1.66 10.32 2.32 11 3 C10.01 4.32 9.02 5.64 8 7 C19.22 7 30.44 7 42 7 C41.505 5.515 41.505 5.515 41 4 C41.99 3.67 42.98 3.34 44 3 C44.99 3.66 45.98 4.32 47 5 C42.98042748 8.89631145 39.77702069 9.62643417 34.35546875 9.63671875 C33.62685135 9.64766068 32.89823395 9.6586026 32.14753723 9.6698761 C30.61039269 9.68569222 29.07310748 9.69095169 27.53588867 9.6862793 C25.2031387 9.68749187 22.87670754 9.74721929 20.54492188 9.81054688 C8.0798957 9.95525367 8.0798957 9.95525367 2.92578125 5.58203125 C0 2.49252503 0 2.49252503 0 0 Z " fill="#4345D7" transform="translate(69,262)"/>
<path d="M0 0 C5.95324421 1.39331247 10.75741484 3.88535757 16 7 C15.67 7.66 15.34 8.32 15 9 C12.69 8.01 10.38 7.02 8 6 C8.515625 6.928125 9.03125 7.85625 9.5625 8.8125 C11 12 11 12 10 15 C9.4946875 14.41347656 8.989375 13.82695313 8.46875 13.22265625 C5.45137529 10.50606415 2.18276755 9.0285986 -1.5 7.4375 C-5.62503061 5.63129727 -9.51935494 3.92125568 -13 1 C-10.36 1 -7.72 1 -5 1 C-5 1.99 -5 2.98 -5 4 C-2.69 4 -0.38 4 2 4 C2.33 3.34 2.66 2.68 3 2 C2.01 2 1.02 2 0 2 C0 1.34 0 0.68 0 0 Z " fill="#4848E0" transform="translate(172,93)"/>
<path d="M0 0 C0.78745605 0.35578125 1.57491211 0.7115625 2.38623047 1.078125 C8.79798989 3.99576965 15.11868968 7.07393936 21.375 10.3125 C19.29946352 10.8659764 17.53134036 11.3125 15.375 11.3125 C15.375 10.6525 15.375 9.9925 15.375 9.3125 C14.694375 9.23 14.01375 9.1475 13.3125 9.0625 C10.12404484 8.24842634 7.8555112 6.95994016 5.0546875 5.2890625 C2.89182657 4.03158522 0.7316627 3.15416525 -1.625 2.3125 C-2.31722656 2.05339844 -3.00945312 1.79429688 -3.72265625 1.52734375 C-9.55331563 -0.56546387 -13.94308731 -1.94957656 -19.8125 0.8125 C-20.740625 1.3075 -21.66875 1.8025 -22.625 2.3125 C-23.615 2.3125 -24.605 2.3125 -25.625 2.3125 C-25.625 1.6525 -25.625 0.9925 -25.625 0.3125 C-23.92644765 -0.56095486 -22.21559046 -1.4105044 -20.5 -2.25 C-19.54867187 -2.72566406 -18.59734375 -3.20132812 -17.6171875 -3.69140625 C-11.23283531 -5.81674543 -5.7735173 -2.65246567 0 0 Z " fill="#4C4ADE" transform="translate(148.625,7.6875)"/>
<path d="M0 0 C6.35145313 1.7914355 15.38933231 5.19153459 19 11 C19.42276278 14.37661179 19.5048192 17.63062537 19 21 C18.34 21.66 17.68 22.32 17 23 C16.7834375 21.39125 16.7834375 21.39125 16.5625 19.75 C16.10566824 16.21527402 16.10566824 16.21527402 15.375 13.6875 C15 12 15 12 16 10 C13.39417629 9.06934867 12.35801776 8.85082593 9.75 9.9375 C9.1725 10.288125 8.595 10.63875 8 11 C7.34 10.34 6.68 9.68 6 9 C6.375 6.375 6.375 6.375 7 4 C5.68 4 4.36 4 3 4 C3 3.34 3 2.68 3 2 C2.01 2 1.02 2 0 2 C0 1.34 0 0.68 0 0 Z " fill="#4543E6" transform="translate(170,19)"/>
<path d="M0 0 C0 0.99 0 1.98 0 3 C-0.99 3 -1.98 3 -3 3 C-3.33 3.66 -3.66 4.32 -4 5 C-4.66 4.67 -5.32 4.34 -6 4 C-6.66 4.66 -7.32 5.32 -8 6 C-8 5.34 -8 4.68 -8 4 C-8.94875 4.495 -9.8975 4.99 -10.875 5.5 C-14 7 -14 7 -16 7 C-16 7.66 -16 8.32 -16 9 C-16.96421875 9.32613281 -17.9284375 9.65226562 -18.921875 9.98828125 C-20.19804677 10.4293112 -21.47408129 10.87073846 -22.75 11.3125 C-23.38421875 11.52583984 -24.0184375 11.73917969 -24.671875 11.95898438 C-28.27822822 13.21745139 -31.00787183 14.6606998 -34 17 C-36.75 17.1875 -36.75 17.1875 -39 17 C-35.69320409 14.30466858 -32.21000959 12.5239887 -28.37109375 10.6796875 C-27.74018326 10.37555939 -27.10927277 10.07143127 -26.45924377 9.75808716 C-25.13144638 9.11906599 -23.8026438 8.48212972 -22.47290039 7.84716797 C-20.43859763 6.87552426 -18.40755824 5.89731293 -16.37695312 4.91796875 C-3.62606144 -1.20868715 -3.62606144 -1.20868715 0 0 Z " fill="#4546D6" transform="translate(212,42)"/>
<path d="M0 0 C0.33 0 0.66 0 1 0 C1.02696365 1.79158489 1.04637917 3.58328473 1.0625 5.375 C1.07410156 6.37273437 1.08570312 7.37046875 1.09765625 8.3984375 C1 11 1 11 0 13 C1.65 12.67 3.3 12.34 5 12 C5 11.34 5 10.68 5 10 C5.66 10.33 6.32 10.66 7 11 C6.01 13.31 5.02 15.62 4 18 C1.66666667 18 -0.66666667 18 -3 18 C-3.33 21.63 -3.66 25.26 -4 29 C-4.99 29 -5.98 29 -7 29 C-4.7392746 19.31445564 -2.45165321 9.63945469 0 0 Z " fill="#4646E4" transform="translate(84,96)"/>
<path d="M0 0 C0.99 0.33 1.98 0.66 3 1 C4.82171784 1.12588603 6.64714144 1.20138542 8.47265625 1.24609375 C10.06883789 1.29540039 10.06883789 1.29540039 11.69726562 1.34570312 C13.94455566 1.40700471 16.19195897 1.46428301 18.43945312 1.51757812 C20.03370117 1.56881836 20.03370117 1.56881836 21.66015625 1.62109375 C22.63605713 1.6461499 23.61195801 1.67120605 24.61743164 1.69702148 C27 2 27 2 29 4 C27.865625 4.309375 26.73125 4.61875 25.5625 4.9375 C22.21224901 5.62924531 22.21224901 5.62924531 21 7 C18.98035801 7.07244053 16.95832876 7.08377188 14.9375 7.0625 C13.28041016 7.04896484 13.28041016 7.04896484 11.58984375 7.03515625 C10.73519531 7.02355469 9.88054687 7.01195312 9 7 C8.67 6.34 8.34 5.68 8 5 C6.11736119 4.09656316 6.11736119 4.09656316 3.9375 3.375 C3.20402344 3.11460937 2.47054687 2.85421875 1.71484375 2.5859375 C1.14894531 2.39257812 0.58304687 2.19921875 0 2 C0 1.34 0 0.68 0 0 Z " fill="#4446EA" transform="translate(110,196)"/>
<path d="M0 0 C4.12751449 0.60698743 7.3321148 2.03810791 11 4 C10.34 5.98 9.68 7.96 9 10 C9.66 10.33 10.32 10.66 11 11 C12.35404516 12.73927245 13.65993689 14.51629861 14.9375 16.3125 C15.62714844 17.27800781 16.31679687 18.24351562 17.02734375 19.23828125 C17.67832031 20.14964844 18.32929687 21.06101563 19 22 C19.99538289 23.33678371 20.99344902 24.67160514 22 26 C21.67 26.66 21.34 27.32 21 28 C15.6251965 21.59366855 10.46284204 15.05747629 5.4375 8.375 C4.90092773 7.66408203 4.36435547 6.95316406 3.81152344 6.22070312 C0 1.12381213 0 1.12381213 0 0 Z " fill="#4544E1" transform="translate(52,135)"/>
<path d="M0 0 C0.33 0 0.66 0 1 0 C2.01797849 4.28760267 3.01104487 8.58061825 4 12.875 C4.42925781 14.68097656 4.42925781 14.68097656 4.8671875 16.5234375 C8.15903809 30.9448782 8.15903809 30.9448782 7 37 C5.4765625 39.27294922 5.4765625 39.27294922 4 41 C3.34 40.67 2.68 40.34 2 40 C2.66 39.34 3.32 38.68 4 38 C4.5881975 31.98842212 4.05409871 25.92930527 3 20 C2.34 20 1.68 20 1 20 C1.495 15.545 1.495 15.545 2 11 C1.34 11 0.68 11 0 11 C0 7.37 0 3.74 0 0 Z " fill="#4247D6" transform="translate(251,76)"/>
<path d="M0 0 C0.66 0 1.32 0 2 0 C1.46993189 4.85895771 0.71553056 9.53165473 -0.39453125 14.2890625 C-1.47290353 19.11738743 -2.37803034 23.98265444 -3.31640625 28.83984375 C-4 32 -4 32 -5 34 C-5.66 34 -6.32 34 -7 34 C-6.28418236 26.67872592 -4.63081979 19.65044553 -2.9375 12.5 C-2.65583984 11.29601562 -2.37417969 10.09203125 -2.08398438 8.8515625 C-1.39298183 5.90016178 -0.69822701 2.94969839 0 0 Z " fill="#4846DB" transform="translate(9,128)"/>
<path d="M0 0 C8.61302995 2.31031862 16.76543828 5.62691215 25 9 C26.97832853 9.79375881 28.9573663 10.58575522 30.9375 11.375 C32.96875 12.1875 32.96875 12.1875 35 13 C35 13.33 35 13.66 35 14 C29.20853178 14.36196676 25.3139263 13.38210489 20 11 C19.67 10.34 19.34 9.68 19 9 C16.42562419 8.08719862 16.42562419 8.08719862 13.4375 7.375 C12.42558594 7.11460937 11.41367188 6.85421875 10.37109375 6.5859375 C9.58863281 6.39257812 8.80617188 6.19921875 8 6 C8 5.34 8 4.68 8 4 C5.36 3.34 2.72 2.68 0 2 C0 1.34 0 0.68 0 0 Z " fill="#4045D0" transform="translate(84,217)"/>
<path d="M0 0 C1.32 0.33 2.64 0.66 4 1 C2.23700766 4.10622459 0.50676949 6.49323051 -2 9 C-4.27735758 11.74708879 -6.51009318 14.52778086 -8.74609375 17.30859375 C-10.72985436 19.67741708 -12.77683449 21.85786103 -15 24 C-15.1875 20.625 -15.1875 20.625 -15 17 C-12 15 -12 15 -9 14 C-8.67 13.01 -8.34 12.02 -8 11 C-7.01 11 -6.02 11 -5 11 C-5 9.35 -5 7.7 -5 6 C-3.68 5.67 -2.36 5.34 -1 5 C-0.67 3.35 -0.34 1.7 0 0 Z " fill="#4546CF" transform="translate(162,204)"/>
<path d="M0 0 C2.09500311 3.60576754 2.88559905 7.39641758 3.7265625 11.43359375 C3.87910492 12.14854507 4.03164734 12.8634964 4.18881226 13.60011292 C4.50910345 15.10824573 4.82664329 16.61696516 5.14160156 18.1262207 C5.62294995 20.42769808 6.11552284 22.72656786 6.609375 25.02539062 C6.91994792 26.49464871 7.22986562 27.96404547 7.5390625 29.43359375 C7.68590485 30.11707382 7.83274719 30.80055389 7.98403931 31.50474548 C8.71801388 35.05903463 9.16352107 38.36974489 9 42 C6.09472388 39.09472388 6.28735681 35.78900975 5.875 31.875 C5.78863281 31.12089844 5.70226562 30.36679688 5.61328125 29.58984375 C5.40110739 27.72742873 5.19954237 25.86381069 5 24 C4.34 24 3.68 24 3 24 C0.86637059 19.86609302 0.8547641 16.42271681 1.02734375 11.890625 C1.21942703 9.98715798 1.21942703 9.98715798 0 9 C-0.07179964 7.48071962 -0.08392007 5.95832518 -0.0625 4.4375 C-0.05347656 3.61121094 -0.04445312 2.78492188 -0.03515625 1.93359375 C-0.02355469 1.29550781 -0.01195312 0.65742188 0 0 Z " fill="#4343D2" transform="translate(203,162)"/>
<path d="M0 0 C0.66 0.33 1.32 0.66 2 1 C1.34 1.94875 0.68 2.8975 0 3.875 C-3.1296458 9.3352331 -2.68281341 15.02045058 -1.3125 21 C0.42110528 23.64168424 2.03295641 24.05923008 5 25 C5.99 25.66 6.98 26.32 8 27 C4.26512223 26.5020163 2.18762365 26.12508244 -1 24 C-1 23.34 -1 22.68 -1 22 C-2.32 22.33 -3.64 22.66 -5 23 C-6.70374373 17.32085425 -6.42038771 10.91109163 -3.81640625 5.57421875 C-2.61168955 3.65281505 -1.36839377 1.80769362 0 0 Z " fill="#4343DD" transform="translate(55,104)"/>
<path d="M0 0 C0.33 0.66 0.66 1.32 1 2 C-0.89326541 3.12931621 -2.7897264 4.25327616 -4.6875 5.375 C-5.74324219 6.00148438 -6.79898438 6.62796875 -7.88671875 7.2734375 C-10.56597853 8.75930051 -13.14194811 9.92103746 -16 11 C-17.175625 11.556875 -18.35125 12.11375 -19.5625 12.6875 C-23.05929551 14.0226401 -23.68047726 14.08229516 -27 13 C-18.0765816 8.48790764 -9.15325054 4.03363583 0 0 Z " fill="#4749D7" transform="translate(58,40)"/>
<path d="M0 0 C2 2 2 2 2 5 C2.99 5.33 3.98 5.66 5 6 C4.92265625 7.4540625 4.92265625 7.4540625 4.84375 8.9375 C4.84375 13.55148836 6.14205056 17.62520072 7.5 22 C9.21565595 27.52719432 10.3089543 32.1916592 10 38 C8.51905585 35.23918901 7.54928828 32.66388341 6.81640625 29.62109375 C6.61233154 28.78698975 6.40825684 27.95288574 6.19799805 27.09350586 C5.98828369 26.21702393 5.77856934 25.34054199 5.5625 24.4375 C5.12339469 22.63517302 4.68329717 20.83308747 4.2421875 19.03125 C4.03045898 18.165 3.81873047 17.29875 3.60058594 16.40625 C2.6452592 12.57872953 1.57773177 8.7849854 0.48046875 4.99609375 C0 3 0 3 0 0 Z " fill="#494CD3" transform="translate(183,108)"/>
<path d="M0 0 C0.66 0 1.32 0 2 0 C2 1.32 2 2.64 2 4 C1.34 4 0.68 4 0 4 C0 5.32 0 6.64 0 8 C0.66 8 1.32 8 2 8 C2.268125 8.763125 2.53625 9.52625 2.8125 10.3125 C3.99279949 12.98370411 4.96057022 14.01055624 7 16 C7.92256686 17.16685217 8.81896181 18.35489285 9.6875 19.5625 C10.12449219 20.16191406 10.56148437 20.76132813 11.01171875 21.37890625 C12 23 12 23 12 25 C12.639375 25.2475 13.27875 25.495 13.9375 25.75 C16 27 16 27 16.75 29.125 C16.87375 30.053125 16.87375 30.053125 17 31 C16.34 31 15.68 31 15 31 C14.7525 30.4225 14.505 29.845 14.25 29.25 C13.10684705 26.94392121 13.10684705 26.94392121 11.25390625 25.27734375 C6.20550928 20.17645045 -0.36297548 13.36566342 -1.42578125 6.08203125 C-1.125 3.625 -1.125 3.625 0 0 Z " fill="#4A4ADD" transform="translate(19,83)"/>
<path d="M0 0 C0.99 0.33 1.98 0.66 3 1 C3.33 2.98 3.66 4.96 4 7 C3.01 7.495 3.01 7.495 2 8 C-0.65075343 13.78164333 -2.43736318 19.67033582 -3 26 C-3.66 26 -4.32 26 -5 26 C-4.35215814 20.05349367 -3.28016565 14.32612517 -1.9375 8.5 C-1.75123047 7.67757812 -1.56496094 6.85515625 -1.37304688 6.0078125 C-0.91879115 4.0044283 -0.45988401 2.0020997 0 0 Z " fill="#4241DD" transform="translate(90,69)"/>
<path d="M0 0 C2.25808338 1.04753333 4.50531411 2.11192134 6.75 3.1875 C7.38421875 3.47947266 8.0184375 3.77144531 8.671875 4.07226562 C13.83900119 6.57509237 16.9436672 9.27717827 19.08203125 14.7890625 C19.32308594 15.72492188 19.56414062 16.66078125 19.8125 17.625 C20.06644531 18.56601563 20.32039063 19.50703125 20.58203125 20.4765625 C21 23 21 23 20 26 C20 25.34 20 24.68 20 24 C19.34 24 18.68 24 18 24 C17.81824219 23.09636719 17.63648438 22.19273437 17.44921875 21.26171875 C17.19785156 20.08222656 16.94648438 18.90273437 16.6875 17.6875 C16.44386719 16.51574219 16.20023437 15.34398437 15.94921875 14.13671875 C15.02233977 11.07382238 14.54018954 9.84288261 12 8 C8.89992799 6.79950593 8.89992799 6.79950593 6 6 C6 5.34 6 4.68 6 4 C4.35 3.67 2.7 3.34 1 3 C0.67 2.01 0.34 1.02 0 0 Z " fill="#4749CE" transform="translate(249,130)"/>
<path d="M0 0 C0.99 0.33 1.98 0.66 3 1 C3.433125 1.99 3.433125 1.99 3.875 3 C4.8553382 5.29150599 4.8553382 5.29150599 7.625 5.75 C8.40875 5.8325 9.1925 5.915 10 6 C10.12375 6.969375 10.2475 7.93875 10.375 8.9375 C10.58125 9.948125 10.7875 10.95875 11 12 C11.66 12.33 12.32 12.66 13 13 C13.33 13.99 13.66 14.98 14 16 C14.66 16.66 15.32 17.32 16 18 C15.67 18.99 15.34 19.98 15 21 C12.8646715 18.44595324 10.74366684 15.88037785 8.625 13.3125 C8.02171875 12.59126953 7.4184375 11.87003906 6.796875 11.12695312 C1.32084216 4.4644465 1.32084216 4.4644465 0 0 Z " fill="#4344DC" transform="translate(36,114)"/>
<path d="M0 0 C5.04413883 -0.29671405 8.00086793 -0.17879728 12 3 C15.3728313 6.39745051 18.110779 9.18338626 19 14 C16 14 16 14 14 13 C14 11.35 14 9.7 14 8 C12.68 7.67 11.36 7.34 10 7 C10 6.01 10 5.02 10 4 C9.34 4 8.68 4 8 4 C8 4.66 8 5.32 8 6 C7.34 6 6.68 6 6 6 C6.33 5.01 6.66 4.02 7 3 C4.69 2.34 2.38 1.68 0 1 C0 0.67 0 0.34 0 0 Z " fill="#403FDD" transform="translate(18,116)"/>
<path d="M0 0 C0.825 0.309375 1.65 0.61875 2.5 0.9375 C6.39126155 2.11877583 9.96166953 2.58224168 14 3 C14 3.66 14 4.32 14 5 C10.5754372 5.78275721 7.50005933 6 4 6 C2.6696875 6.2784375 2.6696875 6.2784375 1.3125 6.5625 C-1 7 -1 7 -3 6 C-2 4 -1 2 0 0 Z " fill="#4240FB" transform="translate(61,193)"/>
<path d="M0 0 C0.33 0 0.66 0 1 0 C1.28316835 7.86578746 1.47141229 14.94454467 -1.19921875 22.4375 C-2.77557141 27.48182853 -3.30368026 32.77350598 -4 38 C-4.33 38 -4.66 38 -5 38 C-4.54758978 25.15154979 -2.24059063 12.63387934 0 0 Z " fill="#4949CC" transform="translate(224,145)"/>
<path d="M0 0 C0.33 0.66 0.66 1.32 1 2 C-2.3 6.95 -5.6 11.9 -9 17 C-9.33 15.68 -9.66 14.36 -10 13 C-9.34 12.01 -8.68 11.02 -8 10 C-7.34 10 -6.68 10 -6 10 C-6 9.01 -6 8.02 -6 7 C-6.66 7 -7.32 7 -8 7 C-6.98590222 4.46475554 -6.38502734 3.22860998 -4 1.8125 C-3.34 1.544375 -2.68 1.27625 -2 1 C-1.34 0.67 -0.68 0.34 0 0 Z " fill="#3C3FE5" transform="translate(73,79)"/>
<path d="M0 0 C1.65 0.33 3.3 0.66 5 1 C1.41934578 6.66936919 -2.7697739 11.80462523 -7 17 C-7.66 15.68 -8.32 14.36 -9 13 C-8.360625 12.896875 -7.72125 12.79375 -7.0625 12.6875 C-6.0415625 12.3471875 -6.0415625 12.3471875 -5 12 C-4.10869587 9.3260876 -3.52268466 6.76276177 -3 4 C-1.68 4 -0.36 4 1 4 C0.67 2.68 0.34 1.36 0 0 Z " fill="#423FDE" transform="translate(124,249)"/>
<path d="M0 0 C0.33 0 0.66 0 1 0 C0.43617776 6.99365488 -0.62360399 13.76100843 -2.0625 20.625 C-2.24876953 21.53378906 -2.43503906 22.44257813 -2.62695312 23.37890625 C-3.08017296 25.5869003 -3.53789693 27.79385124 -4 30 C-4.33 30 -4.66 30 -5 30 C-5.18758888 23.55944852 -5.32896497 18.0811863 -3 12 C-2.43167406 9.10521753 -1.94025185 6.20435223 -1.46484375 3.29296875 C-1 1 -1 1 0 0 Z " fill="#404BD1" transform="translate(86,114)"/>
<path d="M0 0 C0.66 0.33 1.32 0.66 2 1 C1.401875 1.804375 0.80375 2.60875 0.1875 3.4375 C-4.59257549 10.65810699 -6.02036149 19.70236625 -8 28 C-9.42429063 23.38302158 -8.39691357 19.74225911 -7.375 15.125 C-7.22160156 14.33480469 -7.06820313 13.54460937 -6.91015625 12.73046875 C-5.70827389 7.21648936 -3.92787214 4.05836623 0 0 Z " fill="#4A4BD2" transform="translate(29,54)"/>
<path d="M0 0 C0.66 0 1.32 0 2 0 C2 0.99 2 1.98 2 3 C3.7634375 2.7525 3.7634375 2.7525 5.5625 2.5 C12.35369451 1.72728396 19.17637939 1.9190875 26 2 C26 2.33 26 2.66 26 3 C25.03960815 3.06731323 25.03960815 3.06731323 24.05981445 3.13598633 C21.14288646 3.34805452 18.22787366 3.58007536 15.3125 3.8125 C13.80139648 3.91788086 13.80139648 3.91788086 12.25976562 4.02539062 C5.83142516 4.55578175 1.68777765 5.31222235 -3 10 C-2.25 3.375 -2.25 3.375 0 0 Z " fill="#4648D5" transform="translate(104,54)"/>
<path d="M0 0 C0.99 0 1.98 0 3 0 C3 7.59 3 15.18 3 23 C2.67 23 2.34 23 2 23 C-0.2173731 15.0074348 -1.53994167 8.21920674 0 0 Z " fill="#494AD9" transform="translate(218,184)"/>
<path d="M0 0 C0.66 0.33 1.32 0.66 2 1 C1.01 2.32 0.02 3.64 -1 5 C1.97 5.99 4.94 6.98 8 8 C5.05792996 9.47103502 2.2604856 9 -1 9 C-3.31036915 9.42854995 -3.31036915 9.42854995 -5 10 C-4.67 8.35 -4.34 6.7 -4 5 C-4.99 4.34 -5.98 3.68 -7 3 C-4.69631264 1.93347808 -2.35981813 0.93578995 0 0 Z " fill="#4445D9" transform="translate(133,77)"/>
<path d="M0 0 C3.93724069 -0.11786788 7.87401761 -0.18780174 11.8125 -0.25 C13.46282227 -0.30027344 13.46282227 -0.30027344 15.14648438 -0.3515625 C22.87919505 -0.44280392 28.93666572 0.85048259 36 4 C31.83129946 5.30674498 29.11538022 4.3976763 25 3 C24.67 2.67 24.34 2.34 24 2 C22.22130274 1.84235595 20.43681524 1.74899323 18.65234375 1.68359375 C17.57275391 1.64169922 16.49316406 1.59980469 15.38085938 1.55664062 C13.67639648 1.49766602 13.67639648 1.49766602 11.9375 1.4375 C10.79732422 1.39431641 9.65714844 1.35113281 8.48242188 1.30664062 C5.65507805 1.20017161 2.82764262 1.09815793 0 1 C0 0.67 0 0.34 0 0 Z " fill="#4748CC" transform="translate(48,212)"/>
<path d="M0 0 C0.33 0 0.66 0 1 0 C1.1875 2.3125 1.1875 2.3125 1 5 C-0.4375 6.6875 -0.4375 6.6875 -2 8 C-2.33 8.66 -2.66 9.32 -3 10 C-4.91635217 10.05423638 -6.83314925 10.09289963 -8.75 10.125 C-10.35101563 10.15980469 -10.35101563 10.15980469 -11.984375 10.1953125 C-14.92470106 10.00487687 -16.52361878 9.52670104 -19 8 C-17 7 -17 7 -14.375 7.625 C-9.98135276 8.11318303 -6.80698812 7.23197313 -3 5 C-1.04499143 2.47019293 -1.04499143 2.47019293 0 0 Z " fill="#4447D1" transform="translate(138,224)"/>
<path d="M0 0 C1.32 0.66 2.64 1.32 4 2 C2.23454414 4.29599183 0.46299049 6.58678905 -1.3125 8.875 C-1.81201172 9.52597656 -2.31152344 10.17695313 -2.82617188 10.84765625 C-3.31279297 11.47285156 -3.79941406 12.09804687 -4.30078125 12.7421875 C-4.96847534 13.60626221 -4.96847534 13.60626221 -5.6496582 14.48779297 C-7 16 -7 16 -10 18 C-10 16.68 -10 15.36 -10 14 C-9.01 13.67 -8.02 13.34 -7 13 C-6.30062468 11.68352881 -5.63270867 10.34977849 -5 9 C-4.34 8.67 -3.68 8.34 -3 8 C-2.34786708 5.97536745 -2.34786708 5.97536745 -2 4 C-1.34 4 -0.68 4 0 4 C-0.33 3.01 -0.66 2.02 -1 1 C-0.67 0.67 -0.34 0.34 0 0 Z " fill="#3F41DD" transform="translate(267,177)"/>
<path d="M0 0 C7.33126033 1.40985776 13.43032485 4.51807217 20 8 C20 8.33 20 8.66 20 9 C18.02 9 16.04 9 14 9 C13.67 8.34 13.34 7.68 13 7 C8.90610041 5.00087613 4.49459524 3.70228051 0 3 C0 2.01 0 1.02 0 0 Z " fill="#494BD6" transform="translate(213,40)"/>
<path d="M0 0 C1.18851563 0.00902344 2.37703125 0.01804688 3.6015625 0.02734375 C4.51679688 0.03894531 5.43203125 0.05054688 6.375 0.0625 C6.375 0.3925 6.375 0.7225 6.375 1.0625 C5.69953125 1.11148438 5.0240625 1.16046875 4.328125 1.2109375 C3.43609375 1.28570312 2.5440625 1.36046875 1.625 1.4375 C0.74328125 1.50710937 -0.1384375 1.57671875 -1.046875 1.6484375 C-5.31136033 2.33333969 -7.73050005 3.80841674 -10.375 7.1875 C-11.1175 8.13625 -11.86 9.085 -12.625 10.0625 C-13.285 8.7425 -13.945 7.4225 -14.625 6.0625 C-13.965 5.4025 -13.305 4.7425 -12.625 4.0625 C-11.635 4.0625 -10.645 4.0625 -9.625 4.0625 C-9.295 3.0725 -8.965 2.0825 -8.625 1.0625 C-5.74084117 -0.37957941 -3.20778472 -0.03144887 0 0 Z " fill="#4949CC" transform="translate(187.625,183.9375)"/>
<path d="M0 0 C3.69495081 3.58842971 7.04758217 7.33171871 10.3125 11.3125 C10.76689453 11.86228516 11.22128906 12.41207031 11.68945312 12.97851562 C12.79525852 14.31712216 13.89795939 15.65829231 15 17 C12 17 12 17 9 15 C8.67 14.01 8.34 13.02 8 12 C7.34 11.67 6.68 11.34 6 11 C6 10.34 6 9.68 6 9 C5.01 8.67 4.02 8.34 3 8 C0.92469613 5.07920195 0 3.62453269 0 0 Z " fill="#4C4ECC" transform="translate(84,165)"/>
<path d="M0 0 C2 1.5625 2 1.5625 4 4 C4.34654968 9.04972392 3.62334289 13.52287487 2.5 18.4375 C2.2215625 19.67371094 1.943125 20.90992188 1.65625 22.18359375 C1.4396875 23.11300781 1.223125 24.04242188 1 25 C0.67 25 0.34 25 0 25 C0 21.37 0 17.74 0 14 C0.66 14 1.32 14 2 14 C1.85866501 12.22880197 1.71176792 10.45804713 1.5625 8.6875 C1.48128906 7.70136719 1.40007812 6.71523438 1.31640625 5.69921875 C1.08187441 2.90624401 1.08187441 2.90624401 0 0 Z " fill="#4146CC" transform="translate(85,36)"/>
<path d="M0 0 C3.59412911 1.33496224 6.92170156 2.69127617 10 5 C10.6875 7.4375 10.6875 7.4375 11 10 C11.63626656 11.348105 12.29892343 12.68443401 13 14 C11.84775972 13.07038578 10.70340824 12.1309875 9.5625 11.1875 C8.60537109 10.40439453 8.60537109 10.40439453 7.62890625 9.60546875 C6 8 6 8 5 5 C4.01 4.67 3.02 4.34 2 4 C0.8125 1.9375 0.8125 1.9375 0 0 Z " fill="#4846DD" transform="translate(187,69)"/>
<path d="M0 0 C1.32 0.33 2.64 0.66 4 1 C3.67 1.66 3.34 2.32 3 3 C2.34 3 1.68 3 1 3 C0.5978125 4.1446875 0.5978125 4.1446875 0.1875 5.3125 C-0.95134505 7.88988618 -1.81416671 9.26954864 -4 11 C-4.66 11 -5.32 11 -6 11 C-6 10.34 -6 9.68 -6 9 C-5.34 9 -4.68 9 -4 9 C-4.33 7.35 -4.66 5.7 -5 4 C-4.360625 3.71125 -3.72125 3.4225 -3.0625 3.125 C-0.84793921 2.17176549 -0.84793921 2.17176549 0 0 Z " fill="#383DDD" transform="translate(143,228)"/>
<path d="M0 0 C0.33 0 0.66 0 1 0 C1.53160457 2.41474617 2.05054766 4.83108107 2.5625 7.25 C2.71396484 7.93191406 2.86542969 8.61382812 3.02148438 9.31640625 C3.75233495 12.81769038 4.32203546 15.60298173 3 19 C2.67 19 2.34 19 2 19 C1.67 17.35 1.34 15.7 1 14 C-0.32 14.33 -1.64 14.66 -3 15 C-2.67 13.68 -2.34 12.36 -2 11 C-1.67 11 -1.34 11 -1 11 C-0.67 7.37 -0.34 3.74 0 0 Z " fill="#4045D7" transform="translate(199,142)"/>
<path d="M0 0 C0.66 0.33 1.32 0.66 2 1 C-2.625 4 -2.625 4 -6 4 C-6 4.66 -6 5.32 -6 6 C-9.13498292 7.85776765 -11.37471432 8.20140476 -15 8 C-15 8.66 -15 9.32 -15 10 C-16.32 9.67 -17.64 9.34 -19 9 C-16.39704724 7.68504458 -13.79271967 6.37295014 -11.1875 5.0625 C-10.44951172 4.68931641 -9.71152344 4.31613281 -8.95117188 3.93164062 C-8.23896484 3.57392578 -7.52675781 3.21621094 -6.79296875 2.84765625 C-6.1383667 2.51773682 -5.48376465 2.18781738 -4.80932617 1.84790039 C-3 1 -3 1 0 0 Z " fill="#4444D0" transform="translate(154,67)"/>
<path d="M0 0 C1.32 0 2.64 0 4 0 C3.87431641 0.99580078 3.87431641 0.99580078 3.74609375 2.01171875 C2.94574958 8.54720848 2.94574958 8.54720848 4 15 C1 14 1 14 -0.6875 10.9375 C-1.120625 9.968125 -1.55375 8.99875 -2 8 C-1.34 7.01 -0.68 6.02 0 5 C0.16713569 2.37468476 0.16713569 2.37468476 0 0 Z " fill="#4746DE" transform="translate(97,64)"/>
<path d="M0 0 C0.66 0.33 1.32 0.66 2 1 C-3.445 7.435 -3.445 7.435 -9 14 C-9.66 13.67 -10.32 13.34 -11 13 C-10.67 12.01 -10.34 11.02 -10 10 C-9.34 10.33 -8.68 10.66 -8 11 C-8.33 9.68 -8.66 8.36 -9 7 C-7.68 7 -6.36 7 -5 7 C-4.731875 6.401875 -4.46375 5.80375 -4.1875 5.1875 C-3.01506533 3.02775192 -1.80630718 1.64209744 0 0 Z " fill="#4040DB" transform="translate(249,204)"/>
<path d="M0 0 C3 2 3 2 3.51171875 4.3828125 C3.56972656 5.28773438 3.62773437 6.19265625 3.6875 7.125 C3.75324219 8.03507813 3.81898438 8.94515625 3.88671875 9.8828125 C3.92410156 10.58148438 3.96148437 11.28015625 4 12 C3.01 12 2.02 12 1 12 C0.63762737 10.37681021 0.28534843 8.7513642 -0.0625 7.125 C-0.25972656 6.22007812 -0.45695313 5.31515625 -0.66015625 4.3828125 C-1 2 -1 2 0 0 Z " fill="#373AFA" transform="translate(195,141)"/>
<path d="M0 0 C0 3.00214204 -0.49200839 4.50416502 -1.5625 7.25 C-3.10730646 11.66063899 -3.05696345 14.48388342 -2 19 C-4.22404333 17.25944435 -4.99747692 16.00723284 -5.9375 13.3125 C-6.02251786 8.8065532 -4.39183844 5.75256631 -2 2 C-1.34 1.34 -0.68 0.68 0 0 Z " fill="#4645C7" transform="translate(140,248)"/>
<path d="M0 0 C1.89796206 3.38152192 2.80223042 6.73436548 3.6875 10.5 C3.95949219 11.6240625 4.23148438 12.748125 4.51171875 13.90625 C4.9634571 16.7684642 4.97784414 18.32241337 4 21 C3 20 3 20 2.9375 16.4375 C2.958125 15.303125 2.97875 14.16875 3 13 C2.34 13 1.68 13 1 13 C-1.42857143 4.57142857 -1.42857143 4.57142857 0 0 Z " fill="#3F43D3" transform="translate(212,204)"/>
<path d="M0 0 C2.9375 0.8125 2.9375 0.8125 6 2 C6.9702889 4.91086669 7.16467847 6.90223685 7.1875 9.9375 C7.20167969 10.79214844 7.21585938 11.64679688 7.23046875 12.52734375 C6.98703556 15.13909303 6.3178268 16.75500652 5 19 C5.05220703 18.14728516 5.05220703 18.14728516 5.10546875 17.27734375 C5.35252282 10.23042052 3.94853474 5.92280211 0 0 Z " fill="#4446CE" transform="translate(220,125)"/>
<path d="M0 0 C1.9375 0.375 1.9375 0.375 4 1 C4.33 1.66 4.66 2.32 5 3 C6.65 3 8.3 3 10 3 C10.79953138 6.28696233 11.09658936 7.71023192 10 11 C8.82737096 9.88121617 7.66204862 8.75476949 6.5 7.625 C5.8503125 6.99851562 5.200625 6.37203125 4.53125 5.7265625 C3 4 3 4 3 2 C2.01 1.67 1.02 1.34 0 1 C0 0.67 0 0.34 0 0 Z " fill="#4346E1" transform="translate(212,97)"/>
<path d="M0 0 C1.9765625 1.18359375 1.9765625 1.18359375 4 3 C4.4609375 5.41015625 4.4609375 5.41015625 4.375 8.0625 C4.36210937 8.94035156 4.34921875 9.81820312 4.3359375 10.72265625 C4 13 4 13 2 15 C1.855625 13.9275 1.71125 12.855 1.5625 11.75 C1.10155011 8.23980078 1.10155011 8.23980078 0.4375 5.8125 C0 4 0 4 0 0 Z " fill="#3F44D4" transform="translate(185,27)"/>
<path d="M0 0 C0.66 0.33 1.32 0.66 2 1 C1.38125 1.5775 0.7625 2.155 0.125 2.75 C-1.81347053 4.80249821 -2.90014249 6.43366582 -4 9 C-4.66 9 -5.32 9 -6 9 C-6 8.01 -6 7.02 -6 6 C-7.98 6.33 -9.96 6.66 -12 7 C-8.44008172 4.03340143 -4.34777457 1.618652 0 0 Z " fill="#4544DF" transform="translate(72,33)"/>
<path d="M0 0 C0.33 0 0.66 0 1 0 C1.29259393 5.5592847 0.17077906 10.60757968 -1 16 C-1.3360067 17.66612976 -1.67009672 19.33265099 -2 21 C-2.99 21 -3.98 21 -5 21 C-4.35451147 18.24991865 -3.70862234 15.49993244 -3.0625 12.75 C-2.88009766 11.97269531 -2.69769531 11.19539063 -2.50976562 10.39453125 C-2.33251953 9.64042969 -2.15527344 8.88632813 -1.97265625 8.109375 C-1.72914429 7.07248535 -1.72914429 7.07248535 -1.48071289 6.01464844 C-1.0014338 4.00600899 -0.50453398 2.00243058 0 0 Z " fill="#4D49D0" transform="translate(82,104)"/>
<path d="M0 0 C0 0.66 0 1.32 0 2 C-2.31 2.66 -4.62 3.32 -7 4 C-7 4.66 -7 5.32 -7 6 C-9.97 6 -12.94 6 -16 6 C-16.33 5.34 -16.66 4.68 -17 4 C-16.33613281 3.87882812 -15.67226562 3.75765625 -14.98828125 3.6328125 C-10.1727914 2.71892392 -4.72326566 0 0 0 Z " fill="#4647D0" transform="translate(126,81)"/>
<path d="M0 0 C0.66 1.65 1.32 3.3 2 5 C-2.29 4.34 -6.58 3.68 -11 3 C-11 2.34 -11 1.68 -11 1 C-3.375 -1.125 -3.375 -1.125 0 0 Z " fill="#4143D8" transform="translate(185,64)"/>
<path d="M0 0 C0 3.96130371 -1.34877125 4.82914401 -4 7.6875 C-4.7425 8.49574219 -5.485 9.30398438 -6.25 10.13671875 C-6.8275 10.75160156 -7.405 11.36648438 -8 12 C-8.66 10.68 -9.32 9.36 -10 8 C-9.01 8.33 -8.02 8.66 -7 9 C-6.67 8.01 -6.34 7.02 -6 6 C-4.94242135 3.31537726 -4.39847957 2.23439975 -1.875 0.75 C-1.25625 0.5025 -0.6375 0.255 0 0 Z " fill="#4240DD" transform="translate(208,256)"/>
<path d="M0 0 C0.763125 0.103125 1.52625 0.20625 2.3125 0.3125 C-0.06929263 4.05531699 -2.43225735 7.28977468 -5.6875 10.3125 C-6.09735108 5.53090409 -5.46212627 0.63513096 0 0 Z " fill="#3B3CDC" transform="translate(134.6875,239.6875)"/>
<path d="M0 0 C0.66 0 1.32 0 2 0 C2 4.95 2 9.9 2 15 C-1 12 -1 12 -1.328125 9.58984375 C-1.30234375 8.71457031 -1.2765625 7.83929688 -1.25 6.9375 C-1.23453125 6.05964844 -1.2190625 5.18179688 -1.203125 4.27734375 C-1 2 -1 2 0 0 Z " fill="#3E44E0" transform="translate(1,165)"/>
<path d="M0 0 C1.98 0 3.96 0 6 0 C5.236875 0.556875 4.47375 1.11375 3.6875 1.6875 C-0.7822651 5.53357694 -2.09115863 8.52063659 -2.6875 14.3125 C-2.80376854 15.87414611 -2.91195873 17.4365085 -3 19 C-3.33 19 -3.66 19 -4 19 C-4.50146657 11.42228293 -3.94998798 6.54216759 0 0 Z " fill="#4247CD" transform="translate(202,123)"/>
<path d="M0 0 C0.66 0 1.32 0 2 0 C1.814375 0.7425 1.62875 1.485 1.4375 2.25 C1.00796892 4.94990963 1.14877026 6.44631077 2 9 C-1.24299151 6.61042731 -3.50902342 4.7952131 -5 1 C-2.525 1.495 -2.525 1.495 0 2 C0 1.34 0 0.68 0 0 Z " fill="#4243E4" transform="translate(52,234)"/>
<path d="M0 0 C1.30148702 2.60297403 1.09720133 4.53415498 1.0625 7.4375 C1.05347656 8.40558594 1.04445313 9.37367188 1.03515625 10.37109375 C1.02355469 11.23863281 1.01195312 12.10617188 1 13 C1 13.99 1 14.98 1 16 C-1.83733415 12.79257878 -2.82831844 10.29203897 -3 6 C-1.5625 2.625 -1.5625 2.625 0 0 Z " fill="#4444CF" transform="translate(43,216)"/>
<path d="M0 0 C0.71484375 1.671875 0.71484375 1.671875 1 4 C-0.43359375 6.578125 -0.43359375 6.578125 -2.4375 9.25 C-3.09621094 10.14203125 -3.75492187 11.0340625 -4.43359375 11.953125 C-4.95050781 12.62859375 -5.46742187 13.3040625 -6 14 C-6 10.38970831 -5.03907418 7.44193324 -4 4 C-3.34 4 -2.68 4 -2 4 C-1.34 2.68 -0.68 1.36 0 0 Z " fill="#3F42D4" transform="translate(84,61)"/>
<path d="M0 0 C0.66 0.33 1.32 0.66 2 1 C1.21753906 1.42152344 0.43507812 1.84304687 -0.37109375 2.27734375 C-1.38300781 2.82519531 -2.39492187 3.37304688 -3.4375 3.9375 C-4.44683594 4.48277344 -5.45617187 5.02804688 -6.49609375 5.58984375 C-8.86670493 6.77699468 -8.86670493 6.77699468 -10 8 C-11.66617115 8.04063832 -13.33388095 8.042721 -15 8 C-11.96943208 5.55831021 -8.90981404 3.86972611 -5.375 2.25 C-4.41335937 1.80140625 -3.45171875 1.3528125 -2.4609375 0.890625 C-1.64882812 0.59671875 -0.83671875 0.3028125 0 0 Z " fill="#4747CA" transform="translate(188,51)"/>
<path d="M0 0 C0 0.99 0 1.98 0 3 C-0.99 3 -1.98 3 -3 3 C-3.33 3.66 -3.66 4.32 -4 5 C-4.66 4.67 -5.32 4.34 -6 4 C-6.66 4.66 -7.32 5.32 -8 6 C-8 4.35 -8 2.7 -8 1 C-3.375 -1.125 -3.375 -1.125 0 0 Z " fill="#4442E4" transform="translate(212,42)"/>
<path d="M0 0 C0.33 0 0.66 0 1 0 C0.67 2.97 0.34 5.94 0 9 C0.66 9 1.32 9 2 9 C2 9.99 2 10.98 2 12 C1.01 12.33 0.02 12.66 -1 13 C-1 11.35 -1 9.7 -1 8 C-1.66 7.67 -2.32 7.34 -3 7 C-2.01 4.69 -1.02 2.38 0 0 Z " fill="#3F3DE7" transform="translate(12,120)"/>
<path d="M0 0 C0.66 0 1.32 0 2 0 C2 1.32 2 2.64 2 4 C1.34 4 0.68 4 0 4 C0 5.32 0 6.64 0 8 C0.66 8 1.32 8 2 8 C2.66 10.31 3.32 12.62 4 15 C0.125 11.25 0.125 11.25 -1 9 C-0.91348369 7.45386986 -0.75997364 5.91090613 -0.5625 4.375 C-0.46066406 3.55773437 -0.35882812 2.74046875 -0.25390625 1.8984375 C-0.17011719 1.27195312 -0.08632813 0.64546875 0 0 Z " fill="#4E4DD1" transform="translate(19,83)"/>
<path d="M0 0 C0.99 0.33 1.98 0.66 3 1 C2.45773019 4.79588866 0.79872437 6.47211993 -2 9 C-2.125 5.625 -2.125 5.625 -2 2 C-1.34 1.34 -0.68 0.68 0 0 Z " fill="#403FE0" transform="translate(149,219)"/>
<path d="M0 0 C0.33 1.32 0.66 2.64 1 4 C-0.3125 5.75 -0.3125 5.75 -2 7 C-2.66 7 -3.32 7 -4 7 C-4.33 7.99 -4.66 8.98 -5 10 C-5.66 9.67 -6.32 9.34 -7 9 C-4.69 6.03 -2.38 3.06 0 0 Z " fill="#4A49D7" transform="translate(173,184)"/>
<path d="M0 0 C0.598125 0.165 1.19625 0.33 1.8125 0.5 C4.11344336 1.1114124 4.11344336 1.1114124 7 1 C7 3.31 7 5.62 7 8 C4.35247996 5.42215154 2.05567935 3.08351902 0 0 Z " fill="#4648E3" transform="translate(54,244)"/>
<path d="M0 0 C0 4.27739716 -1.61986276 7.47922192 -4 11 C-6.75 12.5 -6.75 12.5 -9 13 C-7.50923566 9.7173068 -5.61379679 7.06922559 -3.375 4.25 C-2.74335938 3.45078125 -2.11171875 2.6515625 -1.4609375 1.828125 C-0.97882813 1.22484375 -0.49671875 0.6215625 0 0 Z " fill="#404ACC" transform="translate(192,159)"/>
<path d="M0 0 C0.99 0 1.98 0 3 0 C3 0.66 3 1.32 3 2 C3.99 2 4.98 2 6 2 C6.12375 2.598125 6.2475 3.19625 6.375 3.8125 C6.95475985 6.26231348 6.95475985 6.26231348 9 9 C4.71930097 7.41455592 2.70478088 4.5312417 0 1 C0 0.67 0 0.34 0 0 Z " fill="#4645D8" transform="translate(14,194)"/>
<path d="M0 0 C0 3.54592018 -0.51924867 5.76926982 -2 9 C-5.125 10.875 -5.125 10.875 -8 12 C-6.59023295 8.96147295 -4.91129772 6.4060405 -2.875 3.75 C-2.06675781 2.69039062 -2.06675781 2.69039062 -1.2421875 1.609375 C-0.83226562 1.07828125 -0.42234375 0.5471875 0 0 Z " fill="#4B4AD5" transform="translate(182,172)"/>
<path d="M0 0 C4.95 1.32 9.9 2.64 15 4 C15 4.33 15 4.66 15 5 C9.1977825 5.36263859 5.36000789 4.25684543 0 2 C0 1.34 0 0.68 0 0 Z " fill="#4247E2" transform="translate(104,226)"/>
<path d="M0 0 C0.66 0.33 1.32 0.66 2 1 C0.25 4.875 0.25 4.875 -2 6 C-3.67654729 5.72057545 -5.34608154 5.39171753 -7 5 C-4.702779 3.25728062 -2.40133271 1.60088848 0 0 Z " fill="#4040DA" transform="translate(184,216)"/>
<path d="M0 0 C1.65 0.33 3.3 0.66 5 1 C2.03 4.96 2.03 4.96 -1 9 C-2.25541557 5.23375329 -1.37061958 3.62811066 0 0 Z " fill="#4348D6" transform="translate(169,194)"/>
<path d="M0 0 C3.40843742 2.88406243 4.86591384 4.3708265 5.8125 8.8125 C5.9053125 10.3903125 5.9053125 10.3903125 6 12 C5.34 11.01 4.68 10.02 4 9 C3.29875 8.01 2.5975 7.02 1.875 6 C0 3 0 3 0 0 Z " fill="#3C3ACA" transform="translate(39,132)"/>
<path d="M0 0 C4.23429756 1.31061591 8.07407404 2.94356259 12 5 C12 5.33 12 5.66 12 6 C10.02 6 8.04 6 6 6 C6 5.34 6 4.68 6 4 C4.02 3.34 2.04 2.68 0 2 C0 1.34 0 0.68 0 0 Z " fill="#4143D6" transform="translate(225,119)"/>
<path d="M0 0 C1.32 0.33 2.64 0.66 4 1 C2.08864614 4.53600465 0.37357234 6.78972846 -3 9 C-3 7.68 -3 6.36 -3 5 C-2.34 5 -1.68 5 -1 5 C-0.67 3.35 -0.34 1.7 0 0 Z " fill="#3E41DC" transform="translate(162,204)"/>
<path d="M0 0 C0.825 0.309375 1.65 0.61875 2.5 0.9375 C6.39126155 2.11877583 9.96166953 2.58224168 14 3 C14 3.33 14 3.66 14 4 C12.41676312 4.027193 10.83338938 4.04648306 9.25 4.0625 C7.92742187 4.07990234 7.92742187 4.07990234 6.578125 4.09765625 C4.2181162 4.00826198 2.25501476 3.66912821 0 3 C0 2.01 0 1.02 0 0 Z " fill="#4647D4" transform="translate(61,193)"/>
<path d="M0 0 C-0.57344937 2.86724686 -0.8614515 3.8614515 -3 6 C-5.475 5.01 -5.475 5.01 -8 4 C-2.7826087 0 -2.7826087 0 0 0 Z " fill="#4042DD" transform="translate(172,59)"/>
<path d="M0 0 C5.57142857 5.14285714 5.57142857 5.14285714 6 9 C3 8 3 8 1.3125 5.625 C0 3 0 3 0 0 Z " fill="#4B4BE1" transform="translate(84,165)"/>
<path d="M0 0 C1.9375 0.3125 1.9375 0.3125 4 1 C4.33 1.99 4.66 2.98 5 4 C5.66 4.66 6.32 5.32 7 6 C6.67 6.99 6.34 7.98 6 9 C4.99406757 7.8803014 3.9954151 6.7540588 3 5.625 C2.443125 4.99851563 1.88625 4.37203125 1.3125 3.7265625 C0 2 0 2 0 0 Z " fill="#4A48D4" transform="translate(45,126)"/>
<path d="M0 0 C0.33 0 0.66 0 1 0 C1.36552803 1.41377782 1.71695495 2.83120576 2.0625 4.25 C2.25972656 5.03890625 2.45695313 5.8278125 2.66015625 6.640625 C3.01497267 9.10394822 2.76877544 10.65604132 2 13 C2 12.34 2 11.68 2 11 C1.34 11 0.68 11 0 11 C0 7.37 0 3.74 0 0 Z " fill="#3F41CC" transform="translate(251,76)"/>
<path d="M0 0 C0.4125 0.45375 0.825 0.9075 1.25 1.375 C3.06408095 3.05950374 4.75285627 3.99265971 7 5 C5.625 6.5 5.625 6.5 4 8 C3.34 8 2.68 8 2 8 C2 6.68 2 5.36 2 4 C1.34 4 0.68 4 0 4 C0 2.68 0 1.36 0 0 Z " fill="#4140DC" transform="translate(101,79)"/>
<path d="M0 0 C1.46726798 3.81489674 0.43336419 6.29011622 -1 10 C-1.66 10 -2.32 10 -3 10 C-2.67 7.36 -2.34 4.72 -2 2 C-1.34 2 -0.68 2 0 2 C0 1.34 0 0.68 0 0 Z " fill="#4847DB" transform="translate(94,59)"/>
<path d="M0 0 C0 3 0 3 -1 5 C-1.66 5 -2.32 5 -3 5 C-3.33 5.99 -3.66 6.98 -4 8 C-4.33 6.68 -4.66 5.36 -5 4 C-3.35 2.68 -1.7 1.36 0 0 Z " fill="#4949D7" transform="translate(256,195)"/>
<path d="M0 0 C0.66 0 1.32 0 2 0 C4.6875 2.8125 4.6875 2.8125 7 6 C6.67 6.99 6.34 7.98 6 9 C4.99406757 7.8803014 3.9954151 6.7540588 3 5.625 C2.443125 4.99851563 1.88625 4.37203125 1.3125 3.7265625 C0 2 0 2 0 0 Z " fill="#4644D9" transform="translate(7,185)"/>
<path d="M0 0 C1.32 0.33 2.64 0.66 4 1 C4 3.64 4 6.28 4 9 C2.00902154 6.01353231 1.05875074 3.40312738 0 0 Z " fill="#4746DA" transform="translate(199,188)"/>
<path d="M0 0 C0.66 0 1.32 0 2 0 C2.66 1.98 3.32 3.96 4 6 C3.01 6.33 2.02 6.66 1 7 C0.67 4.69 0.34 2.38 0 0 Z " fill="#3A38EA" transform="translate(56,185)"/>
<path d="M0 0 C0.33 0.66 0.66 1.32 1 2 C2.65 1.67 4.3 1.34 6 1 C4.68 2.32 3.36 3.64 2 5 C1.67 4.34 1.34 3.68 1 3 C0.34 3 -0.32 3 -1 3 C-1.33 3.66 -1.66 4.32 -2 5 C-1.125 1.125 -1.125 1.125 0 0 Z " fill="#3332F1" transform="translate(2,162)"/>
<path d="M0 0 C0.66 0.33 1.32 0.66 2 1 C0 4 -2 7 -4 10 C-4.25 7.25 -4.25 7.25 -4 4 C-2 1.625 -2 1.625 0 0 Z " fill="#4446DA" transform="translate(29,54)"/>
<path d="M0 0 C1.125 3.75 1.125 3.75 0 6 C-1.64363134 6.72159424 -3.31050386 7.39351421 -5 8 C-3.62845496 5.04590299 -2.01136276 2.55991624 0 0 Z " fill="#4446CF" transform="translate(147,239)"/>
<path d="M0 0 C2.97 0 5.94 0 9 0 C9 0.66 9 1.32 9 2 C6.1875 2.6875 6.1875 2.6875 3 3 C2.01 2.01 1.02 1.02 0 0 Z " fill="#4645D6" transform="translate(225,216)"/>
<path d="M0 0 C0.66 0 1.32 0 2 0 C0.47291037 3.43595166 -1.59927045 6.11912454 -4 9 C-3.125 4.25 -3.125 4.25 -2 2 C-1.34 2 -0.68 2 0 2 C0 1.34 0 0.68 0 0 Z " fill="#4748CB" transform="translate(67,87)"/>
<path d="M0 0 C0 3.86695678 -1.41909971 6.5088452 -3 10 C-3.33 10 -3.66 10 -4 10 C-3.38461538 3.47692308 -3.38461538 3.47692308 -1.4375 1.0625 C-0.7259375 0.5365625 -0.7259375 0.5365625 0 0 Z " fill="#413FDE" transform="translate(140,248)"/>
<path d="M0 0 C0.66 0.33 1.32 0.66 2 1 C0.02 3.31 -1.96 5.62 -4 8 C-4.33 7.01 -4.66 6.02 -5 5 C-3.35 3.35 -1.7 1.7 0 0 Z " fill="#4444D0" transform="translate(249,204)"/>
<path d="M0 0 C0.99 0 1.98 0 3 0 C2.6875 1.875 2.6875 1.875 2 4 C1.01 4.66 0.02 5.32 -1 6 C-1.625 4.125 -1.625 4.125 -2 2 C-1.34 1.34 -0.68 0.68 0 0 Z " fill="#4347DF" transform="translate(175,188)"/>
<path d="M0 0 C2.97 0.495 2.97 0.495 6 1 C6.33 1.99 6.66 2.98 7 4 C5.02 4 3.04 4 1 4 C0.67 2.68 0.34 1.36 0 0 Z " fill="#4544E0" transform="translate(213,40)"/>
</svg>
