<?xml version="1.0" encoding="UTF-8"?>
<svg version="1.1" xmlns="http://www.w3.org/2000/svg" width="598" height="239">
<path d="M0 0 C197.34 0 394.68 0 598 0 C598 78.87 598 157.74 598 239 C400.66 239 203.32 239 0 239 C0 160.13 0 81.26 0 0 Z " fill="#FEFEFE" transform="translate(0,0)"/>
<path d="M0 0 C1.40653918 0.71182198 2.8088432 1.43206754 4.20703125 2.16015625 C4.91794922 2.52044922 5.62886719 2.88074219 6.36132812 3.25195312 C9.3766208 4.79222022 12.19541193 6.33991003 15.01953125 8.22265625 C15.51953125 11.16015625 15.51953125 11.16015625 15.01953125 14.22265625 C12.76953125 15.97265625 12.76953125 15.97265625 10.01953125 17.22265625 C9.06046875 17.77953125 9.06046875 17.77953125 8.08203125 18.34765625 C1.84960939 20.99171401 -5.50345002 20.53196816 -12.16796875 20.74023438 C-12.98523438 20.77439453 -13.8025 20.80855469 -14.64453125 20.84375 C-15.3813916 20.86880615 -16.11825195 20.8938623 -16.87744141 20.91967773 C-19.3193127 21.27147275 -20.92556157 21.85337297 -22.98046875 23.22265625 C-24.23702888 27.78748408 -24.23702888 27.78748408 -23.04296875 32.22265625 C-19.73283658 33.82756882 -16.45635781 32.97912456 -12.98046875 32.22265625 C-10.46175802 31.15907719 -8.17838255 30.0815972 -5.79296875 28.78515625 C-4.40574144 28.06747451 -3.01767345 27.35141613 -1.62890625 26.63671875 C-0.88866211 26.25161133 -0.14841797 25.86650391 0.61425781 25.46972656 C5.08129401 23.15368709 9.57107457 20.88934604 14.08203125 18.66015625 C14.96205811 18.20648682 15.84208496 17.75281738 16.7487793 17.28540039 C23.14610655 14.14631642 26.90136098 13.91973232 33.78515625 16.09765625 C40.30004127 19.04779286 40.30004127 19.04779286 42.25390625 22.23828125 C43.04901426 24.55869849 43.56673986 26.81301861 44.01953125 29.22265625 C44.21933594 29.9703125 44.41914063 30.71796875 44.625 31.48828125 C45.93242356 36.50738376 47.03325955 42.06681233 46.01953125 47.22265625 C43.01953125 49.22265625 43.01953125 49.22265625 40.83203125 49.16015625 C30.68244939 45.7769623 24.65830197 37.66773296 18.08203125 29.66015625 C15.58994181 26.71495964 14.89876787 26.2974849 11.08203125 25.97265625 C8.09023504 25.99588635 8.09023504 25.99588635 6.08203125 27.34765625 C4.79321278 29.2901286 4.79321278 29.2901286 4.89453125 32.16015625 C6.42982277 36.33956094 9.27448168 37.26564239 13.01953125 39.22265625 C14.08429688 39.81304687 15.1490625 40.4034375 16.24609375 41.01171875 C17.36757812 41.61757812 18.4890625 42.2234375 19.64453125 42.84765625 C20.26553711 43.18394043 20.88654297 43.52022461 21.52636719 43.86669922 C25.47853344 45.97292632 29.47658647 47.91105151 33.55859375 49.75390625 C34.50395996 50.18493652 35.44932617 50.6159668 36.42333984 51.06005859 C38.29125272 51.90508969 40.16649491 52.73413998 42.04931641 53.54541016 C48.54037851 56.49169924 48.54037851 56.49169924 51.0859375 60.375 C52.74297273 65.42930411 53.54908925 69.88340139 53.01953125 75.22265625 C51.4337637 78.07441252 49.40288269 80.45184081 47.26953125 82.91015625 C46.73070312 83.56048828 46.191875 84.21082031 45.63671875 84.88085938 C40.15298979 91.4412717 40.15298979 91.4412717 37.01953125 94.22265625 C34.95703125 94.22265625 34.95703125 94.22265625 33.01953125 93.22265625 C29.77732303 89.74028446 28.99241702 86.85993838 29.0703125 82.15625 C29.56696848 75.52181564 30.33020635 69.09569362 31.59765625 62.56640625 C32.55377064 57.26067273 32.55377064 57.26067273 30.95703125 52.28515625 C27.86740398 50.59084452 25.34735707 51.4831394 22.01953125 52.22265625 C20.74114124 53.26575787 20.74114124 53.26575787 21.01538086 55.58837891 C21.65482446 64.85425167 23.45968119 73.58836899 25.58203125 82.59765625 C26.0797313 84.71972333 26.57438824 86.84227969 27.05979919 88.9671936 C27.49663077 90.87878642 27.94437289 92.78787659 28.39282227 94.69677734 C29.96632134 103.54931869 29.96632134 103.54931869 27.55859375 107.8046875 C26.61113281 108.90876953 26.61113281 108.90876953 25.64453125 110.03515625 C25.01804687 110.78410156 24.3915625 111.53304687 23.74609375 112.3046875 C20.23891801 116.20066779 20.23891801 116.20066779 17.4375 116.48144531 C15.83841797 116.4848291 15.83841797 116.4848291 14.20703125 116.48828125 C13.04945313 116.49085938 11.891875 116.4934375 10.69921875 116.49609375 C9.48492187 116.48835938 8.270625 116.480625 7.01953125 116.47265625 C5.80523437 116.48039062 4.5909375 116.488125 3.33984375 116.49609375 C1.60347656 116.49222656 1.60347656 116.49222656 -0.16796875 116.48828125 C-1.23402344 116.48602539 -2.30007812 116.48376953 -3.3984375 116.48144531 C-5.98046875 116.22265625 -5.98046875 116.22265625 -7.98046875 114.22265625 C-8.34447875 111.34626932 -8.27941513 109.74616179 -6.83154297 107.21069336 C-1.94102632 101.65653518 3.39926585 98.25137961 9.89453125 94.78515625 C11.78823255 93.74565131 13.68148723 92.70533217 15.57421875 91.6640625 C16.40421387 91.21748291 17.23420898 90.77090332 18.08935547 90.31079102 C19.96372345 89.36803625 19.96372345 89.36803625 21.01953125 88.22265625 C21.26957089 84.76444223 21.26957089 84.76444223 21.01953125 81.22265625 C19.14989127 78.95967188 19.14989127 78.95967188 16.20703125 78.78515625 C10.55561249 79.56084118 7.45747469 84.77130061 4.01953125 89.03515625 C3.25253906 89.98261719 2.48554688 90.93007812 1.6953125 91.90625 C1.06423584 92.68911377 1.06423584 92.68911377 0.42041016 93.48779297 C-1.1525659 95.43578318 -2.7320606 97.37837287 -4.3125 99.3203125 C-6.56347289 102.08645066 -8.81412979 104.85283941 -11.0625 107.62109375 C-11.81587646 108.54680176 -11.81587646 108.54680176 -12.58447266 109.49121094 C-13.82152526 111.02551963 -15.0337689 112.579758 -16.2421875 114.13671875 C-17.98046875 116.22265625 -17.98046875 116.22265625 -19.98046875 117.22265625 C-22.2458417 117.42363991 -24.51954004 117.53576186 -26.79296875 117.59765625 C-28.01628906 117.64664063 -29.23960938 117.695625 -30.5 117.74609375 C-34.96710318 117.07427352 -36.11615655 115.64666164 -38.98046875 112.22265625 C-39.851875 111.27648437 -40.72328125 110.3303125 -41.62109375 109.35546875 C-42.4821875 108.36289063 -43.34328125 107.3703125 -44.23046875 106.34765625 C-45.101875 105.36023438 -45.97328125 104.3728125 -46.87109375 103.35546875 C-49.25312245 99.81771501 -49.87827482 97.46370422 -49.98046875 93.22265625 C-47.49701937 90.73920687 -46.56439016 90.78383049 -43.10546875 90.59765625 C-35.77103675 90.65099757 -29.68492227 93.41773874 -23.10009766 96.37646484 C-18.21584394 98.53283644 -14.44343183 99.90110962 -8.98046875 99.22265625 C-6.68219563 97.34327453 -6.68219563 97.34327453 -6.66796875 94.28515625 C-6.71249424 91.29304742 -6.71249424 91.29304742 -8.20452881 89.55033875 C-10.51683112 87.82167483 -11.83842699 87.87287816 -14.70800781 87.91723633 C-15.66620422 87.9232637 -16.62440063 87.92929108 -17.6116333 87.9355011 C-19.16319122 87.96356087 -19.16319122 87.96356087 -20.74609375 87.9921875 C-22.93749909 87.99428734 -25.12890628 87.99489112 -27.3203125 87.99414062 C-30.77483191 88.0086183 -34.22798207 88.03511773 -37.68212891 88.08862305 C-41.01685779 88.13372565 -44.34864485 88.12890465 -47.68359375 88.1171875 C-48.70986877 88.14601517 -49.7361438 88.17484283 -50.79351807 88.20454407 C-54.96923054 88.16267778 -57.82996493 88.12676225 -61.18615723 85.48934937 C-66.61329854 79.4353526 -68.30365434 74.36030363 -67.98046875 66.22265625 C-67.50335711 63.40962222 -66.8266364 60.66951759 -66.10546875 57.91015625 C-65.93144531 57.19537109 -65.75742188 56.48058594 -65.578125 55.74414062 C-64.23876521 50.48095271 -64.23876521 50.48095271 -61.98046875 48.22265625 C-59.05716837 47.82781625 -57.565823 47.81513987 -55.11694336 49.52001953 C-49.89216949 55.45216384 -47.71931801 61.57383005 -45.54296875 69.09765625 C-45.01799805 70.80695313 -45.01799805 70.80695313 -44.48242188 72.55078125 C-41.98046875 80.79596533 -41.98046875 80.79596533 -41.98046875 83.22265625 C-36.65876381 83.51827992 -36.65876381 83.51827992 -31.98046875 81.22265625 C-31.28013539 76.89769679 -31.7111794 74.15529775 -34.1484375 70.6015625 C-35.13732979 69.3156839 -36.14502501 68.04411528 -37.16796875 66.78515625 C-37.700271 66.10356445 -38.23257324 65.42197266 -38.78100586 64.71972656 C-40.49482335 62.53782345 -42.23409231 60.37856419 -43.98046875 58.22265625 C-44.86943848 57.11736572 -44.86943848 57.11736572 -45.77636719 55.98974609 C-48.58864124 52.49549942 -51.41587573 49.01452801 -54.265625 45.55078125 C-54.97912109 44.66918335 -54.97912109 44.66918335 -55.70703125 43.76977539 C-56.72035953 42.53866701 -57.7822296 41.34755345 -58.859375 40.171875 C-60.51961044 37.28526355 -60.15092686 35.06171094 -59.85546875 31.78515625 C-59.77039063 30.67269531 -59.6853125 29.56023437 -59.59765625 28.4140625 C-58.78685092 24.22148053 -57.84219496 21.52132253 -54.23925781 19.00805664 C-52.08460266 17.74504458 -49.89753879 16.59785982 -47.66796875 15.47265625 C-46.92095703 15.07433594 -46.17394531 14.67601563 -45.40429688 14.265625 C-41.32170898 12.15085164 -37.65865996 10.41614126 -32.98046875 10.22265625 C-31.99046875 10.88265625 -31.00046875 11.54265625 -29.98046875 12.22265625 C-28.84677218 23.78636127 -34.65686486 30.66661901 -41.6171875 39.23828125 C-43.96754813 42.22842486 -44.97282987 44.1717304 -45.54296875 47.97265625 C-45.26058818 51.23225474 -45.26058818 51.23225474 -43.29296875 53.22265625 C-40.35386385 54.49362053 -38.96463977 54.32208768 -35.98046875 53.22265625 C-34.15283512 50.4812058 -33.56184032 49.09462228 -32.8671875 45.99829102 C-32.67358643 45.15053604 -32.47998535 44.30278107 -32.28051758 43.42933655 C-32.07837646 42.51679611 -31.87623535 41.60425568 -31.66796875 40.6640625 C-31.45358154 39.72336411 -31.23919434 38.78266571 -31.01831055 37.8134613 C-30.33312151 34.8053299 -29.65599396 31.79547149 -28.98046875 28.78515625 C-28.30457846 25.77850203 -27.62681787 22.7723397 -26.94262695 19.76756287 C-26.5169377 17.89780362 -26.0960233 16.02694941 -25.68041992 14.15492249 C-25.48681885 13.30401535 -25.29321777 12.45310822 -25.09375 11.57641602 C-24.92657471 10.8304567 -24.75939941 10.08449738 -24.5871582 9.31593323 C-23.50917081 5.59652427 -22.64430664 3.66488359 -19.37109375 1.484375 C-18.3346875 0.96488281 -17.29828125 0.44539063 -16.23046875 -0.08984375 C-14.69132812 -0.88841797 -14.69132812 -0.88841797 -13.12109375 -1.703125 C-8.07276027 -3.42985598 -4.65797005 -2.18753303 0 0 Z " fill="#403DFF" transform="translate(126.98046875,53.77734375)"/>
<path d="M0 0 C4.91512523 0.59403073 8.67499227 2.77239215 12.9375 5.125 C19.4183032 8.68717284 19.4183032 8.68717284 26.12109375 11.80078125 C35.16589739 15.68713952 35.16589739 15.68713952 37.53125 19.41015625 C38.38745528 22.0382308 38.82766296 24.24260737 39 27 C39.19722656 28.64935547 39.19722656 28.64935547 39.3984375 30.33203125 C38.84642779 35.41376767 36.52645288 37.91195953 33.25 41.6875 C32.71117187 42.33783203 32.17234375 42.98816406 31.6171875 43.65820312 C26.13345854 50.21861545 26.13345854 50.21861545 23 53 C20.9375 53 20.9375 53 19 52 C15.75779178 48.51762821 14.97288577 45.63728213 15.05078125 40.93359375 C15.54743723 34.29915939 16.3106751 27.87303737 17.578125 21.34375 C18.53423939 16.03801648 18.53423939 16.03801648 16.9375 11.0625 C13.84787273 9.36818827 11.32782582 10.26048315 8 11 C6.72160999 12.04310162 6.72160999 12.04310162 6.99584961 14.36572266 C7.63529321 23.63159542 9.44014994 32.36571274 11.5625 41.375 C12.06020005 43.49706708 12.55485699 45.61962344 13.04026794 47.74453735 C13.47709952 49.65613017 13.92484164 51.56522034 14.37329102 53.47412109 C15.94679009 62.32666244 15.94679009 62.32666244 13.5390625 66.58203125 C12.59160156 67.68611328 12.59160156 67.68611328 11.625 68.8125 C10.99851562 69.56144531 10.37203125 70.31039062 9.7265625 71.08203125 C6.21938676 74.97801154 6.21938676 74.97801154 3.41796875 75.25878906 C1.81888672 75.26217285 1.81888672 75.26217285 0.1875 75.265625 C-0.97007812 75.26820313 -2.12765625 75.27078125 -3.3203125 75.2734375 C-4.53460938 75.26570313 -5.74890625 75.25796875 -7 75.25 C-8.21429688 75.25773437 -9.42859375 75.26546875 -10.6796875 75.2734375 C-12.41605469 75.26957031 -12.41605469 75.26957031 -14.1875 75.265625 C-15.25355469 75.26336914 -16.31960937 75.26111328 -17.41796875 75.25878906 C-20 75 -20 75 -22 73 C-22.36401 70.12361307 -22.29894638 68.52350554 -20.85107422 65.98803711 C-15.96055757 60.43387893 -10.6202654 57.02872336 -4.125 53.5625 C-2.2312987 52.52299506 -0.33804402 51.48267592 1.5546875 50.44140625 C2.38468262 49.99482666 3.21467773 49.54824707 4.06982422 49.08813477 C5.9441922 48.14538 5.9441922 48.14538 7 47 C7.25003964 43.54178598 7.25003964 43.54178598 7 40 C5.13036002 37.73701563 5.13036002 37.73701563 2.1875 37.5625 C-3.46391876 38.33818493 -6.56205656 43.54864436 -10 47.8125 C-10.76699219 48.75996094 -11.53398437 49.70742187 -12.32421875 50.68359375 C-12.74493652 51.20550293 -13.1656543 51.72741211 -13.59912109 52.26513672 C-15.17209715 54.21312693 -16.75159185 56.15571662 -18.33203125 58.09765625 C-20.58300414 60.86379441 -22.83366104 63.63018316 -25.08203125 66.3984375 C-25.83540771 67.32414551 -25.83540771 67.32414551 -26.60400391 68.26855469 C-27.84105651 69.80286338 -29.05330015 71.35710175 -30.26171875 72.9140625 C-32 75 -32 75 -34 76 C-36.26537295 76.20098366 -38.53907129 76.31310561 -40.8125 76.375 C-42.03582031 76.42398438 -43.25914063 76.47296875 -44.51953125 76.5234375 C-48.98663443 75.85161727 -50.1356878 74.42400539 -53 71 C-53.87140625 70.05382812 -54.7428125 69.10765625 -55.640625 68.1328125 C-56.50171875 67.14023438 -57.3628125 66.14765625 -58.25 65.125 C-59.12140625 64.13757813 -59.9928125 63.15015625 -60.890625 62.1328125 C-63.2726537 58.59505876 -63.89780607 56.24104797 -64 52 C-61.51655062 49.51655062 -60.58392141 49.56117424 -57.125 49.375 C-49.790568 49.42834132 -43.70445352 52.19508249 -37.11962891 55.15380859 C-32.23537519 57.31018019 -28.46296308 58.67845337 -23 58 C-20.70172688 56.12061828 -20.70172688 56.12061828 -20.6875 53.0625 C-20.72429308 50.07225024 -20.72429308 50.07225024 -22.2265625 48.3828125 C-24.37031226 46.71125432 -26.0281661 46.31353392 -28.6875 45.8125 C-29.89986328 45.57466797 -29.89986328 45.57466797 -31.13671875 45.33203125 C-31.75160156 45.22246094 -32.36648437 45.11289063 -33 45 C-33 44.67 -33 44.34 -33 44 C-32.35973877 43.99589111 -31.71947754 43.99178223 -31.05981445 43.98754883 C-28.14312095 43.95453962 -25.22849616 43.88388974 -22.3125 43.8125 C-21.30509766 43.80669922 -20.29769531 43.80089844 -19.25976562 43.79492188 C-13.24624592 43.65734289 -13.24624592 43.65734289 -8.09375 40.8125 C-7.4028125 39.884375 -6.711875 38.95625 -6 38 C-5.18917969 37.06542969 -4.37835938 36.13085938 -3.54296875 35.16796875 C1.55475255 29.26940468 1.55475255 29.26940468 3.75 22.0625 C3.53964259 20.13310532 3.53964259 20.13310532 3 18 C2.76796875 16.94296875 2.5359375 15.8859375 2.296875 14.796875 C1.78092987 12.54087961 1.23582645 10.29127355 0.65625 8.05078125 C0.05349689 5.24869687 -0.12697417 2.85162825 0 0 Z " fill="#3F3CFF" transform="translate(141,95)"/>
<path d="M0 0 C3.18439303 1.6036057 5.47584634 2.80641971 7.64428711 5.67773438 C8.39659089 7.97046971 8.72586996 10.02919803 8.94506836 12.42773438 C9.32518551 13.78639634 9.72063208 15.14087901 10.13256836 16.49023438 C12.28661049 26.27958654 12.28661049 26.27958654 9.07397461 31.42382812 C6.77861833 34.50314846 4.40316179 37.47720832 1.94506836 40.42773438 C1.22834961 41.35199219 0.51163086 42.27625 -0.22680664 43.22851562 C-2.21913631 45.62527118 -3.09298894 46.29500608 -6.14282227 46.71582031 C-24.59781034 48.12625856 -24.59781034 48.12625856 -29.55883789 44.22070312 C-32.06606511 41.42256099 -34.07053953 38.61229376 -36.05493164 35.42773438 C-37.11543936 34.25925642 -38.17757148 33.09224723 -39.24243164 31.92773438 C-41.89460007 26.80630568 -41.12678188 22.9607991 -40.05493164 17.42773438 C-39.76875977 15.82671875 -39.76875977 15.82671875 -39.47680664 14.19335938 C-38.19050698 8.06100053 -37.4281046 5.0296952 -32.05493164 1.42773438 C-29.77437478 0.07719184 -27.53134173 -1.17845655 -25.17993164 -2.38476562 C-24.5934082 -2.70896484 -24.00688477 -3.03316406 -23.40258789 -3.3671875 C-15.10991385 -7.62287846 -7.74557955 -3.603282 0 0 Z " fill="#FCFCFF" transform="translate(134.054931640625,92.572265625)"/>
<path d="M0 0 C3.63 0 7.26 0 11 0 C12.7359346 4.89502278 13.9686149 9.82116884 15.125 14.875 C15.30675781 15.65875 15.48851562 16.4425 15.67578125 17.25 C16.11974979 19.16607477 16.56023281 21.0829566 17 23 C17.81694231 20.29293656 18.62866494 17.58448604 19.4375 14.875 C19.66759766 14.11445312 19.89769531 13.35390625 20.13476562 12.5703125 C21.37636362 8.39566417 22.39875379 4.32620837 23 0 C25.97 0 28.94 0 32 0 C32.839123 3.24860474 33.67149719 6.49868626 34.5 9.75 C34.73847656 10.67039062 34.97695313 11.59078125 35.22265625 12.5390625 C35.44824219 13.42851563 35.67382812 14.31796875 35.90625 15.234375 C36.11572266 16.05131836 36.32519531 16.86826172 36.54101562 17.70996094 C37 20 37 20 37 24 C37.66 24 38.32 24 39 24 C39.18369141 22.28296875 39.18369141 22.28296875 39.37109375 20.53125 C39.92686968 16.08504254 40.92802708 11.82943731 42.0625 7.5 C42.24876953 6.77296875 42.43503906 6.0459375 42.62695312 5.296875 C43.08026455 3.53012276 43.5395002 1.76489225 44 0 C47.96 0 51.92 0 56 0 C46.90322581 31.19354839 46.90322581 31.19354839 43 39 C40.03 39 37.06 39 34 39 C31.4533129 32.38603107 29.36874156 25.95776959 28 19 C26.13972942 22.39520235 25.04540653 25.85964889 23.9375 29.5625 C22.01162791 35.96511628 22.01162791 35.96511628 21 39 C18.03 39 15.06 39 12 39 C8.4130331 29.58291974 4.91130052 20.17067734 2.0625 10.5 C1.85149658 9.7891626 1.64049316 9.0783252 1.4230957 8.34594727 C0.5941649 5.46174637 0 3.01740801 0 0 Z " fill="#585858" transform="translate(348,99)"/>
<path d="M0 0 C0 5.94 0 11.88 0 18 C0.66 17.67 1.32 17.34 2 17 C8.07273925 16.20986664 13.24629115 16.53061151 18.2434082 20.29956055 C22.88058898 24.78850622 23.18592643 31.43503995 23.29296875 37.56640625 C23.27325991 39.89861921 23.23782561 42.23074679 23.1875 44.5625 C23.16719727 46.36170898 23.16719727 46.36170898 23.14648438 48.19726562 C23.11141137 51.13170707 23.05761477 54.06591459 23 57 C19.37 57 15.74 57 12 57 C11.98598145 55.84999512 11.98598145 55.84999512 11.97167969 54.67675781 C11.91797227 51.20051897 11.83432424 47.72562526 11.75 44.25 C11.73582031 43.0434375 11.72164063 41.836875 11.70703125 40.59375 C11.67480469 39.43359375 11.64257812 38.2734375 11.609375 37.078125 C11.58842773 36.00981445 11.56748047 34.94150391 11.54589844 33.84082031 C11.17886101 30.93064911 11.17886101 30.93064911 9.39941406 28.62011719 C6.51563283 26.34713974 6.51563283 26.34713974 0 27 C0 36.9 0 46.8 0 57 C-3.63 57 -7.26 57 -11 57 C-11 38.52 -11 20.04 -11 1 C-7 0 -7 0 0 0 Z " fill="#595959" transform="translate(257,81)"/>
<path d="M0 0 C5.4144899 2.97998978 7.66832985 6.35424331 9.65625 12.15234375 C9.65625 15.78234375 9.65625 19.41234375 9.65625 23.15234375 C1.40625 23.15234375 -6.84375 23.15234375 -15.34375 23.15234375 C-13.02123574 28.037299 -13.02123574 28.037299 -10.34375 29.15234375 C-7.62614892 29.22416196 -4.93515612 29.24533881 -2.21875 29.21484375 C-1.08759766 29.20807617 -1.08759766 29.20807617 0.06640625 29.20117188 C1.92972127 29.18937874 3.79299555 29.17144317 5.65625 29.15234375 C6.15125 33.60734375 6.15125 33.60734375 6.65625 38.15234375 C-0.24316987 40.74221607 -7.65250678 41.5190839 -14.82421875 39.4296875 C-20.05353834 37.00634427 -23.30652405 33.83626054 -25.4140625 28.3828125 C-27.19259736 22.20277749 -27.70238379 15.49816077 -25.24609375 9.44921875 C-19.48872799 0.17602164 -10.73022147 -3.88076343 0 0 Z " fill="#585858" transform="translate(481.34375,98.84765625)"/>
<path d="M0 0 C1.19367188 -0.01417969 2.38734375 -0.02835937 3.6171875 -0.04296875 C7.86853879 0.23635166 11.32785303 1.28892652 15.125 3.1875 C14.465 6.1575 13.805 9.1275 13.125 12.1875 C12.27035156 12.03023437 11.41570312 11.87296875 10.53515625 11.7109375 C0.25361805 10.03828813 0.25361805 10.03828813 -9.0625 13.4375 C-13.22267943 19.74949637 -13.51988664 24.66046373 -12.875 32.1875 C-11.6361482 35.9040554 -10.67166465 37.52740643 -7.6875 40 C-0.14673552 43.18387834 6.37365019 41.91160538 14.125 40.1875 C14.51409985 41.64213481 14.88588029 43.10141207 15.25 44.5625 C15.45882812 45.37460938 15.66765625 46.18671875 15.8828125 47.0234375 C15.96273437 47.73757812 16.04265625 48.45171875 16.125 49.1875 C11.83599868 53.47650132 6.08795109 53.38653413 0.3125 53.5625 C-6.93752942 53.43152179 -13.00116615 52.36223433 -18.71484375 47.6796875 C-25.50964243 40.53601163 -26.45299338 32.10738012 -26.2265625 22.56640625 C-25.46059973 15.20465301 -22.57519672 9.93766393 -16.875 5.1875 C-10.97432537 0.85231048 -7.25758567 0.03901928 0 0 Z " fill="#585858" transform="translate(226.875,85.8125)"/>
<path d="M0 0 C1.77697266 -0.02513672 1.77697266 -0.02513672 3.58984375 -0.05078125 C8.66713243 0.48036369 11.91820806 2.07542763 15.375 5.8125 C18.11425695 9.87065845 18.18182861 12.94087683 18.16015625 17.73046875 C18.15693359 18.98408203 18.15371094 20.23769531 18.15039062 21.52929688 C18.13782227 23.49479492 18.13782227 23.49479492 18.125 25.5 C18.11998317 26.83528481 18.11542059 28.17057141 18.11132812 29.50585938 C18.09952695 32.77478473 18.08306297 36.04361991 18.0625 39.3125 C7.97731108 41.77154298 -1.57827709 43.15435005 -11.23046875 38.48046875 C-12.9375 37.3125 -12.9375 37.3125 -14.9375 34.3125 C-15.61276182 29.75448271 -16.32648139 24.46361728 -13.734375 20.44921875 C-9.02682406 16.41926984 -4.63145005 16.18539185 1.3125 16.25 C2.39015625 16.25902344 3.4678125 16.26804687 4.578125 16.27734375 C5.39796875 16.28894531 6.2178125 16.30054687 7.0625 16.3125 C5.97465032 13.06266865 5.97465032 13.06266865 4.0625 10.3125 C2.29396708 10.21311137 0.52131725 10.18280777 -1.25 10.1875 C-2.69826172 10.18363281 -2.69826172 10.18363281 -4.17578125 10.1796875 C-7.1768315 10.23374402 -7.1768315 10.23374402 -10.9375 11.3125 C-11.2675 8.3425 -11.5975 5.3725 -11.9375 2.3125 C-7.85725282 0.3765037 -4.49896694 0.01465462 0 0 Z " fill="#595959" transform="translate(298.9375,97.6875)"/>
<path d="M0 0 C9.9 0 19.8 0 30 0 C30 9.99387616 30 9.99387616 25.97851562 14.0703125 C25.42873047 14.58335938 24.87894531 15.09640625 24.3125 15.625 C23.2422284 16.67576483 22.17579806 17.73045679 21.11328125 18.7890625 C20.63673096 19.23975098 20.16018066 19.69043945 19.66918945 20.15478516 C17.19202966 22.89317535 15.14626494 25.99522908 13 29 C18.94 29.33 24.88 29.66 31 30 C31 32.97 31 35.94 31 39 C20.44 39 9.88 39 -1 39 C-1 30 -1 30 1.484375 26.89453125 C2.00773437 26.22099609 2.53109375 25.54746094 3.0703125 24.85351562 C3.90175781 23.84321289 3.90175781 23.84321289 4.75 22.8125 C5.28882813 22.12736328 5.82765625 21.44222656 6.3828125 20.73632812 C7.90399656 18.80887661 9.44910263 16.90357318 11 15 C12.32 13.35 13.64 11.7 15 10 C10.05 9.67 5.1 9.34 0 9 C0 6.03 0 3.06 0 0 Z " fill="#565656" transform="translate(422,99)"/>
<path d="M0 0 C0 3.63 0 7.26 0 11 C4.29 11 8.58 11 13 11 C13 13.97 13 16.94 13 20 C8.71 20 4.42 20 0 20 C0.14016167 23.14618209 0.28684905 26.29181816 0.4375 29.4375 C0.49647461 30.78424805 0.49647461 30.78424805 0.55664062 32.15820312 C0.61948242 33.43920898 0.61948242 33.43920898 0.68359375 34.74609375 C0.73858032 35.93223267 0.73858032 35.93223267 0.79467773 37.14233398 C0.80563257 39.01401441 0.80563257 39.01401441 2 40 C3.85287502 40.07226502 5.70833878 40.0838122 7.5625 40.0625 C8.57441406 40.05347656 9.58632813 40.04445312 10.62890625 40.03515625 C11.41136719 40.02355469 12.19382812 40.01195312 13 40 C13.33 42.97 13.66 45.94 14 49 C9.18183877 51.56968599 4.31643893 51.53761742 -1 51 C-6.27023287 49.24325571 -8.40399021 46.85610545 -11 42 C-11.52356042 38.80315293 -11.46769208 35.67750574 -11.390625 32.4453125 C-11.38496521 31.54376434 -11.37930542 30.64221619 -11.37347412 29.71334839 C-11.35118555 26.85001237 -11.30100389 23.98795411 -11.25 21.125 C-11.22992525 19.17710148 -11.21167619 17.22918323 -11.1953125 15.28125 C-11.15134547 10.5203453 -11.08237063 5.76038886 -11 1 C-7.26513121 0.4254048 -3.78706732 0 0 0 Z " fill="#595959" transform="translate(334,88)"/>
<path d="M0 0 C3.63 0 7.26 0 11 0 C11 12.87 11 25.74 11 39 C7.37 39 3.74 39 0 39 C0 26.13 0 13.26 0 0 Z " fill="#575757" transform="translate(406,99)"/>
<path d="M0 0 C0.33 0 0.66 0 1 0 C1.83802913 4.1032224 2.66961878 8.20772362 3.5 12.3125 C3.73847656 13.47974609 3.97695312 14.64699219 4.22265625 15.84960938 C4.44824219 16.96787109 4.67382812 18.08613281 4.90625 19.23828125 C5.11572266 20.26993408 5.32519531 21.30158691 5.54101562 22.36450195 C6 25 6 25 6 28 C5.34 28 4.68 28 4 28 C3.67 29.32 3.34 30.64 3 32 C2.5359375 30.2984375 2.5359375 30.2984375 2.0625 28.5625 C1.37075469 25.21224901 1.37075469 25.21224901 0 24 C-3.00051129 23.58132401 -5.12524693 23.435261 -7.73046875 25.1171875 C-9.20282466 26.35522549 -10.60698559 27.67331961 -12 29 C-12.33 28.34 -12.66 27.68 -13 27 C-11.82630859 25.54980469 -11.82630859 25.54980469 -10.62890625 24.0703125 C-2.7899409 14.1981112 -2.7899409 14.1981112 -1 2 C-0.67 1.34 -0.34 0.68 0 0 Z " fill="#4644FF" transform="translate(146,109)"/>
<path d="M0 0 C3.88370202 1.29456734 5.07090926 3.20526524 7.625 6.375 C8.42164063 7.35210937 9.21828125 8.32921875 10.0390625 9.3359375 C12 12 12 12 13 15 C13.66 15.33 14.32 15.66 15 16 C1.14 16 -12.72 16 -27 16 C-27 15.67 -27 15.34 -27 15 C-25.98631348 14.98598145 -25.98631348 14.98598145 -24.95214844 14.97167969 C-21.8840289 14.91792699 -18.81742613 14.83429008 -15.75 14.75 C-14.68652344 14.73582031 -13.62304688 14.72164062 -12.52734375 14.70703125 C-11.50253906 14.67480469 -10.47773437 14.64257812 -9.421875 14.609375 C-8.00793457 14.5779541 -8.00793457 14.5779541 -6.56542969 14.54589844 C-3.28394525 13.84763053 -2.06240187 12.59771823 0 10 C0.48026917 7.4149692 0.48026917 7.4149692 0.25 4.75 C0.19585937 3.41195312 0.19585937 3.41195312 0.140625 2.046875 C0.09421875 1.37140625 0.0478125 0.6959375 0 0 Z " fill="#514EFF" transform="translate(95,125)"/>
<path d="M0 0 C2 1.0625 2 1.0625 3 3 C2.66666667 9.33333333 2.66666667 9.33333333 0 12 C-6.05240175 12.55021834 -6.05240175 12.55021834 -8.9375 10.875 C-10.50422245 8.11019567 -10.38976435 6.11811483 -10 3 C-7.72054654 -1.02256493 -4.21158603 -0.45124136 0 0 Z " fill="#585858" transform="translate(415,82)"/>
<path d="M0 0 C0 2.97 0 5.94 0 9 C-1.258125 9.020625 -2.51625 9.04125 -3.8125 9.0625 C-4.52019531 9.07410156 -5.22789062 9.08570313 -5.95703125 9.09765625 C-8 9 -8 9 -11 8 C-11.33 6.35 -11.66 4.7 -12 3 C-8.2391768 -0.7608232 -5.0273023 -0.25136512 0 0 Z " fill="#F9F9F9" transform="translate(306,121)"/>
<path d="M0 0 C2.375 1.1875 2.375 1.1875 4 3 C4 4.65 4 6.3 4 8 C-0.62 8 -5.24 8 -10 8 C-9 3 -9 3 -7.8125 1.1875 C-5.09937351 -0.59006563 -3.17290804 -0.38851935 0 0 Z " fill="#ECECEC" transform="translate(476,107)"/>
<path d="M0 0 C0.33 0 0.66 0 1 0 C1.33 3.3 1.66 6.6 2 10 C1.01 10.33 0.02 10.66 -1 11 C-1.0270043 9.54176788 -1.04639787 8.08339325 -1.0625 6.625 C-1.07410156 5.81289062 -1.08570313 5.00078125 -1.09765625 4.1640625 C-1 2 -1 2 0 0 Z " fill="#6664FF" transform="translate(146,109)"/>
<path d="M0 0 C5.75 0.75 5.75 0.75 8 3 C7.01 4.485 7.01 4.485 6 6 C6 5.34 6 4.68 6 4 C4.02 3.34 2.04 2.68 0 2 C0 1.34 0 0.68 0 0 Z " fill="#5754FF" transform="translate(134,92)"/>
</svg>
