<?xml version="1.0" encoding="UTF-8"?>
<svg version="1.1" xmlns="http://www.w3.org/2000/svg" width="256" height="256">
<path d="M0 0 C1.05326477 0.51847504 1.05326477 0.51847504 2.12780762 1.04742432 C4.35326917 2.14716819 6.56709426 3.26832209 8.78125 4.390625 C10.26620798 5.12905204 11.75188041 5.86604416 13.23828125 6.6015625 C16.61584549 8.27682911 19.98595853 9.96604432 23.34960938 11.66906738 C24.71475232 12.35569356 26.08362875 13.03492062 27.45507812 13.7088623 C28.16664063 14.05920532 28.87820312 14.40954834 29.61132812 14.77050781 C30.25589966 15.08562317 30.90047119 15.40073853 31.5645752 15.72540283 C34.06216367 17.05695866 35.63147817 18.33094444 37.28125 20.640625 C38.35279862 24.49820005 38.56745079 26.79649971 37.27734375 30.6015625 C34.61834034 34.6499082 31.73367333 35.94133521 27.40625 37.890625 C26.34470703 38.39722656 26.34470703 38.39722656 25.26171875 38.9140625 C23.27887727 39.85194283 21.29223388 40.76473858 19.28125 41.640625 C18.57371582 41.98955811 17.86618164 42.33849121 17.13720703 42.69799805 C13.03271473 44.05271208 9.00020423 44.20420015 4.703125 44.45703125 C3.77711487 44.51841782 2.85110474 44.57980438 1.89703369 44.64305115 C-1.0577832 44.83753043 -4.01316174 45.02077942 -6.96875 45.203125 C-9.90987608 45.39120062 -12.85083239 45.58163813 -15.79168701 45.77391052 C-17.61803764 45.89260452 -19.44456981 46.0085499 -21.27130127 46.12123108 C-32.74122538 46.17428887 -32.74122538 46.17428887 -42.71875 50.640625 C-45.36578535 55.1405851 -46.24757662 58.70556083 -45.37109375 63.77734375 C-44.0531043 67.54190044 -41.20219038 69.89890481 -37.71875 71.640625 C-31.2617213 72.37718707 -26.51047792 71.19815924 -20.79296875 68.30078125 C-20.05959793 67.9471904 -19.32622711 67.59359955 -18.57063293 67.22929382 C-16.17442403 66.06974773 -13.7907806 64.88647328 -11.40625 63.703125 C-9.72878133 62.88711015 -8.05037966 62.07301075 -6.37109375 61.26074219 C-2.8927164 59.57645832 0.58160082 57.88419732 4.05322266 56.18603516 C11.49837238 52.5516418 18.9874977 49.01078181 26.48080444 45.47702026 C28.71465583 44.42207438 30.94606555 43.36211917 33.17700195 42.30102539 C36.55746547 40.69573228 39.94669546 39.11063531 43.34375 37.54077148 C44.64476587 36.93633027 45.94293013 36.32571611 47.23828125 35.70922852 C49.10984324 34.82047288 50.99056193 33.9547991 52.875 33.09375 C53.94427734 32.59520508 55.01355469 32.09666016 56.11523438 31.58300781 C63.72338049 29.31839924 70.18943934 33.13569995 76.90625 36.390625 C77.834375 36.82117187 78.7625 37.25171875 79.71875 37.6953125 C80.61851562 38.12585937 81.51828125 38.55640625 82.4453125 39 C83.25436035 39.38639648 84.0634082 39.77279297 84.89697266 40.17089844 C90.24658119 43.46852729 92.73566744 46.73758939 94.1942749 52.72009277 C94.4461557 53.87184998 94.4461557 53.87184998 94.703125 55.046875 C94.98860199 56.25035583 94.98860199 56.25035583 95.27984619 57.47814941 C95.88061333 60.02869648 96.45613546 62.58418542 97.03125 65.140625 C97.43195828 66.85845523 97.83428631 68.57590849 98.23828125 70.29296875 C104.15424624 95.58139781 104.15424624 95.58139781 100.40625 101.703125 C97.15784952 104.66490191 94.90514303 104.97173405 90.50585938 104.90429688 C86.59485202 104.44074464 83.44902123 102.76869938 80.03125 100.890625 C79.29471191 100.49302979 78.55817383 100.09543457 77.79931641 99.68579102 C70.37931754 95.46896547 64.87453707 90.00782601 59.28125 83.640625 C58.68828125 82.97546875 58.0953125 82.3103125 57.484375 81.625 C56.42443562 80.41813833 55.37373085 79.20310873 54.33203125 77.98046875 C51.32504953 74.5496458 48.20787022 71.22411115 45.09375 67.890625 C44.18326904 66.91452271 44.18326904 66.91452271 43.25439453 65.91870117 C41.60270932 64.15353966 39.94319621 62.39611916 38.28125 60.640625 C37.54261719 59.85171875 36.80398437 59.0628125 36.04296875 58.25 C33.4805123 55.90913069 31.38877604 55.65076897 27.96875 55.328125 C23.49356308 55.70737813 21.63144998 56.67112956 18.28125 59.640625 C15.86098722 63.57355202 14.91577475 66.33873123 15.84375 70.828125 C17.00993107 75.2668452 19.86218785 77.78996829 23.73347473 80.11061096 C24.65005356 80.56596725 25.56663239 81.02132355 26.51098633 81.49047852 C27.55760941 82.01525284 28.60423248 82.54002716 29.68257141 83.08070374 C30.81470566 83.63801682 31.9468399 84.1953299 33.11328125 84.76953125 C34.30832151 85.36458134 35.50303267 85.96029277 36.69743347 86.55662537 C39.85298171 88.12960383 43.01337218 89.69261115 46.17474365 91.25384521 C48.68476034 92.4954816 51.19120924 93.74421345 53.69748116 94.99338722 C66.69616519 101.4713491 79.71814726 107.89425721 92.88545227 114.02479553 C108.38138999 121.32236905 108.38138999 121.32236905 111.28125 126.640625 C112.08081055 128.97143555 112.08081055 128.97143555 112.66796875 131.52734375 C112.88388672 132.46642578 113.09980469 133.40550781 113.32226562 134.37304688 C113.53560547 135.34822266 113.74894531 136.32339844 113.96875 137.328125 C114.30616211 138.76188477 114.30616211 138.76188477 114.65039062 140.22460938 C117.82807592 154.39380186 117.82807592 154.39380186 115.35668945 159.58129883 C114.04091761 161.56619478 112.61929757 163.37477721 111.09375 165.203125 C110.55927246 165.87786865 110.02479492 166.5526123 109.47412109 167.24780273 C107.76366964 169.39617546 106.02376466 171.51821422 104.28125 173.640625 C103.1193963 175.08717993 101.95922911 176.53509112 100.80078125 177.984375 C97.65968069 181.8968175 94.49257161 185.78558785 91.28125 189.640625 C90.73823242 190.29530762 90.19521484 190.94999023 89.63574219 191.62451172 C89.10368164 192.25760254 88.57162109 192.89069336 88.0234375 193.54296875 C87.54503418 194.11394287 87.06663086 194.68491699 86.57373047 195.27319336 C84.26912635 197.71144188 82.20103289 197.87438239 78.96875 198.015625 C77.82986328 198.08910156 77.82986328 198.08910156 76.66796875 198.1640625 C72.98922724 197.35726813 71.59923403 195.55158168 69.28125 192.640625 C68.28638954 190.01236901 67.56888517 187.72272821 66.96875 185.015625 C66.80052734 184.36722656 66.63230469 183.71882812 66.45898438 183.05078125 C63.36393673 170.03894831 66.48837628 157.0783288 68.71777344 144.17700195 C72.42870762 127.98860709 72.42870762 127.98860709 69.53125 112.515625 C65.42179346 109.09107788 62.75857848 108.2202215 57.2421875 108.39453125 C54.24544323 108.77061669 52.56723544 109.68120891 50.28125 111.640625 C46.86083287 116.20118117 47.19082969 119.71758218 47.75506592 125.08676147 C48.7847336 132.04116877 50.38448241 138.87882848 51.93626785 145.73230934 C52.58170343 148.58551082 53.21766039 151.44068196 53.85116577 154.29655457 C55.65221593 162.40794565 57.47005568 170.51554298 59.29394531 178.62182617 C60.41314395 183.59912467 61.52157156 188.5787257 62.62360764 193.55985069 C63.04439574 195.45099776 63.46942847 197.34120567 63.89882278 199.23041725 C64.4981006 201.86738424 65.08372897 204.50704959 65.66650391 207.14770508 C65.84619217 207.92236618 66.02588043 208.69702728 66.21101379 209.49516296 C67.29071139 214.47522444 67.8142637 218.89787382 65.25317383 223.47998047 C64.83575928 223.98416504 64.41834473 224.48834961 63.98828125 225.0078125 C63.29412109 225.86584473 63.29412109 225.86584473 62.5859375 226.74121094 C61.84730469 227.6195459 61.84730469 227.6195459 61.09375 228.515625 C60.08909327 229.7467838 59.08518191 230.97855124 58.08203125 232.2109375 C57.59814941 232.79907227 57.11426758 233.38720703 56.61572266 233.99316406 C54.46762884 236.64507351 52.48070888 239.40967657 50.5 242.1875 C48.55114681 244.51113265 46.76730187 245.56096862 43.79492188 246.0480957 C34.92430844 246.64767293 26.08203542 246.82683501 17.19433594 246.82592773 C14.75699196 246.82814709 12.32007886 246.84647493 9.8828125 246.86523438 C8.31770986 246.86816359 6.7526051 246.87015154 5.1875 246.87109375 C4.46663208 246.87827927 3.74576416 246.88546478 3.00305176 246.89286804 C-2.19107745 246.86931234 -5.76198162 246.05384661 -9.96875 243.015625 C-12.42670656 239.67982681 -13.02518083 236.7613132 -12.71875 232.640625 C-11.507653 230.16338115 -10.46514043 228.70787456 -8.71875 226.640625 C-7.75001953 225.35091797 -7.75001953 225.35091797 -6.76171875 224.03515625 C1.01377172 213.94472115 10.49583455 208.83685674 21.53125 202.765625 C25.78414231 200.3957923 30.03315492 198.01904522 34.28125 195.640625 C35.4554248 194.98465332 35.4554248 194.98465332 36.65332031 194.31542969 C38.49874448 193.2748964 40.32994537 192.2142476 42.15625 191.140625 C43.57550781 190.32078125 43.57550781 190.32078125 45.0234375 189.484375 C48.41307678 186.71636507 50.07273223 183.62480187 50.53125 179.26171875 C50.04606768 175.02395441 49.61578169 173.05235632 46.84375 169.640625 C42.67682024 166.38838714 39.44727017 166.26613655 34.28125 166.640625 C30.95346575 167.24800622 30.95346575 167.24800622 28.28125 168.640625 C27.58254639 169.95745281 26.91958698 171.29349913 26.28125 172.640625 C25.32544566 173.92120741 24.33011489 175.17289602 23.3046875 176.3984375 C22.42864868 177.45236694 22.42864868 177.45236694 21.53491211 178.52758789 C20.91495361 179.26614014 20.29499512 180.00469238 19.65625 180.765625 C18.37319615 182.30817653 17.09064036 183.85114248 15.80859375 185.39453125 C15.1935498 186.1333252 14.57850586 186.87211914 13.94482422 187.63330078 C12.00919162 189.96889972 10.10626927 192.32850399 8.21875 194.703125 C4.87084587 198.91293636 1.48717858 203.09250396 -1.90625 207.265625 C-2.45829102 207.94455811 -3.01033203 208.62349121 -3.57910156 209.32299805 C-5.86770724 212.13692776 -8.15701557 214.95028546 -10.44628906 217.76367188 C-11.58451554 219.16267451 -12.72253892 220.56184241 -13.86035156 221.96118164 C-14.96575589 223.32032504 -16.07186487 224.67889568 -17.17871094 226.03686523 C-20.7981588 230.48359964 -24.35435911 234.97437889 -27.83984375 239.52734375 C-28.76990234 240.57341797 -28.76990234 240.57341797 -29.71875 241.640625 C-30.47285156 242.54296875 -31.22695312 243.4453125 -32.00390625 244.375 C-36.68178514 248.1503989 -42.95290609 247.34329637 -48.65917969 247.23754883 C-50.71428448 247.20319964 -52.76508828 247.21691604 -54.8203125 247.23632812 C-61.8563522 247.18428641 -66.02972838 247.11956353 -71.71875 242.640625 C-73.52229779 240.58419147 -75.16068787 238.57829141 -76.78125 236.390625 C-77.73145824 235.14199875 -78.6833541 233.8946554 -79.63671875 232.6484375 C-80.13349121 231.99649414 -80.63026367 231.34455078 -81.14208984 230.67285156 C-84.39833248 226.47573734 -87.81125388 222.40107736 -91.21508789 218.32324219 C-100.68180795 206.82020587 -100.68180795 206.82020587 -100.78125 200.953125 C-99.63516972 197.38005118 -98.32075636 195.32148004 -95.71875 192.640625 C-87.68710746 188.62480373 -74.21773797 190.33224584 -65.98632812 192.72607422 C-57.32623474 195.76216601 -49.02093047 199.75797453 -40.71875 203.640625 C-28.69395425 209.50672256 -28.69395425 209.50672256 -15.71875 209.640625 C-12.61712688 207.90549567 -10.33447465 205.87207429 -8.71875 202.640625 C-8.19737706 197.811515 -7.98472327 193.89895654 -10.46875 189.640625 C-14.31971851 186.21754188 -17.12579304 185.3917747 -22.26123047 185.33764648 C-23.38080643 185.32095413 -24.50038239 185.30426178 -25.65388489 185.2870636 C-26.86896225 185.2786998 -28.08403961 185.270336 -29.3359375 185.26171875 C-31.27998722 185.2363818 -33.22403689 185.21104077 -35.16808414 185.1855154 C-37.23020879 185.16019506 -39.29233408 185.13955015 -41.35452271 185.12017822 C-45.59581957 185.07979942 -49.8368134 185.02379163 -54.07788086 184.96435547 C-59.69201852 184.88645388 -65.30618033 184.81167843 -70.92041016 184.74072266 C-89.98319102 184.49798574 -89.98319102 184.49798574 -98.89141846 184.3117981 C-100.47379951 184.28122547 -102.05629701 184.25614433 -103.63885498 184.23678589 C-105.79228323 184.21021285 -107.94463605 184.16605822 -110.09765625 184.1171875 C-111.2688501 184.09736816 -112.44004395 184.07754883 -113.64672852 184.05712891 C-117.74663454 183.50126467 -120.33379079 182.0556037 -123.21679688 179.11010742 C-123.82104492 178.31117065 -123.82104492 178.31117065 -124.4375 177.49609375 C-124.89511719 176.90119141 -125.35273437 176.30628906 -125.82421875 175.69335938 C-126.28441406 175.07783203 -126.74460937 174.46230469 -127.21875 173.828125 C-128.14497024 172.61262308 -129.07204756 171.39777377 -130 170.18359375 C-130.44859375 169.5911084 -130.8971875 168.99862305 -131.359375 168.38818359 C-132.69320388 166.67346608 -134.0836488 165.02571977 -135.5 163.37890625 C-138.95287714 159.11752091 -138.97524112 155.99866134 -138.71875 150.640625 C-138.18776128 147.30286517 -137.45962222 144.0206434 -136.70703125 140.7265625 C-136.39187813 139.3275621 -136.39187813 139.3275621 -136.07035828 137.90029907 C-135.62470769 135.93779333 -135.17482424 133.97624452 -134.72094727 132.015625 C-134.03274834 129.0221424 -133.37246598 126.02333853 -132.71289062 123.0234375 C-132.27513946 121.11158868 -131.83574162 119.20011598 -131.39453125 117.2890625 C-131.20159988 116.3962558 -131.00866852 115.5034491 -130.80989075 114.58358765 C-129.53912302 109.25504096 -128.15736627 106.17934897 -123.71875 102.640625 C-120.56963521 101.06606761 -118.19866184 101.29263382 -114.71875 101.640625 C-99.758676 112.85164137 -95.63199109 127.29295256 -90.78125 144.640625 C-89.81686398 147.99922406 -88.84445622 151.35531178 -87.86558533 154.7097168 C-87.26336006 156.78250048 -86.6707167 158.85809964 -86.08912659 160.93676758 C-84.06691183 168.9168908 -84.06691183 168.9168908 -78.83984375 174.9296875 C-74.83922541 176.27059457 -70.87299113 176.18599539 -66.71875 175.640625 C-63.59549133 173.883792 -62.22864805 172.45182645 -60.34375 169.453125 C-59.37372116 165.08799522 -59.20005321 161.82762969 -60.71875 157.640625 C-63.59597012 153.32742482 -66.84477272 149.40404617 -70.19580078 145.45361328 C-72.54643351 142.65531276 -74.78595155 139.7735749 -77.03125 136.890625 C-77.94374226 135.72895598 -78.8565103 134.56750354 -79.76953125 133.40625 C-83.7026565 128.39094538 -87.60958625 123.35526568 -91.52001953 118.32226562 C-95.13691322 113.6689985 -98.76419984 109.02422463 -102.40625 104.390625 C-102.84259766 103.83366943 -103.27894531 103.27671387 -103.72851562 102.70288086 C-106.0425779 99.75313914 -108.37685432 96.82215542 -110.73828125 93.91015625 C-111.23690674 93.28979492 -111.73553223 92.66943359 -112.24926758 92.03027344 C-113.19441361 90.85508272 -114.14561309 89.6847214 -115.10424805 88.52050781 C-118.6915896 84.04053505 -121.95398902 79.92889633 -121.52636719 73.95141602 C-120.99958554 70.81092792 -120.3285451 67.73888475 -119.59375 64.640625 C-119.366875 63.58617188 -119.14 62.53171875 -118.90625 61.4453125 C-118.24638666 58.48704875 -117.51448203 55.56501967 -116.71875 52.640625 C-116.53086914 51.93679687 -116.34298828 51.23296875 -116.14941406 50.5078125 C-113.93033807 43.94644861 -107.47840626 41.48549818 -101.67700195 38.52832031 C-100.27272214 37.83694757 -98.8659743 37.1505693 -97.45703125 36.46875 C-96.70334763 36.10086365 -95.949664 35.73297729 -95.17314148 35.35394287 C-93.59528176 34.58543625 -92.01631349 33.81920174 -90.4362793 33.05517578 C-88.02340295 31.88682534 -85.6160925 30.70752427 -83.20898438 29.52734375 C-81.66698926 28.77798165 -80.12468225 28.02926094 -78.58203125 27.28125 C-77.86735184 26.93024231 -77.15267242 26.57923462 -76.41633606 26.21759033 C-67.69586773 22.02703674 -67.69586773 22.02703674 -62.09375 23.765625 C-58.32221421 25.86092266 -57.07674551 26.56663848 -55.71875 30.640625 C-55.15489674 44.93307935 -60.74711962 56.64077906 -69.20800781 67.62304688 C-72.1196777 71.51154719 -74.80866616 75.55615261 -77.53125 79.578125 C-78.59936507 81.15034822 -79.66834123 82.72198688 -80.73828125 84.29296875 C-81.48779053 85.39487549 -81.48779053 85.39487549 -82.25244141 86.51904297 C-83.65166779 88.54356466 -85.09063623 90.53292367 -86.54296875 92.51953125 C-89.71338054 97.06739305 -90.47307059 101.17438404 -89.71875 106.640625 C-88.10951503 109.74414958 -86.71527733 111.85763924 -83.96875 114.015625 C-78.89604664 115.42470927 -75.11999109 115.27514927 -70.40625 113.140625 C-65.24602695 108.34041751 -64.11045998 100.73488466 -62.58984375 94.04077148 C-62.39915314 93.22179382 -62.20846252 92.40281616 -62.01199341 91.559021 C-61.602077 89.79559124 -61.19459524 88.03159406 -60.78933716 86.26708794 C-60.14663425 83.46986835 -59.49695513 80.67434943 -58.84545898 77.87916565 C-57.22957893 70.94048487 -55.62444793 63.99932951 -54.02111816 57.05773926 C-52.66333094 51.18002816 -51.30041503 45.30355647 -49.9302063 39.4287281 C-49.29200911 36.68300776 -48.66141244 33.93561282 -48.03100586 31.18809509 C-47.63695208 29.49566578 -47.24252199 27.80332403 -46.84765625 26.11108398 C-46.67614044 25.3540065 -46.50462463 24.59692902 -46.32791138 23.81690979 C-44.67901221 16.81928958 -43.07131644 10.70223947 -36.71875 6.640625 C-33.33623835 4.76841328 -29.89092788 3.06365946 -26.40625 1.390625 C-25.49423828 0.93171875 -24.58222656 0.4728125 -23.64257812 0 C-22.74345703 -0.433125 -21.84433594 -0.86625 -20.91796875 -1.3125 C-20.11190186 -1.70598633 -19.30583496 -2.09947266 -18.4753418 -2.50488281 C-11.39993354 -4.69812778 -6.30993481 -3.24842781 0 0 Z M-18.54296875 73.73046875 C-19.9511084 74.40613892 -19.9511084 74.40613892 -21.38769531 75.09545898 C-22.38381836 75.58473877 -23.37994141 76.07401855 -24.40625 76.578125 C-25.93717285 77.32267944 -25.93717285 77.32267944 -27.49902344 78.08227539 C-30.57889412 79.58873388 -33.65045429 81.11074354 -36.71875 82.640625 C-37.6070752 83.08277344 -38.49540039 83.52492188 -39.41064453 83.98046875 C-41.77137539 85.16475413 -44.12218664 86.36604965 -46.46875 87.578125 C-47.51228638 88.10684204 -47.51228638 88.10684204 -48.5769043 88.64624023 C-52.22809297 90.57045942 -54.61024211 92.09435056 -56.71875 95.640625 C-57.51369757 98.45047489 -58.18002905 101.17435201 -58.76171875 104.02734375 C-58.93504227 104.8437886 -59.10836578 105.66023346 -59.28694153 106.50141907 C-59.65067863 108.22767525 -60.00926367 109.95502399 -60.36303711 111.68334961 C-60.90140477 114.30453472 -61.46015098 116.92075835 -62.02148438 119.53710938 C-62.37363389 121.22109574 -62.72458355 122.90533356 -63.07421875 124.58984375 C-63.32258736 125.74814949 -63.32258736 125.74814949 -63.57597351 126.92985535 C-65.61596542 136.8269618 -65.61596542 136.8269618 -62.59375 146.01171875 C-61.65679206 147.05348331 -60.69728389 148.07531145 -59.71875 149.078125 C-58.69936798 150.19817059 -57.68114694 151.31927388 -56.6640625 152.44140625 C-56.16036133 152.98361816 -55.65666016 153.52583008 -55.13769531 154.08447266 C-53.18205432 156.22921726 -51.38601481 158.48357123 -49.59375 160.765625 C-48.96726562 161.55195313 -48.34078125 162.33828125 -47.6953125 163.1484375 C-46.24818996 164.97307026 -44.80619988 166.80177681 -43.3671875 168.6328125 C-42.57570313 169.62539062 -41.78421875 170.61796875 -40.96875 171.640625 C-40.25203125 172.548125 -39.5353125 173.455625 -38.796875 174.390625 C-35.478189 177.98378879 -33.81381464 178.57509882 -28.8671875 178.87109375 C-27.27597829 178.86922991 -25.68475054 178.85396056 -24.09375 178.828125 C-23.23579834 178.8180542 -22.37784668 178.8079834 -21.49389648 178.79760742 C-19.60472435 178.77032515 -17.71563396 178.73688965 -15.82666016 178.69824219 C-13.65725597 178.65802385 -11.48758284 178.6310797 -9.31787109 178.61425781 C-5.80478933 178.58603247 -2.29372229 178.52325633 1.21875 178.453125 C2.89735107 178.44478638 2.89735107 178.44478638 4.60986328 178.4362793 C10.89399404 178.32712079 10.89399404 178.32712079 16.28125 175.390625 C16.94125 174.483125 17.60125 173.575625 18.28125 172.640625 C18.95285156 171.87105469 19.62445313 171.10148437 20.31640625 170.30859375 C24.86833964 164.73927255 29.27179765 159.07726824 33.59375 153.328125 C34.34893921 152.3239856 34.34893921 152.3239856 35.11938477 151.29956055 C36.07900343 150.01382211 37.02870498 148.72060943 37.96728516 147.41943359 C39.14571537 145.82410796 40.41751862 144.29876334 41.69921875 142.78515625 C45.85694563 134.52103245 40.80129966 122.37040734 38.69018555 113.7800293 C38.09195834 111.32075963 37.52555586 108.85539929 36.95898438 106.38867188 C36.57485623 104.8094228 36.18885348 103.23062827 35.80078125 101.65234375 C35.638022 100.92206467 35.47526276 100.19178558 35.30757141 99.43937683 C33.95145568 94.15268037 31.92628783 91.77482482 27.28125 88.640625 C24.86674332 87.27046931 22.39894454 86.08682311 19.87109375 84.94140625 C19.18116837 84.62028366 18.49124298 84.29916107 17.78041077 83.9683075 C15.59702013 82.95471451 13.40803187 81.95391886 11.21875 80.953125 C9.7463724 80.27098551 8.27436355 79.5880495 6.80273438 78.90429688 C-5.51173453 72.14374003 -5.51173453 72.14374003 -18.54296875 73.73046875 Z " fill="#3B3AF9" transform="translate(138.71875,7.359375)"/>
<path d="M0 0 C1.74940652 3.49881305 2.60509576 6.10435418 3.4362793 9.86669922 C3.6996257 11.04827606 3.96297211 12.22985291 4.23429871 13.44723511 C4.51147232 14.7201944 4.78864594 15.99315369 5.07421875 17.3046875 C5.36506539 18.62984535 5.65606816 19.95496895 5.94721985 21.28005981 C6.5553525 24.05485617 7.15900378 26.83058542 7.76000977 29.60693359 C8.52896585 33.15563343 9.3129153 36.70083357 10.10078716 40.24537468 C10.70627206 42.9804674 11.30170803 45.71767712 11.8943882 48.45557022 C12.31706045 50.39681101 12.7497167 52.33586929 13.18254089 54.27487183 C13.43643082 55.46275299 13.69032074 56.65063416 13.9519043 57.87451172 C14.1790361 58.91501678 14.40616791 59.95552185 14.6401825 61.02755737 C15.03510606 64.29001018 14.81883974 66.82231626 14 70 C13.01 70.495 13.01 70.495 12 71 C11.94392578 69.80117187 11.94392578 69.80117187 11.88671875 68.578125 C11.47994668 61.78263873 10.53966023 55.55395085 8.765625 48.98828125 C6.986845 42.04559401 5.86249147 35.17159886 6 28 C4.35 27.67 2.7 27.34 1 27 C0.01 29.97 -0.98 32.94 -2 36 C-2.99 36 -3.98 36 -5 36 C-4.484375 35.195625 -3.96875 34.39125 -3.4375 33.5625 C-1.61163283 29.03752483 -1.56710874 25.65904166 -3 21 C-5.19823815 18.29447612 -6.89556667 16.55221667 -10 15 C-12.04055005 14.92934383 -14.08334257 14.91578024 -16.125 14.9375 C-17.22070312 14.94652344 -18.31640625 14.95554688 -19.4453125 14.96484375 C-20.70988281 14.98224609 -20.70988281 14.98224609 -22 15 C-18.19477615 11.84424543 -15.97504344 11.56359268 -11 12 C-8.25 12.9375 -8.25 12.9375 -6 14 C-5.01 14.33 -4.02 14.66 -3 15 C-1.8125 18.0625 -1.8125 18.0625 -1 21 C-0.67 20.67 -0.34 20.34 0 20 C-0.28604898 18.32457024 -0.61781233 16.65614657 -1 15 C-0.01 15 0.98 15 2 15 C2 13.68 2 12.36 2 11 C1.34 11 0.68 11 0 11 C0 7.37 0 3.74 0 0 Z " fill="#3838F5" transform="translate(191,159)"/>
<path d="M0 0 C1.32 0.33 2.64 0.66 4 1 C3.21665283 1.66604248 2.43330566 2.33208496 1.6262207 3.01831055 C-1.39480945 6.44824838 -2.22150681 9.34407891 -3.01953125 13.70703125 C-3.16782883 14.43242599 -3.3161264 15.15782074 -3.46891785 15.90519714 C-3.93473328 18.20446859 -4.37392876 20.50789364 -4.8125 22.8125 C-5.12520414 24.37990724 -5.43963983 25.94697008 -5.75585938 27.51367188 C-6.52399609 31.33875458 -7.26831736 35.16778441 -8 39 C-8.33 39 -8.66 39 -9 39 C-9 34.71 -9 30.42 -9 26 C-9.99 26.33 -10.98 26.66 -12 27 C-12.66 26.67 -13.32 26.34 -14 26 C-14.33 26.66 -14.66 27.32 -15 28 C-15 27.34 -15 26.68 -15 26 C-15.99 26 -16.98 26 -18 26 C-18 26.66 -18 27.32 -18 28 C-19.41623216 28.05447047 -20.83308191 28.09300508 -22.25 28.125 C-23.43335938 28.15980469 -23.43335938 28.15980469 -24.640625 28.1953125 C-27.20731941 27.9828378 -28.7916067 27.28654105 -31 26 C-31 25.34 -31 24.68 -31 24 C-30.505 24.165 -30.01 24.33 -29.5 24.5 C-24.30193124 25.53961375 -20.48715484 25.67342861 -15.6875 23.5 C-10.48791667 18.6631783 -9.55961026 11.71832111 -8 5 C-7.67 5 -7.34 5 -7 5 C-6.67 7.31 -6.34 9.62 -6 12 C-5.67 10.68 -5.34 9.36 -5 8 C-4.34 8 -3.68 8 -3 8 C-2.87625 7.236875 -2.7525 6.47375 -2.625 5.6875 C-2 3 -2 3 0 0 Z " fill="#3B38E1" transform="translate(84,97)"/>
<path d="M0 0 C1.32 0.33 2.64 0.66 4 1 C3.01 2.485 3.01 2.485 2 4 C-0.28029196 8.03937432 -0.92777375 11.43249846 0 16 C1.12626863 18.56323205 2.4363153 20.65447295 4 23 C3.01 24.32 2.02 25.64 1 27 C2.32 27.33 3.64 27.66 5 28 C5.33 30.31 5.66 32.62 6 35 C6.66 35 7.32 35 8 35 C8.433125 35.9590625 8.433125 35.9590625 8.875 36.9375 C9.82823451 39.15206079 9.82823451 39.15206079 12 40 C12 40.99 12 41.98 12 43 C12.66 43 13.32 43 14 43 C14 43.99 14 44.98 14 46 C14.66 46 15.32 46 16 46 C16.66 47.65 17.32 49.3 18 51 C18.99 51 19.98 51 21 51 C22.0625 52.8125 22.0625 52.8125 23 55 C22.67 55.99 22.34 56.98 22 58 C15.42372412 49.83050265 8.9071345 41.62707096 2.53515625 33.296875 C-1.91857649 27.48627027 -6.46666677 21.74854233 -11 16 C-10.34 15.67 -9.68 15.34 -9 15 C-8.34 15.33 -7.68 15.66 -7 16 C-7 16.99 -7 17.98 -7 19 C-6.34 19 -5.68 19 -5 19 C-4.67 18.34 -4.34 17.68 -4 17 C-3.34 17.33 -2.68 17.66 -2 18 C-2.350625 17.319375 -2.70125 16.63875 -3.0625 15.9375 C-4.64399858 10.98213777 -3.54967014 7.20927432 -1.4375 2.5625 C-0.7259375 1.2940625 -0.7259375 1.2940625 0 0 Z " fill="#3937DD" transform="translate(49,98)"/>
<path d="M0 0 C4.85142583 1.48513035 9.26758242 3.46468987 13.8046875 5.6953125 C14.5286673 6.04761932 15.25264709 6.39992615 15.99856567 6.76290894 C18.29242118 7.8801375 20.58373004 9.00247997 22.875 10.125 C24.43733412 10.88705891 25.9998325 11.64878119 27.5625 12.41015625 C31.37691134 14.2695481 35.18904847 16.13352798 39 18 C39 18.33 39 18.66 39 19 C36.69 18.67 34.38 18.34 32 18 C32 17.34 32 16.68 32 16 C30.8553125 15.7834375 30.8553125 15.7834375 29.6875 15.5625 C27 15 27 15 24 14 C23.67 14.99 23.34 15.98 23 17 C22.01 17 21.02 17 20 17 C20.16371094 17.54140625 20.32742187 18.0828125 20.49609375 18.640625 C21.08590587 21.40222593 21.09609308 23.92818139 21.0625 26.75 C21.05347656 27.73484375 21.04445312 28.7196875 21.03515625 29.734375 C21.02355469 30.48203125 21.01195312 31.2296875 21 32 C20.34 32 19.68 32 19 32 C18.97421875 31.19175781 18.9484375 30.38351563 18.921875 29.55078125 C18.65530507 22.94177787 18.65530507 22.94177787 16.1875 16.9375 C14.18867127 15.16710884 12.20988128 13.4995623 10 12 C12 11 12 11 14 11 C14 10.01 14 9.02 14 8 C13.32453125 7.90203125 12.6490625 7.8040625 11.953125 7.703125 C4.62251042 6.47429365 4.62251042 6.47429365 1.375 4 C0 2 0 2 0 0 Z M2 6 C2.66 6 3.32 6 4 6 C4 6.66 4 7.32 4 8 C3.34 8 2.68 8 2 8 C2 7.34 2 6.68 2 6 Z " fill="#3A39E7" transform="translate(192,103)"/>
<path d="M0 0 C0.66 0.33 1.32 0.66 2 1 C2 5.62 2 10.24 2 15 C6.16279367 13.5035421 6.16279367 13.5035421 6.875 10.4375 C7.24625 9.633125 7.6175 8.82875 8 8 C11.125 7.1875 11.125 7.1875 14 7 C9.48359483 13.12451913 4.78249169 19.08176311 0 25 C-0.5161084 25.64163086 -1.0322168 26.28326172 -1.56396484 26.94433594 C-3.29009411 29.08995879 -5.01969647 31.23274248 -6.75 33.375 C-7.30502197 34.06529297 -7.86004395 34.75558594 -8.43188477 35.46679688 C-11.14570407 38.81773808 -13.86168328 42.0292633 -17 45 C-16.690625 44.236875 -16.38125 43.47375 -16.0625 42.6875 C-15.32106407 40.81210323 -14.63771783 38.91315348 -14 37 C-13.01 37 -12.02 37 -11 37 C-11 35.68 -11 34.36 -11 33 C-10.01 33 -9.02 33 -8 33 C-6.79371992 30.66785852 -5.8345262 28.50357861 -5 26 C-4.34 26 -3.68 26 -3 26 C-3 25.34 -3 24.68 -3 24 C-2.34 23.67 -1.68 23.34 -1 23 C-0.34786708 20.97536745 -0.34786708 20.97536745 0 19 C-1.28197266 19.48726562 -1.28197266 19.48726562 -2.58984375 19.984375 C-6.10052131 21.02993762 -8.91165561 21.2672413 -12.5625 21.25 C-13.65691406 21.25515625 -14.75132813 21.2603125 -15.87890625 21.265625 C-18.98086614 21.00162841 -21.19776037 20.31501748 -24 19 C-24 18.34 -24 17.68 -24 17 C-23.05125 17.33 -22.1025 17.66 -21.125 18 C-15.99718701 19.42497035 -9.92819 20.58807078 -5.0625 17.94921875 C-2.90714559 16.19281215 -1.24895884 14.49791769 0 12 C0.07065617 9.95944995 0.08421976 7.91665743 0.0625 5.875 C0.05347656 4.77929688 0.04445312 3.68359375 0.03515625 2.5546875 C0.02355469 1.71164063 0.01195312 0.86859375 0 0 Z " fill="#3936D5" transform="translate(130,198)"/>
<path d="M0 0 C3.73893754 3.63733597 7.15770365 7.43517034 10.5 11.4375 C10.96019531 11.98470703 11.42039062 12.53191406 11.89453125 13.09570312 C14.94079128 16.72118162 17.97011046 20.3608392 21 24 C20.67 24.66 20.34 25.32 20 26 C18.29115995 24.37660195 16.62553283 22.70680947 15 21 C15 20.34 15 19.68 15 19 C14.34 19 13.68 19 13 19 C12 17.33333333 11 15.66666667 10 14 C9.34 14 8.68 14 8 14 C7.67 18.95 7.34 23.9 7 29 C6.34 29 5.68 29 5 29 C4.67 30.32 4.34 31.64 4 33 C3.01 33 2.02 33 1 33 C1 33.66 1 34.32 1 35 C-1.43757413 35.02698422 -3.87484915 35.04683099 -6.3125 35.0625 C-7.00279297 35.07087891 -7.69308594 35.07925781 -8.40429688 35.08789062 C-11.5483025 35.10307906 -13.99420019 35.00193327 -17 34 C-17.66 33.01 -18.32 32.02 -19 31 C-18.505 29.515 -18.505 29.515 -18 28 C-17.38125 28.639375 -16.7625 29.27875 -16.125 29.9375 C-12.43733863 33.51670074 -9.44407858 33.33854997 -4.48046875 33.28125 C-0.93311892 32.87903081 0.68718177 31.67419608 3 29 C5.38649286 25.20330682 5.25246176 21.6580132 4.69921875 17.33984375 C3.6541605 13.84269351 1.48281722 11.54928561 -0.83203125 8.7890625 C-1.21746094 8.19867188 -1.60289063 7.60828125 -2 7 C-1.375 4.125 -1.375 4.125 0 2 C0 1.34 0 0.68 0 0 Z " fill="#3938CE" transform="translate(74,150)"/>
<path d="M0 0 C0.33 0 0.66 0 1 0 C0.38273804 5.67355671 -0.27945952 11.33861055 -1 17 C-1.66 17 -2.32 17 -3 17 C-2.79375 18.051875 -2.5875 19.10375 -2.375 20.1875 C-2.00036896 23.99624887 -2.28369933 25.66835752 -4 29 C-3.34 29 -2.68 29 -2 29 C-2 29.99 -2 30.98 -2 32 C-1.401875 31.484375 -0.80375 30.96875 -0.1875 30.4375 C0.534375 29.963125 1.25625 29.48875 2 29 C2.99 29.33 3.98 29.66 5 30 C4.38125 30.556875 3.7625 31.11375 3.125 31.6875 C0.81032453 34.20641154 -0.17213456 35.68853824 -1 39 C-0.85591899 41.72153019 -0.43553918 44.29965707 0 47 C0 47.99 0 48.98 0 50 C-0.99 49.34 -1.98 48.68 -3 48 C-3.44140625 45.46875 -3.44140625 45.46875 -3.5625 42.5 C-3.56316791 38.24666541 -3.56316791 38.24666541 -6 35 C-6.33 36.98 -6.66 38.96 -7 41 C-7.66 40.67 -8.32 40.34 -9 40 C-6.50645357 26.54797323 -3.25010012 13.28582896 0 0 Z " fill="#3E3DDC" transform="translate(94,26)"/>
<path d="M0 0 C3.98792946 1.25422685 7.66949404 2.71515581 11.3984375 4.6015625 C12.37167969 5.09140625 13.34492188 5.58125 14.34765625 6.0859375 C15.34667969 6.59382813 16.34570312 7.10171875 17.375 7.625 C18.39722656 8.140625 19.41945312 8.65625 20.47265625 9.1875 C22.98362669 10.45471873 25.49264561 11.72564556 28 13 C28 13.33 28 13.66 28 14 C26.35 14 24.7 14 23 14 C23 13.34 23 12.68 23 12 C22.319375 11.87625 21.63875 11.7525 20.9375 11.625 C17.5722588 10.90899123 14.29986575 9.97054875 11 9 C11.33 9.556875 11.66 10.11375 12 10.6875 C13.1309601 13.30284522 13.15662974 15.1806646 13 18 C12.6596875 17.13375 12.6596875 17.13375 12.3125 16.25 C8.6339437 9.94390349 1.40576453 7.73731444 -5 5 C-5 4.67 -5 4.34 -5 4 C-2.69 4 -0.38 4 2 4 C2 3.34 2 2.68 2 2 C1.01 1.67 0.02 1.34 -1 1 C-0.67 0.67 -0.34 0.34 0 0 Z " fill="#3B3ADB" transform="translate(160,87)"/>
<path d="M0 0 C1.57053179 3.14106358 2.42106243 5.26408913 3.16088867 8.58154297 C3.36417282 9.48282928 3.56745697 10.3841156 3.77690125 11.31271362 C3.98845352 12.27944 4.2000058 13.24616638 4.41796875 14.2421875 C4.63947098 15.24331573 4.86097321 16.24444397 5.08918762 17.27590942 C5.55507355 19.39180845 6.01803187 21.50835392 6.47827148 23.62548828 C7.1839092 26.85854784 7.90692991 30.08740021 8.63085938 33.31640625 C9.08180201 35.37476526 9.53170633 37.43335206 9.98046875 39.4921875 C10.19809372 40.45486542 10.41571869 41.41754333 10.63993835 42.40939331 C11.66011162 47.18631561 12.49710676 51.20556062 11 56 C10.01 56.495 10.01 56.495 9 57 C8.96261719 56.20078125 8.92523438 55.4015625 8.88671875 54.578125 C8.47994668 47.78263873 7.53966023 41.55395085 5.765625 34.98828125 C3.986845 28.04559401 2.86249147 21.17159886 3 14 C2.34 14 1.68 14 1 14 C0.67 9.38 0.34 4.76 0 0 Z " fill="#393CC7" transform="translate(194,173)"/>
<path d="M0 0 C0.66 0.33 1.32 0.66 2 1 C1.319375 1.928125 0.63875 2.85625 -0.0625 3.8125 C-4.55031583 11.86182091 -0.39709098 22.32884638 1.71484375 30.71801758 C2.70646671 34.81425865 3.30417698 37.8563491 2 42 C1.67 42 1.34 42 1 42 C1 39.36 1 36.72 1 34 C0.34 34 -0.32 34 -1 34 C-1 32.02 -1 30.04 -1 28 C-1.66 28 -2.32 28 -3 28 C-3.33 27.01 -3.66 26.02 -4 25 C-4 27.31 -4 29.62 -4 32 C-6.39763185 29.60236815 -6.34280586 28.66726502 -6.625 25.375 C-6.69976562 24.55773437 -6.77453125 23.74046875 -6.8515625 22.8984375 C-6.90054688 22.27195313 -6.94953125 21.64546875 -7 21 C-6.34 21 -5.68 21 -5 21 C-4.67 21.66 -4.34 22.32 -4 23 C-4.02320313 21.90300781 -4.04640625 20.80601562 -4.0703125 19.67578125 C-4.08907921 18.221361 -4.10727844 16.76693336 -4.125 15.3125 C-4.14175781 14.59126953 -4.15851563 13.87003906 -4.17578125 13.12695312 C-4.21385307 8.95808882 -3.9668938 5.70683832 -2 2 C-1.34 1.34 -0.68 0.68 0 0 Z " fill="#3838D2" transform="translate(188,117)"/>
<path d="M0 0 C1.0725 -0.01611328 2.145 -0.03222656 3.25 -0.04882812 C9.37232119 -0.05259803 13.83953984 0.38312229 19.25 3.3125 C19.25 3.6425 19.25 3.9725 19.25 4.3125 C17.60064453 4.07080078 17.60064453 4.07080078 15.91796875 3.82421875 C10.79747217 3.18711667 5.71704228 3.12864279 0.5625 3.125 C-0.36111328 3.11275391 -1.28472656 3.10050781 -2.23632812 3.08789062 C-8.74609306 3.01456712 -8.74609306 3.01456712 -14.75 5.3125 C-15.63693303 7.35355639 -15.63693303 7.35355639 -15.75 9.3125 C-16.41 9.3125 -17.07 9.3125 -17.75 9.3125 C-17.75 10.3025 -17.75 11.2925 -17.75 12.3125 C-17.09 12.3125 -16.43 12.3125 -15.75 12.3125 C-15.42 14.2925 -15.09 16.2725 -14.75 18.3125 C-17.32061106 16.41248313 -17.7989541 15.13952883 -18.6875 12 C-18.76471727 7.44418121 -17.6375418 5.76150826 -14.75 2.3125 C-10.12573384 -0.77034411 -5.43902604 -0.01611086 0 0 Z " fill="#3938CB" transform="translate(56.75,198.6875)"/>
<path d="M0 0 C0.33 1.32 0.66 2.64 1 4 C0.01 4.495 0.01 4.495 -1 5 C-1.495 5.845625 -1.99 6.69125 -2.5 7.5625 C-2.995 8.366875 -3.49 9.17125 -4 10 C-4.66 10 -5.32 10 -6 10 C-6.268125 10.763125 -6.53625 11.52625 -6.8125 12.3125 C-7.95800967 14.90496926 -8.99711522 16.08815544 -11 18 C-11 18.66 -11 19.32 -11 20 C-10.34 20 -9.68 20 -9 20 C-8.87625 19.360625 -8.7525 18.72125 -8.625 18.0625 C-8.41875 17.381875 -8.2125 16.70125 -8 16 C-7.34 15.67 -6.68 15.34 -6 15 C-5.625 17.0625 -5.625 17.0625 -6 20 C-7.79177109 22.53572282 -9.84238121 24.77174488 -12 27 C-12.66 25.68 -13.32 24.36 -14 23 C-14.66 23 -15.32 23 -16 23 C-16.33 24.32 -16.66 25.64 -17 27 C-18.32 26.67 -19.64 26.34 -21 26 C-20.32324219 25.36320312 -19.64648438 24.72640625 -18.94921875 24.0703125 C-15.19372871 20.3134987 -12.04297509 16.08103131 -8.8125 11.875 C-8.18408203 11.06417969 -7.55566406 10.25335938 -6.90820312 9.41796875 C-4.51619936 6.32243446 -2.17086309 3.25629464 0 0 Z " fill="#3B37DA" transform="translate(173,158)"/>
<path d="M0 0 C1.95667911 0.96456013 3.87685101 1.96775446 5.78125 3.03125 C2.12936918 4.10299763 -0.48307828 3.79536467 -4.21875 3.03125 C-4.54875 4.35125 -4.87875 5.67125 -5.21875 7.03125 C-6.86875 7.36125 -8.51875 7.69125 -10.21875 8.03125 C-10.54875 6.38125 -10.87875 4.73125 -11.21875 3.03125 C-13.85875 3.03125 -16.49875 3.03125 -19.21875 3.03125 C-12.63068155 -1.36079563 -7.55279171 -3.29769779 0 0 Z " fill="#3D3BE4" transform="translate(207.21875,39.96875)"/>
<path d="M0 0 C-0.33 0.99 -0.66 1.98 -1 3 C-2.65204456 3.70211894 -4.31923769 4.36971413 -6 5 C-6.33 5.66 -6.66 6.32 -7 7 C-5.68 7.33 -4.36 7.66 -3 8 C-4.62249941 8.83819158 -6.24808497 9.6704116 -7.875 10.5 C-8.77992187 10.9640625 -9.68484375 11.428125 -10.6171875 11.90625 C-13 13 -13 13 -15 13 C-14.125 9.125 -14.125 9.125 -13 8 C-14.12148437 7.94392578 -14.12148437 7.94392578 -15.265625 7.88671875 C-16.74289063 7.78810547 -16.74289063 7.78810547 -18.25 7.6875 C-19.22453125 7.62949219 -20.1990625 7.57148437 -21.203125 7.51171875 C-24.25341611 6.95363476 -25.70711276 6.03630224 -28 4 C-27.67 3.34 -27.34 2.68 -27 2 C-26.360625 2.495 -25.72125 2.99 -25.0625 3.5 C-20.86507342 5.55588241 -17.59506348 5.78812727 -13 5 C-9.99207867 3.85563891 -7.15562344 2.54715111 -4.28515625 1.09375 C-2 0 -2 0 0 0 Z " fill="#393ADA" transform="translate(123,74)"/>
<path d="M0 0 C1.65 0 3.3 0 5 0 C5.45439453 0.93972656 5.45439453 0.93972656 5.91796875 1.8984375 C8.43358882 7.07493961 8.43358882 7.07493961 12.8125 10.5625 C13.534375 10.706875 14.25625 10.85125 15 11 C15 11.66 15 12.32 15 13 C24.57 13.33 34.14 13.66 44 14 C44 14.33 44 14.66 44 15 C39.83746725 15.09938095 35.67557521 15.17170617 31.51220703 15.21972656 C30.09802205 15.23975843 28.68391903 15.26699248 27.27001953 15.30175781 C25.22928581 15.35065489 23.1896531 15.37305123 21.1484375 15.390625 C19.31031494 15.4220459 19.31031494 15.4220459 17.43505859 15.45410156 C11.04488658 14.60934535 7.42248691 10.73759317 3.625 5.8125 C2.59246094 4.49185547 2.59246094 4.49185547 1.5390625 3.14453125 C0 1 0 1 0 0 Z " fill="#3F3CD7" transform="translate(59,239)"/>
<path d="M0 0 C2.475 0.495 2.475 0.495 5 1 C3.01044597 3.67460194 1.00708172 6.33853058 -1 9 C-1.59941406 9.80179688 -2.19882813 10.60359375 -2.81640625 11.4296875 C-3.41324219 12.21601563 -4.01007813 13.00234375 -4.625 13.8125 C-5.44871094 14.90498047 -5.44871094 14.90498047 -6.2890625 16.01953125 C-8.64279714 18.7440597 -10.59858755 20.69916012 -14.18359375 21.46875 C-18.70646374 21.53145877 -20.41786145 21.47521514 -24.0625 18.5 C-24.701875 17.675 -25.34125 16.85 -26 16 C-25.67 15.34 -25.34 14.68 -25 14 C-24.4225 14.639375 -23.845 15.27875 -23.25 15.9375 C-19.41899968 19.4492503 -16.06270801 19.11506155 -11 19 C-11 18.34 -11 17.68 -11 17 C-10.34 17 -9.68 17 -9 17 C-9 16.34 -9 15.68 -9 15 C-8.34 15 -7.68 15 -7 15 C-6.67 13.68 -6.34 12.36 -6 11 C-5.34 11 -4.68 11 -4 11 C-4.33 9.35 -4.66 7.7 -5 6 C-4.34 5.67 -3.68 5.34 -3 5 C-3 5.66 -3 6.32 -3 7 C-2.34 7 -1.68 7 -1 7 C-1 6.34 -1 5.68 -1 5 C-0.34 5 0.32 5 1 5 C0.67 3.35 0.34 1.7 0 0 Z " fill="#3A38D4" transform="translate(234,184)"/>
<path d="M0 0 C0.33 0 0.66 0 1 0 C1 3.3 1 6.6 1 10 C0.34 10 -0.32 10 -1 10 C-1 14.95 -1 19.9 -1 25 C-0.34 25.33 0.32 25.66 1 26 C1 26.66 1 27.32 1 28 C1.66 28 2.32 28 3 28 C3 29.32 3 30.64 3 32 C3.66 32 4.32 32 5 32 C6.6875 34.375 6.6875 34.375 8 37 C7.67 37.66 7.34 38.32 7 39 C5.34867151 37.06695667 3.70388959 35.12895263 2.0625 33.1875 C1.59392578 32.64029297 1.12535156 32.09308594 0.64257812 31.52929688 C-3.55020259 26.55225502 -4.31310497 23.46431304 -4 17 C-3.47081975 13.98380897 -2.75265003 11.02987359 -2 8.0625 C-1.80921875 7.28326172 -1.6184375 6.50402344 -1.421875 5.70117188 C-0.9550862 3.79900752 -0.47854864 1.89923991 0 0 Z " fill="#3B3BD4" transform="translate(4,141)"/>
<path d="M0 0 C1.32 0.33 2.64 0.66 4 1 C3.22269531 1.62261719 2.44539063 2.24523437 1.64453125 2.88671875 C-1.99730074 6.52855074 -2.46563578 10.89628822 -3.3125 15.8125 C-3.48072266 16.69615234 -3.64894531 17.57980469 -3.82226562 18.49023438 C-4.23229811 20.65754893 -4.62420922 22.82653323 -5 25 C-5.33 25 -5.66 25 -6 25 C-6.33 22.36 -6.66 19.72 -7 17 C-8.98 17.99 -8.98 17.99 -11 19 C-10.01 14.38 -9.02 9.76 -8 5 C-7.67 5 -7.34 5 -7 5 C-6.67 7.31 -6.34 9.62 -6 12 C-5.67 10.68 -5.34 9.36 -5 8 C-4.34 8 -3.68 8 -3 8 C-2.87625 7.236875 -2.7525 6.47375 -2.625 5.6875 C-2 3 -2 3 0 0 Z " fill="#3A3BD3" transform="translate(84,97)"/>
<path d="M0 0 C0 0.33 0 0.66 0 1 C-1.24499268 1.08564209 -2.48998535 1.17128418 -3.77270508 1.25952148 C-8.43766529 1.58074141 -13.1025147 1.90354715 -17.76733398 2.22680664 C-19.77772124 2.36590423 -21.78813742 2.50458454 -23.79858398 2.64282227 C-26.70564547 2.84278651 -29.61259604 3.04430315 -32.51953125 3.24609375 C-33.84522881 3.33678383 -33.84522881 3.33678383 -35.19770813 3.42930603 C-41.47369908 3.86703769 -47.73663384 4.40911463 -54 5 C-53 3 -53 3 -49.87109375 1.90087891 C-46.15508268 1.03609076 -42.86825 0.68844044 -39.0625 0.5859375 C-37.09990234 0.52792969 -37.09990234 0.52792969 -35.09765625 0.46875 C-33.73177169 0.43746274 -32.36588627 0.40621283 -31 0.375 C-29.66534222 0.33670931 -28.33070621 0.29765168 -26.99609375 0.2578125 C-17.99469254 0.01143984 -9.00421969 -0.0436627 0 0 Z " fill="#3F3FC9" transform="translate(153,50)"/>
<path d="M0 0 C4.23176701 -0.02499226 8.46349323 -0.04299623 12.6953125 -0.05493164 C14.13054148 -0.05991507 15.56576551 -0.06670425 17.00097656 -0.07543945 C25.05100017 -0.12315577 33.00283763 -0.06861751 41 1 C41 1.33 41 1.66 41 2 C26.91899095 3.23595064 13.99330137 2.70724374 0 1 C0 0.67 0 0.34 0 0 Z " fill="#313BF1" transform="translate(144,251)"/>
<path d="M0 0 C3.93008778 1.31002926 6.47778544 2.66707362 9 6 C10.18816558 10.27739611 10.28715764 12.31331868 8.5625 16.4375 C8.046875 17.283125 7.53125 18.12875 7 19 C6.67 19 6.34 19 6 19 C5.957279 17.33388095 5.95936168 15.66617115 6 14 C6.33 13.67 6.66 13.34 7 13 C7 12.01 7 11.02 7 10 C5.02 9.34 3.04 8.68 1 8 C0.67 5.36 0.34 2.72 0 0 Z " fill="#3C3BF8" transform="translate(167,22)"/>
<path d="M0 0 C2.75 0.9375 2.75 0.9375 5 2 C5.99 2.33 6.98 2.66 8 3 C11.71684003 8.23110819 11.73215446 13.82362003 11 20 C9.5 23.1875 9.5 23.1875 8 25 C7.34 24.67 6.68 24.34 6 24 C6.515625 23.195625 7.03125 22.39125 7.5625 21.5625 C9.38836717 17.03752483 9.43289126 13.65904166 8 9 C5.80176185 6.29447612 4.10443333 4.55221667 1 3 C-1.04055005 2.92934383 -3.08334257 2.91578024 -5.125 2.9375 C-6.22070312 2.94652344 -7.31640625 2.95554688 -8.4453125 2.96484375 C-9.70988281 2.98224609 -9.70988281 2.98224609 -11 3 C-7.19477615 -0.15575457 -4.97504344 -0.43640732 0 0 Z " fill="#3938D0" transform="translate(180,171)"/>
<path d="M0 0 C0 0.33 0 0.66 0 1 C-1.0725 1.2475 -2.145 1.495 -3.25 1.75 C-8.3024334 3.43414447 -10.10694201 5.66041302 -13 10 C-13.99 10 -14.98 10 -16 10 C-15.67 9.34 -15.34 8.68 -15 8 C-17.31 8.33 -19.62 8.66 -22 9 C-22 8.34 -22 7.68 -22 7 C-7.40318907 -1.03644647 -7.40318907 -1.03644647 0 0 Z " fill="#3D3AE1" transform="translate(131,4)"/>
<path d="M0 0 C7.06512428 1.9826089 13.83726835 4.407044 20.625 7.1875 C21.53378906 7.55552734 22.44257812 7.92355469 23.37890625 8.30273438 C25.58759559 9.19783479 27.79455048 10.0969535 30 11 C30 11.33 30 11.66 30 12 C24.87870059 12.37472923 21.64104177 11.06268523 17 9 C15.68 9 14.36 9 13 9 C11.96879464 8.03221102 10.97124944 7.02794675 10 6 C7.77081809 4.86623698 7.77081809 4.86623698 5.375 3.9375 C1.10942249 2.21884498 1.10942249 2.21884498 0 0 Z " fill="#3A37D1" transform="translate(76,203)"/>
<path d="M0 0 C3.84740567 2.56493711 3.97044678 4.26662559 5.26171875 8.65234375 C5.45723831 9.30828018 5.65275787 9.96421661 5.85420227 10.64002991 C6.26515335 12.02631889 6.6708074 13.41418757 7.0715332 14.8034668 C7.68511467 16.92923597 8.31468012 19.04973935 8.94726562 21.16992188 C12 31.52436188 12 31.52436188 12 35 C11.34 35 10.68 35 10 35 C9.81824219 34.21496094 9.63648438 33.42992187 9.44921875 32.62109375 C7.86731181 25.95214618 7.86731181 25.95214618 5.4375 19.5625 C3.28268963 14.22231777 2.72702649 8.68791314 2 3 C1.34 3 0.68 3 0 3 C0 2.01 0 1.02 0 0 Z " fill="#3938CE" transform="translate(37,125)"/>
<path d="M0 0 C0.33 0 0.66 0 1 0 C1 4.33333333 1 8.66666667 1 13 C1.99 12.67 2.98 12.34 4 12 C3.25 14.4375 3.25 14.4375 2 17 C-0.125 17.8125 -0.125 17.8125 -2 18 C-2.66 20.31 -3.32 22.62 -4 25 C-5.11991797 21.63684208 -4.85748516 19.42994063 -4.00390625 16.015625 C-3.77509766 15.08105469 -3.54628906 14.14648438 -3.31054688 13.18359375 C-3.06369141 12.21550781 -2.81683594 11.24742188 -2.5625 10.25 C-2.19801758 8.77466797 -2.19801758 8.77466797 -1.82617188 7.26953125 C-1.22571669 4.84416327 -0.61673274 2.42127055 0 0 Z " fill="#3C3BE4" transform="translate(84,68)"/>
<path d="M0 0 C0.68359375 1.765625 0.68359375 1.765625 1 4 C-0.21484375 5.921875 -0.21484375 5.921875 -1.9375 7.75 C-2.50339844 8.36359375 -3.06929687 8.9771875 -3.65234375 9.609375 C-4.09707031 10.06828125 -4.54179687 10.5271875 -5 11 C-4.67 11.66 -4.34 12.32 -4 13 C-7.96 14.98 -7.96 14.98 -12 17 C-10.53416665 12.45928635 -7.95468267 9.23733031 -4.875 5.6875 C-4.40707031 5.13771484 -3.93914062 4.58792969 -3.45703125 4.02148438 C-2.31047517 2.67603591 -1.15602549 1.337321 0 0 Z " fill="#3935D1" transform="translate(139,223)"/>
<path d="M0 0 C4.4008703 3.82180842 5.80805531 6.47371099 7 12 C4.1875 11.8125 4.1875 11.8125 1 11 C-1 8.6875 -1 8.6875 -2 6 C-1.1875 3.8125 -1.1875 3.8125 0 2 C0 1.34 0 0.68 0 0 Z " fill="#3736D8" transform="translate(74,150)"/>
<path d="M0 0 C1.9375 0.25 1.9375 0.25 4 1 C4.66 1.99 5.32 2.98 6 4 C8.58380177 4.25030977 8.58380177 4.25030977 11 4 C11 4.66 11 5.32 11 6 C10.34 6 9.68 6 9 6 C9.16371094 6.54140625 9.32742187 7.0828125 9.49609375 7.640625 C10.08590587 10.40222593 10.09609308 12.92818139 10.0625 15.75 C10.05347656 16.73484375 10.04445312 17.7196875 10.03515625 18.734375 C10.02355469 19.48203125 10.01195312 20.2296875 10 21 C9.34 21 8.68 21 8 21 C7.97421875 20.19175781 7.9484375 19.38351563 7.921875 18.55078125 C7.65530507 11.94177787 7.65530507 11.94177787 5.1875 5.9375 C3.18867127 4.16710884 1.20988128 2.4995623 -1 1 C-0.67 0.67 -0.34 0.34 0 0 Z " fill="#353BCF" transform="translate(203,114)"/>
<path d="M0 0 C0.99 0.66 1.98 1.32 3 2 C3 2.66 3 3.32 3 4 C0.75 5.75 0.75 5.75 -2 7 C-4.3125 6.1875 -4.3125 6.1875 -6 5 C-5.34 3.68 -4.68 2.36 -4 1 C-6.97 0.505 -6.97 0.505 -10 0 C-6.22021469 -2.61677444 -4.07528317 -1.73416305 0 0 Z " fill="#3A38E3" transform="translate(78,32)"/>
<path d="M0 0 C0 0.33 0 0.66 0 1 C-0.60328125 1.15855469 -1.2065625 1.31710938 -1.828125 1.48046875 C-5.58818691 2.57816424 -8.45297673 3.5487058 -11.5 6.0625 C-13.64233282 10.25790177 -13.81910185 14.34187263 -14 19 C-14.33 18.01 -14.66 17.02 -15 16 C-15.66 16 -16.32 16 -17 16 C-17 14.68 -17 13.36 -17 12 C-16.34 12 -15.68 12 -15 12 C-15.33 10.02 -15.66 8.04 -16 6 C-15.01 5.67 -14.02 5.34 -13 5 C-12.67 4.01 -12.34 3.02 -12 2 C-8.36632439 -0.76159346 -4.34961164 -0.14498705 0 0 Z " fill="#3A3ACB" transform="translate(168,61)"/>
<path d="M0 0 C0.33 0.99 0.66 1.98 1 3 C1.66 3 2.32 3 3 3 C3.53464435 5.20503036 4.05214435 7.41422172 4.5625 9.625 C4.85253906 10.85476562 5.14257812 12.08453125 5.44140625 13.3515625 C5.99471592 16.9654872 5.96496362 19.4881652 5 23 C4.34 23.33 3.68 23.66 3 24 C2.92652344 22.71416016 2.92652344 22.71416016 2.8515625 21.40234375 C2.45190775 15.29038227 1.85887697 9.82448116 0 4 C0 2.68 0 1.36 0 0 Z " fill="#3E3BD8" transform="translate(200,206)"/>
<path d="M0 0 C0.66 0.33 1.32 0.66 2 1 C0.21285146 3.3161206 -1.57941805 5.62793272 -3.375 7.9375 C-3.88289062 8.59685547 -4.39078125 9.25621094 -4.9140625 9.93554688 C-5.64882812 10.87817383 -5.64882812 10.87817383 -6.3984375 11.83984375 C-6.84880371 12.42113037 -7.29916992 13.00241699 -7.76318359 13.60131836 C-9 15 -9 15 -11 16 C-10.67 14.68 -10.34 13.36 -10 12 C-10.66 11.67 -11.32 11.34 -12 11 C-10.17054478 8.78539631 -9.32961168 8.05627517 -6.4375 7.5625 C-3.86264871 7.26905197 -3.86264871 7.26905197 -2.8125 5.125 C-2.544375 4.42375 -2.27625 3.7225 -2 3 C-1.34 2.01 -0.68 1.02 0 0 Z " fill="#3736D6" transform="translate(157,186)"/>
<path d="M0 0 C1.32 0.66 2.64 1.32 4 2 C4 2.99 4 3.98 4 5 C3.01 5 2.02 5 1 5 C1.99 5.66 2.98 6.32 4 7 C-1.26053037 7.31563182 -4.44573816 6.66590937 -9 4 C-9 3.67 -9 3.34 -9 3 C-6.03 3 -3.06 3 0 3 C0 2.01 0 1.02 0 0 Z " fill="#3A3AE4" transform="translate(230,105)"/>
<path d="M0 0 C1.32 0.33 2.64 0.66 4 1 C3.34 1.94875 2.68 2.8975 2 3.875 C-0.67400332 8.46035076 -0.37403169 12.83628477 0 18 C-0.66 18 -1.32 18 -2 18 C-4.24359229 13.64479143 -4.08039825 10.7371308 -3 6 C-1.4375 2.5625 -1.4375 2.5625 0 0 Z " fill="#3B39D7" transform="translate(49,98)"/>
<path d="M0 0 C-2.89585905 2.29648357 -5.8172031 4.04347557 -9.125 5.6875 C-10.42824219 6.34298828 -10.42824219 6.34298828 -11.7578125 7.01171875 C-14 8 -14 8 -16 8 C-16 7.34 -16 6.68 -16 6 C-13.69723426 3.78252188 -12.47519908 3.03239994 -9.25 2.8125 C-8.13625 2.9053125 -8.13625 2.9053125 -7 3 C-7 2.34 -7 1.68 -7 1 C-7.99 0.67 -8.98 0.34 -10 0 C-6.7169902 -1.6415049 -3.57454967 -0.51888624 0 0 Z " fill="#3838D3" transform="translate(104,89)"/>
<path d="M0 0 C5.68502535 1.64566523 10.76681636 4.29032784 16 7 C11.77043866 8.28645301 9.16415914 7.53416389 5 6 C2.0625 4 2.0625 4 0 2 C0 1.34 0 0.68 0 0 Z M2 6 C2.66 6 3.32 6 4 6 C4 6.66 4 7.32 4 8 C3.34 8 2.68 8 2 8 C2 7.34 2 6.68 2 6 Z " fill="#383AD7" transform="translate(192,103)"/>
<path d="M0 0 C0.33 1.32 0.66 2.64 1 4 C0.01 4.495 0.01 4.495 -1 5 C-1.495 5.845625 -1.99 6.69125 -2.5 7.5625 C-2.995 8.366875 -3.49 9.17125 -4 10 C-4.66 10 -5.32 10 -6 10 C-6.226875 10.7425 -6.45375 11.485 -6.6875 12.25 C-8.24407532 15.51139591 -10.08518854 16.92894975 -13 19 C-11.33567602 15.2462258 -8.98440053 12.19222602 -6.5 8.9375 C-4.2572291 5.99204276 -2.05368788 3.08053182 0 0 Z " fill="#3738CB" transform="translate(173,158)"/>
<path d="M0 0 C2.9375 2.5 2.9375 2.5 5 5 C3.35 4.67 1.7 4.34 0 4 C0 3.34 0 2.68 0 2 C-1.85625 2.5259375 -1.85625 2.5259375 -3.75 3.0625 C-6.903292 3.95593273 -8.86774164 4.00881294 -12 3 C-7.91821657 0.03143024 -5.02104714 -0.71729245 0 0 Z " fill="#322FD8" transform="translate(24,109)"/>
<path d="M0 0 C0.99 0 1.98 0 3 0 C3 0.99 3 1.98 3 3 C3.99 3 4.98 3 6 3 C4.63016497 6.16115776 4.0109362 6.9927092 1 9 C-1 6 -1 6 -1 3 C-0.67 2.01 -0.34 1.02 0 0 Z " fill="#3A38EA" transform="translate(106,241)"/>
<path d="M0 0 C3.06508262 5.51714872 3.89626127 11.76109039 3 18 C1 20.5625 1 20.5625 -1 22 C-0.855625 21.484375 -0.71125 20.96875 -0.5625 20.4375 C0.94537007 14.19285734 0.94537007 14.19285734 0 8 C-0.12781786 5.32605036 -0.04391871 2.67904143 0 0 Z " fill="#3F3AC6" transform="translate(252,147)"/>
<path d="M0 0 C4.9723422 1.49170266 9.41845739 3.60457417 14 6 C13.01 6.66 12.02 7.32 11 8 C11 7.34 11 6.68 11 6 C8.69 6 6.38 6 4 6 C3.67 4.68 3.34 3.36 3 2 C2.01 2 1.02 2 0 2 C0 1.34 0 0.68 0 0 Z M2 6 C2.66 6 3.32 6 4 6 C4 6.66 4 7.32 4 8 C3.34 8 2.68 8 2 8 C2 7.34 2 6.68 2 6 Z " fill="#3D3ADB" transform="translate(152,15)"/>
<path d="M0 0 C3 1 3 1 4.1875 3.0625 C4.455625 3.701875 4.72375 4.34125 5 5 C0.25 9 0.25 9 -2 9 C-2 7.02 -2 5.04 -2 3 C-1.34 3 -0.68 3 0 3 C0 2.01 0 1.02 0 0 Z " fill="#3437EA" transform="translate(211,138)"/>
<path d="M0 0 C0 4.04806999 -1.61986203 5.79445816 -3.875 9.125 C-4.59429687 10.20007813 -5.31359375 11.27515625 -6.0546875 12.3828125 C-8 15 -8 15 -10 16 C-9.51118919 11.60070268 -8.11865181 10.01805014 -5 7 C-5 6.01 -5 5.02 -5 4 C-4.01 4 -3.02 4 -2 4 C-2 3.01 -2 2.02 -2 1 C-1.34 0.67 -0.68 0.34 0 0 Z " fill="#3A38CD" transform="translate(63,81)"/>
<path d="M0 0 C3.34373475 0.55728913 6.03312999 1.35173889 9 3 C9 3.66 9 4.32 9 5 C9.66 5 10.32 5 11 5 C12.38938077 6.96147874 13.7260411 8.96166576 15 11 C14.67 11.66 14.34 12.32 14 13 C12.91666667 11.91666667 11.83333333 10.83333333 10.75 9.75 C9.7909375 8.79287109 9.7909375 8.79287109 8.8125 7.81640625 C7.44869118 6.44965818 6.09645045 5.07135186 4.75 3.6875 C2.90455773 1.80762998 2.90455773 1.80762998 0 0 Z " fill="#3735CD" transform="translate(170,62)"/>
<path d="M0 0 C0.66 0.33 1.32 0.66 2 1 C-0.64 4.3 -3.28 7.6 -6 11 C-6.66 9.68 -7.32 8.36 -8 7 C-7.67 6.01 -7.34 5.02 -7 4 C-6.34 4.33 -5.68 4.66 -5 5 C-5 4.01 -5 3.02 -5 2 C-2.625 0.9375 -2.625 0.9375 0 0 Z " fill="#3D3AD9" transform="translate(249,170)"/>
<path d="M0 0 C0.33 0 0.66 0 1 0 C1.02685412 2.31243792 1.04632841 4.6249627 1.0625 6.9375 C1.07410156 8.22527344 1.08570313 9.51304687 1.09765625 10.83984375 C1 14 1 14 0 15 C-0.23075082 16.34747084 -0.41153063 17.70377565 -0.5625 19.0625 C-0.706875 20.361875 -0.85125 21.66125 -1 23 C-1.33 23 -1.66 23 -2 23 C-2.27990605 15.10042938 -1.51537186 7.7527507 0 0 Z " fill="#3737CE" transform="translate(206,161)"/>
<path d="M0 0 C5.2584002 0.67415387 10.02638346 2.24265549 15 4 C15 4.66 15 5.32 15 6 C15.99 6 16.98 6 18 6 C18 6.66 18 7.32 18 8 C11.79522136 6.06375702 5.89174281 3.74390859 0 1 C0 0.67 0 0.34 0 0 Z " fill="#3835C9" transform="translate(129,79)"/>
<path d="M0 0 C0.99 0.33 1.98 0.66 3 1 C1.71284028 2.64936048 0.42012981 4.29439047 -0.875 5.9375 C-1.95394531 7.31228516 -1.95394531 7.31228516 -3.0546875 8.71484375 C-5 11 -5 11 -7 12 C-6.67 10.02 -6.34 8.04 -6 6 C-5.01 6.33 -4.02 6.66 -3 7 C-3 6.34 -3 5.68 -3 5 C-3.66 4.67 -4.32 4.34 -5 4 C-3.35 3.67 -1.7 3.34 0 3 C0 2.01 0 1.02 0 0 Z " fill="#3A38D7" transform="translate(194,238)"/>
<path d="M0 0 C-0.33 2.31 -0.66 4.62 -1 7 C-1.99 7 -2.98 7 -4 7 C-4.33 6.34 -4.66 5.68 -5 5 C-7.02463255 4.34786708 -7.02463255 4.34786708 -9 4 C-2.25 0 -2.25 0 0 0 Z " fill="#3E3BDD" transform="translate(164,209)"/>
<path d="M0 0 C1.32 0 2.64 0 4 0 C5.875 2.5625 5.875 2.5625 6.8515625 4.19921875 C8.89330875 7.40073243 11.48438779 10.16574358 14 13 C10.12060491 11.41379873 7.66638913 8.90079013 4.75 5.9375 C3.85796875 5.03902344 2.9659375 4.14054687 2.046875 3.21484375 C0 1 0 1 0 0 Z " fill="#3936CB" transform="translate(199,91)"/>
<path d="M0 0 C0.66 0.33 1.32 0.66 2 1 C0.71804819 3.56390361 -0.34050606 3.70889498 -2.9375 4.8125 C-6.0042244 6.26631389 -6.81998104 6.66996523 -8.5 9.75 C-8.665 10.4925 -8.83 11.235 -9 12 C-9.66 12 -10.32 12 -11 12 C-9.7558796 7.0235184 -8.26600936 4.84400624 -4 2 C-1.8125 0.6875 -1.8125 0.6875 0 0 Z " fill="#403DCF" transform="translate(106,12)"/>
<path d="M0 0 C1.37562854 1.28965176 2.70766393 2.62689293 4 4 C4 4.66 4 5.32 4 6 C4.33 6.66 4.66 7.32 5 8 C-0.75 6.125 -0.75 6.125 -3 5 C-2.625 3.0625 -2.625 3.0625 -2 1 C-1.34 0.67 -0.68 0.34 0 0 Z " fill="#3839E2" transform="translate(150,83)"/>
<path d="M0 0 C1.51699416 2.80452702 2.45308563 5.3857302 3.125 8.5 C3.29257813 9.2528125 3.46015625 10.005625 3.6328125 10.78125 C4 13 4 13 4 17 C3.34 17 2.68 17 2 17 C-0.01167675 11.21642935 -0.22084624 6.09781001 0 0 Z " fill="#3E3CD4" transform="translate(235,74)"/>
<path d="M0 0 C0.33 0 0.66 0 1 0 C1 3.63 1 7.26 1 11 C0.34 11 -0.32 11 -1 11 C-1.33 12.32 -1.66 13.64 -2 15 C-2.66 15 -3.32 15 -4 15 C-3.5012629 12.75568304 -2.89454223 10.74953781 -2 8.625 C-0.90814525 5.75888129 -0.42290178 3.0307961 0 0 Z " fill="#3E3CDA" transform="translate(80,168)"/>
<path d="M0 0 C3 2 3 2 3.875 5.25 C4.01488512 9.44655363 3.15863095 11.45984525 1 15 C0.67 15 0.34 15 0 15 C-0.042721 13.33388095 -0.04063832 11.66617115 0 10 C0.33 9.67 0.66 9.34 1 9 C1.14636054 5.63370749 1.07193479 3.21580438 0 0 Z " fill="#3A3CC9" transform="translate(173,26)"/>
<path d="M0 0 C0.66 0.33 1.32 0.66 2 1 C-0.31 4.3 -2.62 7.6 -5 11 C-6 7 -6 7 -6 5 C-5.38125 4.9175 -4.7625 4.835 -4.125 4.75 C-1.81562433 4.18741541 -1.81562433 4.18741541 -0.75 1.9375 C-0.5025 1.298125 -0.255 0.65875 0 0 Z " fill="#3535D1" transform="translate(75,63)"/>
<path d="M0 0 C0.99 0.33 1.98 0.66 3 1 C4.47694566 4.91390601 5.60226148 7.99434629 4 12 C4 11.01 4 10.02 4 9 C3.34 9 2.68 9 2 9 C0.50178941 5.62902617 0 3.79557881 0 0 Z " fill="#403CDC" transform="translate(228,53)"/>
<path d="M0 0 C0.68359375 1.765625 0.68359375 1.765625 1 4 C-0.21484375 5.921875 -0.21484375 5.921875 -1.9375 7.75 C-2.50339844 8.36359375 -3.06929687 8.9771875 -3.65234375 9.609375 C-4.31943359 10.29773438 -4.31943359 10.29773438 -5 11 C-5 6.51187917 -3.15295167 3.15295167 0 0 Z " fill="#3936E1" transform="translate(139,223)"/>
<path d="M0 0 C0.28875 0.639375 0.5775 1.27875 0.875 1.9375 C1.82823451 4.15206079 1.82823451 4.15206079 4 5 C1.08235 6.9451 -0.62537285 7.45276317 -4 8 C-3.40072174 4.64404172 -2.15377564 2.62198774 0 0 Z " fill="#3A37E2" transform="translate(178,152)"/>
<path d="M0 0 C-0.66 1.65 -1.32 3.3 -2 5 C-5.11257569 5 -7.10765685 4.82638376 -10 4 C-8.71086513 3.32845067 -7.41859796 2.66291141 -6.125 2 C-5.40570312 1.62875 -4.68640625 1.2575 -3.9453125 0.875 C-2 0 -2 0 0 0 Z " fill="#3F3DDC" transform="translate(37,47)"/>
<path d="M0 0 C0.99 0 1.98 0 3 0 C3 0.66 3 1.32 3 2 C5.97 2 8.94 2 12 2 C11.01 2.495 11.01 2.495 10 3 C10 3.66 10 4.32 10 5 C3.47692308 4.50769231 3.47692308 4.50769231 1.0625 1.9375 C0.711875 1.298125 0.36125 0.65875 0 0 Z " fill="#383ED6" transform="translate(129,249)"/>
<path d="M0 0 C6.78082192 3.16438356 6.78082192 3.16438356 9 6 C9 6.66 9 7.32 9 8 C7 8 7 8 5.375 6.5 C4.92125 6.005 4.4675 5.51 4 5 C3.67 5.66 3.34 6.32 3 7 C0 2.25 0 2.25 0 0 Z " fill="#3B39D2" transform="translate(240,126)"/>
<path d="M0 0 C0.66 0 1.32 0 2 0 C2.33 1.98 2.66 3.96 3 6 C-0.28976808 7.09658936 -1.71303767 6.79953138 -5 6 C-4.01 5.34 -3.02 4.68 -2 4 C-1.34 4.33 -0.68 4.66 0 5 C-0.2784375 4.0409375 -0.2784375 4.0409375 -0.5625 3.0625 C-0.706875 2.381875 -0.85125 1.70125 -1 1 C-0.67 0.67 -0.34 0.34 0 0 Z " fill="#3533F5" transform="translate(234,105)"/>
<path d="M0 0 C1.65689836 3.31379672 2.54152804 5.42391873 3 9 C2.67 9.99 2.34 10.98 2 12 C1.01 11.67 0.02 11.34 -1 11 C-0.67 7.37 -0.34 3.74 0 0 Z " fill="#3036D5" transform="translate(249,134)"/>
<path d="M0 0 C2.375 0.25 2.375 0.25 5 1 C6.1875 3 6.1875 3 7 5 C7.66 5.33 8.32 5.66 9 6 C8.67 7.32 8.34 8.64 8 10 C6.85157077 8.71064081 5.70633773 7.41843421 4.5625 6.125 C3.92441406 5.40570313 3.28632813 4.68640625 2.62890625 3.9453125 C1 2 1 2 0 0 Z " fill="#3A39CC" transform="translate(190,81)"/>
<path d="M0 0 C0.33 0 0.66 0 1 0 C1.02698189 1.62490954 1.04638757 3.24994633 1.0625 4.875 C1.07410156 5.77992187 1.08570312 6.68484375 1.09765625 7.6171875 C1 10 1 10 0 12 C-0.66 12 -1.32 12 -2 12 C-1 3.42857143 -1 3.42857143 0 0 Z " fill="#393ED1" transform="translate(84,68)"/>
<path d="M0 0 C2.1991413 4.39828259 2.51855059 7.18550592 3 12 C2.01 11.67 1.02 11.34 0 11 C0 7.37 0 3.74 0 0 Z " fill="#383ACA" transform="translate(191,159)"/>
<path d="M0 0 C2.4294516 3.6441774 2.16179575 5.71241272 2 10 C0.68 10.33 -0.64 10.66 -2 11 C-1.34 7.37 -0.68 3.74 0 0 Z " fill="#413DD7" transform="translate(19,73)"/>
<path d="M0 0 C-1 3 -1 3 -3.25 4.1875 C-5.99791147 4.99938294 -8.15447889 5.16260121 -11 5 C-7.72709962 2.33319229 -4.35126896 0 0 0 Z " fill="#3B3BCE" transform="translate(123,74)"/>
<path d="M0 0 C-0.61875 0.556875 -1.2375 1.11375 -1.875 1.6875 C-4.06106379 4.06645178 -4.98785699 5.96357096 -6 9 C-6.33 9 -6.66 9 -7 9 C-7.25 5.6875 -7.25 5.6875 -7 2 C-4.37226805 -0.89956629 -3.79438356 -1.26479452 0 0 Z " fill="#3935CA" transform="translate(99,56)"/>
<path d="M0 0 C0.66 0 1.32 0 2 0 C0.55746343 3.36591866 -1.33264727 5.51047079 -4 8 C-3.67 6.35 -3.34 4.7 -3 3 C-2.34 3 -1.68 3 -1 3 C-0.67 2.01 -0.34 1.02 0 0 Z " fill="#3B38DC" transform="translate(201,230)"/>
<path d="M0 0 C0.33 0 0.66 0 1 0 C2.42857143 8.57142857 2.42857143 8.57142857 0 12 C-0.33 12 -0.66 12 -1 12 C-0.67 8.04 -0.34 4.08 0 0 Z " fill="#433FC4" transform="translate(204,218)"/>
<path d="M0 0 C2.475 0.495 2.475 0.495 5 1 C5 2.32 5 3.64 5 5 C5.99 5.33 6.98 5.66 8 6 C7.34 6.66 6.68 7.32 6 8 C4.02 5.36 2.04 2.72 0 0 Z " fill="#3A3BD2" transform="translate(43,219)"/>
<path d="M0 0 C3.91211733 1.15585285 6.8745041 2.35534962 10 5 C7.69 4.67 5.38 4.34 3 4 C3 3.34 3 2.68 3 2 C2.01 2 1.02 2 0 2 C0 1.34 0 0.68 0 0 Z " fill="#3E42CB" transform="translate(221,117)"/>
<path d="M0 0 C1.32 0.33 2.64 0.66 4 1 C3.67 1.99 3.34 2.98 3 4 C0.9375 4.6875 0.9375 4.6875 -1 5 C-1.33 4.34 -1.66 3.68 -2 3 C-1.34 2.01 -0.68 1.02 0 0 Z " fill="#3939FC" transform="translate(210,114)"/>
<path d="M0 0 C1.83836919 3.67673838 2.93651813 7.04992447 4 11 C2.68 10.34 1.36 9.68 0 9 C0 6.03 0 3.06 0 0 Z " fill="#383BCB" transform="translate(91,65)"/>
<path d="M0 0 C0.33 0.99 0.66 1.98 1 3 C-3.455 3.495 -3.455 3.495 -8 4 C-2.7826087 0 -2.7826087 0 0 0 Z " fill="#3C3ADB" transform="translate(188,43)"/>
<path d="M0 0 C-0.33 1.32 -0.66 2.64 -1 4 C-3.31 4 -5.62 4 -8 4 C-2.7826087 0 -2.7826087 0 0 0 Z " fill="#423FD4" transform="translate(51,40)"/>
<path d="M0 0 C-0.598125 0.28875 -1.19625 0.5775 -1.8125 0.875 C-4.19327792 2.04742026 -4.19327792 2.04742026 -7 4 C-9.1875 3.625 -9.1875 3.625 -11 3 C-7.16674383 0.29417212 -4.67461851 -0.32613618 0 0 Z " fill="#3D3BC4" transform="translate(23,109)"/>
<path d="M0 0 C2.31 0 4.62 0 7 0 C4.37801226 2.15377564 2.35595828 3.40072174 -1 4 C-0.67 2.68 -0.34 1.36 0 0 Z " fill="#3536D3" transform="translate(109,83)"/>
<path d="M0 0 C0.7425 0.0825 1.485 0.165 2.25 0.25 C2.25 0.91 2.25 1.57 2.25 2.25 C-0.72 2.91 -3.69 3.57 -6.75 4.25 C-3.42692308 0.31153846 -3.42692308 0.31153846 0 0 Z " fill="#3133D6" transform="translate(126.75,76.75)"/>
<path d="M0 0 C0.99 0 1.98 0 3 0 C3.33 1.65 3.66 3.3 4 5 C2.35 4.67 0.7 4.34 -1 4 C-0.67 2.68 -0.34 1.36 0 0 Z " fill="#3938F7" transform="translate(77,157)"/>
<path d="M0 0 C2.31 0.33 4.62 0.66 7 1 C7 1.66 7 2.32 7 3 C5.35 2.67 3.7 2.34 2 2 C1.67 2.99 1.34 3.98 1 5 C0.34 4.01 -0.32 3.02 -1 2 C-0.67 1.34 -0.34 0.68 0 0 Z " fill="#3532EF" transform="translate(214,115)"/>
<path d="M0 0 C0.99 0.33 1.98 0.66 3 1 C2.34 3.31 1.68 5.62 1 8 C0.67 8 0.34 8 0 8 C0 5.36 0 2.72 0 0 Z " fill="#3B3AFA" transform="translate(77,102)"/>
<path d="M0 0 C2.72869407 0.03287583 5.2966618 0.56397771 8 1 C7.34 1.66 6.68 2.32 6 3 C3.27130593 2.96712417 0.7033382 2.43602229 -2 2 C-1.34 1.34 -0.68 0.68 0 0 Z " fill="#3737E5" transform="translate(96,88)"/>
<path d="M0 0 C0.61875 0.78375 1.2375 1.5675 1.875 2.375 C3.89858661 4.96837647 3.89858661 4.96837647 6 7 C4.33388095 7.042721 2.66617115 7.04063832 1 7 C0 6 0 6 -0.0625 2.9375 C-0.041875 1.968125 -0.02125 0.99875 0 0 Z " fill="#3B36D2" transform="translate(154,80)"/>
<path d="M0 0 C4.875 1.75 4.875 1.75 6 4 C4.68 4.33 3.36 4.66 2 5 C1.34 3.35 0.68 1.7 0 0 Z " fill="#3C3AE1" transform="translate(167,22)"/>
</svg>
