<?xml version="1.0" standalone="no"?>
<!DOCTYPE svg PUBLIC "-//W3C//DTD SVG 20010904//EN"
 "http://www.w3.org/TR/2001/REC-SVG-20010904/DTD/svg10.dtd">
<svg version="1.0" xmlns="http://www.w3.org/2000/svg"
 width="500.000000pt" height="281.000000pt" viewBox="0 0 500.000000 281.000000"
 preserveAspectRatio="xMidYMid meet">

<g transform="translate(0.000000,281.000000) scale(0.100000,-0.100000)"
fill="#000000" stroke="none">
<path d="M1420 2179 c-115 -46 -157 -167 -93 -266 47 -73 128 -102 211 -78
120 36 167 180 92 286 -40 55 -144 84 -210 58z"/>
<path d="M670 2056 c-83 -18 -130 -35 -207 -76 -73 -38 -146 -97 -137 -111 3
-5 0 -8 -8 -7 -7 2 -12 -3 -10 -10 1 -8 -2 -11 -7 -8 -11 7 -63 -50 -106 -118
-130 -205 -136 -456 -18 -693 14 -29 31 -53 37 -53 6 0 51 40 99 88 l88 88
-21 55 c-64 163 -19 353 113 475 73 67 136 99 230 114 84 13 165 0 243 -38
l54 -26 95 94 95 95 -22 17 c-40 31 -151 86 -208 102 -77 23 -230 29 -310 12z"/>
<path d="M1252 1681 l-82 -90 0 -230 c0 -187 -3 -231 -13 -231 -8 0 -22 -10
-33 -21 -10 -12 -50 -44 -89 -71 -56 -39 -64 -48 -40 -43 51 11 8 -13 -64 -35
-38 -12 -87 -19 -125 -18 -61 1 -61 1 -16 8 38 6 40 7 13 8 -63 3 -139 24
-192 54 l-54 30 -96 -95 -96 -95 -35 19 c-43 25 -119 21 -158 -8 -15 -10 -38
-41 -51 -67 -22 -45 -23 -52 -12 -95 21 -78 90 -132 170 -131 56 1 85 19 171
104 l79 79 89 -21 c167 -41 315 -24 468 54 48 24 88 44 90 44 2 0 4 -49 4
-108 0 -71 4 -112 12 -120 9 -9 76 -12 239 -12 198 0 228 2 233 16 3 9 6 55 6
104 0 117 -3 120 -126 120 l-94 0 0 343 c0 382 -3 408 -67 529 -19 37 -38 68
-42 68 -3 0 -43 -40 -89 -89z"/>
<path d="M4075 1655 c-30 -29 -31 -45 -7 -75 34 -43 112 -17 112 37 0 28 -33
63 -60 63 -12 0 -32 -11 -45 -25z"/>
<path d="M2200 1405 l0 -265 50 0 50 0 0 99 c0 144 18 181 89 181 51 0 61 -27
61 -162 l0 -118 53 0 52 0 -5 161 -5 161 -30 24 c-52 41 -139 31 -189 -23
l-26 -28 0 118 0 117 -50 0 -50 0 0 -265z"/>
<path d="M1752 1634 c-96 -47 -138 -135 -130 -268 8 -127 79 -212 196 -237
118 -24 237 16 292 98 27 42 47 99 37 109 -2 3 -26 7 -53 10 l-49 6 -20 -43
c-26 -54 -72 -83 -134 -83 -92 0 -151 66 -151 168 0 100 53 166 135 166 50 0
92 -27 112 -73 10 -21 22 -36 29 -33 7 3 29 8 49 12 46 8 51 22 27 71 -44 84
-113 123 -219 123 -52 -1 -81 -7 -121 -26z"/>
<path d="M680 1611 c-55 -23 -123 -80 -156 -132 -31 -50 -48 -128 -39 -185 9
-64 24 -74 110 -74 l73 0 -5 59 c-5 49 -2 65 16 94 23 37 74 67 113 67 41 -1
107 -37 128 -72 21 -33 23 -91 6 -130 -7 -16 0 -18 78 -18 78 0 86 2 98 23 7
12 12 52 12 92 -1 54 -7 81 -27 121 -33 64 -113 137 -174 158 -63 22 -176 20
-233 -3z"/>
<path d="M3138 1613 c-27 -4 -28 -7 -28 -59 l0 -54 -35 0 c-34 0 -35 -1 -35
-40 0 -39 1 -40 35 -40 l35 0 0 -100 c0 -71 5 -110 15 -130 34 -65 143 -84
215 -36 22 14 40 29 40 32 0 3 -7 18 -15 35 l-16 30 -26 -21 c-27 -21 -59 -26
-81 -12 -19 12 -32 69 -32 139 l0 63 75 0 75 0 0 40 0 40 -70 0 c-66 0 -70 1
-76 25 -3 14 -4 41 -2 60 4 38 1 39 -74 28z"/>
<path d="M2717 1508 c-47 -13 -107 -68 -107 -97 0 -23 6 -27 62 -34 31 -5 38
-2 43 14 17 51 111 63 136 17 17 -31 -6 -46 -89 -58 -78 -11 -104 -21 -139
-53 -70 -63 -11 -167 94 -167 53 0 81 11 116 45 19 20 27 23 27 12 0 -43 88
-71 145 -45 38 17 26 63 -17 63 -22 0 -23 4 -28 110 -6 124 -18 152 -76 180
-44 21 -119 27 -167 13z m133 -233 c0 -50 -68 -88 -116 -66 -70 31 -18 87 84
90 28 1 32 -2 32 -24z"/>
<path d="M4730 1509 c-45 -14 -96 -53 -114 -87 -54 -105 -9 -235 97 -277 82
-33 214 -13 257 40 13 16 12 20 -14 41 l-27 24 -28 -19 c-63 -45 -159 -30
-188 29 l-12 25 137 5 137 5 -1 45 c0 25 -8 62 -18 83 -34 69 -143 111 -226
86z m95 -75 c16 -6 45 -54 45 -74 0 -11 -152 -15 -163 -4 -9 9 20 61 40 73 21
12 54 14 78 5z"/>
<path d="M3400 1493 c0 -4 23 -86 52 -180 l53 -173 62 0 62 0 35 114 c20 63
36 120 36 127 0 32 21 -15 54 -123 l37 -118 62 0 62 0 53 173 c28 94 52 176
52 180 0 4 -23 7 -52 5 l-51 -3 -33 -123 c-18 -68 -34 -126 -36 -128 -2 -2
-23 55 -47 127 l-43 130 -51 -3 -51 -3 -42 -130 -41 -130 -13 45 c-7 25 -23
83 -34 130 l-22 85 -52 3 c-29 2 -52 -1 -52 -5z"/>
<path d="M4060 1320 l0 -180 55 0 55 0 0 180 0 180 -55 0 -55 0 0 -180z"/>
<path d="M4230 1460 l0 -39 96 -3 96 -3 -101 -90 -101 -90 0 -47 0 -48 170 0
170 0 0 40 0 40 -107 0 -108 1 103 97 c99 94 103 98 102 140 l0 42 -160 0
-160 0 0 -40z"/>
</g>
</svg>
