<?xml version="1.0" encoding="UTF-8"?>
<svg version="1.1" xmlns="http://www.w3.org/2000/svg" width="141" height="45">
<path d="M0 0 C46.53 0 93.06 0 141 0 C141 14.85 141 29.7 141 45 C94.47 45 47.94 45 0 45 C0 30.15 0 15.3 0 0 Z " fill="#FDFDFD" transform="translate(0,0)"/>
<path d="M0 0 C1.4370809 -0.05422947 2.87475462 -0.09289723 4.3125 -0.125 C5.11300781 -0.14820313 5.91351562 -0.17140625 6.73828125 -0.1953125 C9 0 9 0 12 2 C12 2.66 12 3.32 12 4 C12.5775 3.7525 13.155 3.505 13.75 3.25 C16 3 16 3 18.25 4.4375 C20.761264 8.114708 20.29296638 10.60550433 20 15 C20.66 15.33 21.32 15.66 22 16 C22.35858439 19.85478218 22.2754818 21.57759458 20.125 24.875 C19.42375 25.57625 18.7225 26.2775 18 27 C17.34 27 16.68 27 16 27 C15.855625 27.639375 15.71125 28.27875 15.5625 28.9375 C15 31 15 31 14 32 C11.04796394 32.18061605 8.14167037 32.27817579 5.1875 32.3125 C4.36701172 32.34150391 3.54652344 32.37050781 2.70117188 32.40039062 C-3.36900295 32.46439085 -3.36900295 32.46439085 -6.57421875 30.10546875 C-8 28 -8 28 -8 26 C-8.86625 25.319375 -9.7325 24.63875 -10.625 23.9375 C-13 21 -13 21 -12.921875 18.91796875 C-12.55035262 17.36022847 -12.12891487 15.81373033 -11.6640625 14.28125 C-10.84461232 11.77378385 -10.84461232 11.77378385 -10.75 8.125 C-10 5 -10 5 -7.0625 3.0625 C-4 2 -4 2 -2 2 C-1.65013034 6.1984359 -2.39895151 7.77469987 -5 11 C-5.70514846 13.14733927 -5.70514846 13.14733927 -6 15 C-4.68 14.67 -3.36 14.34 -2 14 C-1.34 16.97 -0.68 19.94 0 23 C1.44375 22.896875 2.8875 22.79375 4.375 22.6875 C5.18710937 22.62949219 5.99921875 22.57148438 6.8359375 22.51171875 C9.37921338 22.17009472 9.37921338 22.17009472 11 19 C11.16025399 15.45421315 11.16025399 15.45421315 10 12 C7.06550592 9.98958997 7.06550592 9.98958997 4 9 C4.33 8.34 4.66 7.68 5 7 C2.525 6.505 2.525 6.505 0 6 C0 6.99 0 7.98 0 9 C0.66 9.33 1.32 9.66 2 10 C0.02 10.99 0.02 10.99 -2 12 C-1.44687265 7.97007218 -0.8441938 3.97977076 0 0 Z " fill="#B9B8FB" transform="translate(18,6)"/>
<path d="M0 0 C0.99 0 1.98 0 3 0 C3 1.65 3 3.3 3 5 C3.804375 5.144375 4.60875 5.28875 5.4375 5.4375 C8 6 8 6 9 7 C9.07205511 8.68608966 9.08386068 10.37500659 9.0625 12.0625 C9.05347656 12.98160156 9.04445313 13.90070312 9.03515625 14.84765625 C9.02355469 15.55792969 9.01195313 16.26820312 9 17 C8.01 17 7.02 17 6 17 C6 14.03 6 11.06 6 8 C5.01 8 4.02 8 3 8 C3 10.97 3 13.94 3 17 C0.91846065 17.13536022 -1.16561206 17.23215465 -3.25 17.3125 C-4.41015625 17.37050781 -5.5703125 17.42851562 -6.765625 17.48828125 C-10 17 -10 17 -12.390625 14.671875 C-14.35133105 11.41672224 -14.63618274 9.7375736 -14 6 C-12.5625 3.6875 -12.5625 3.6875 -10 2 C-7.6302778 1.54428419 -5.33439543 1.31375424 -2.92578125 1.17578125 C-0.99317253 1.20647366 -0.99317253 1.20647366 0 0 Z " fill="#ECECEC" transform="translate(60,13)"/>
<path d="M0 0 C0.66 0 1.32 0 2 0 C1.67 2.64 1.34 5.28 1 8 C1.66 7.67 2.32 7.34 3 7 C2.67 5.68 2.34 4.36 2 3 C3.98 3 5.96 3 8 3 C7.67 3.66 7.34 4.32 7 5 C7.969375 5.515625 8.93875 6.03125 9.9375 6.5625 C13 9 13 9 14.0625 12.5 C14 16 14 16 13.125 18.4375 C10.14503145 20.62865335 7.67851617 20.43953779 4.05859375 20.43359375 C2 20 2 20 0 17 C-0.38499891 15.34450469 -0.72793135 13.6777567 -1 12 C-1.99 12 -2.98 12 -4 12 C-3.33501617 7.61110675 -1.81242323 4.0188515 0 0 Z " fill="#FBFBFE" transform="translate(16,9)"/>
<path d="M0 0 C2.31 0 4.62 0 7 0 C7 3.96 7 7.92 7 12 C6.01 12 5.02 12 4 12 C3.67 9.69 3.34 7.38 3 5 C2.01 7.31 1.02 9.62 0 12 C-0.99 12 -1.98 12 -3 12 C-3.33 10.68 -3.66 9.36 -4 8 C-4.66 9.32 -5.32 10.64 -6 12 C-6.99 12 -7.98 12 -9 12 C-9.50367757 10.54293274 -10.00282556 9.08429904 -10.5 7.625 C-10.7784375 6.81289063 -11.056875 6.00078125 -11.34375 5.1640625 C-12 3 -12 3 -12 1 C-11.01 1 -10.02 1 -9 1 C-8.34 1.99 -7.68 2.98 -7 4 C-6.67 3.01 -6.34 2.02 -6 1 C-5.01 1 -4.02 1 -3 1 C-2.34 1.99 -1.68 2.98 -1 4 C-0.67 2.68 -0.34 1.36 0 0 Z " fill="#6D6D6D" transform="translate(101,18)"/>
<path d="M0 0 C5.625 -0.25 5.625 -0.25 9 2 C9.29296875 4.3828125 9.29296875 4.3828125 9.1875 7.125 C9.16042969 8.03507812 9.13335937 8.94515625 9.10546875 9.8828125 C9.07066406 10.58148438 9.03585938 11.28015625 9 12 C2.9453125 12.1953125 2.9453125 12.1953125 1 12 C0.34 11.34 -0.32 10.68 -1 10 C-0.625 7.375 -0.625 7.375 0 5 C1.65 5 3.3 5 5 5 C5 4.34 5 3.68 5 3 C3.35 3 1.7 3 0 3 C0 2.01 0 1.02 0 0 Z " fill="#858585" transform="translate(71,18)"/>
<path d="M0 0 C0.99 0 1.98 0 3 0 C3 1.65 3 3.3 3 5 C3.804375 5.144375 4.60875 5.28875 5.4375 5.4375 C8 6 8 6 9 7 C9.07205511 8.68608966 9.08386068 10.37500659 9.0625 12.0625 C9.05347656 12.98160156 9.04445313 13.90070312 9.03515625 14.84765625 C9.02355469 15.55792969 9.01195313 16.26820312 9 17 C8.01 17 7.02 17 6 17 C6 14.03 6 11.06 6 8 C4.68 8 3.36 8 2 8 C2 10.64 2 13.28 2 16 C1.01 16 0.02 16 -1 16 C-1.02685095 13.52076199 -1.04676547 11.0418116 -1.0625 8.5625 C-1.07506836 7.50192383 -1.07506836 7.50192383 -1.08789062 6.41992188 C-1.09653588 4.61306441 -1.05220011 2.80612397 -1 1 C-0.67 0.67 -0.34 0.34 0 0 Z " fill="#6A6A6A" transform="translate(60,13)"/>
<path d="M0 0 C0 0.99 0 1.98 0 3 C-2.31 3.33 -4.62 3.66 -7 4 C-7 5.98 -7 7.96 -7 10 C-4.69 10.66 -2.38 11.32 0 12 C-0.33 12.99 -0.66 13.98 -1 15 C-4.25 15.3125 -4.25 15.3125 -8 15 C-10.96135546 12.41830549 -11.86756104 10.81118865 -12.5 6.9375 C-12 4 -12 4 -10.5 1.625 C-6.86748926 -0.73613198 -4.28156703 -0.2854378 0 0 Z " fill="#666666" transform="translate(58,15)"/>
<path d="M0 0 C2.4375 0.75 2.4375 0.75 4.4375 2.75 C4.4375 4.07 4.4375 5.39 4.4375 6.75 C2.1275 6.75 -0.1825 6.75 -2.5625 6.75 C-2.5625 7.41 -2.5625 8.07 -2.5625 8.75 C-0.5825 8.75 1.3975 8.75 3.4375 8.75 C3.1075 9.74 2.7775 10.73 2.4375 11.75 C-4.4375 10.875 -4.4375 10.875 -5.5625 9.75 C-5.93336093 3.9089404 -5.93336093 3.9089404 -5.5625 1.75 C-2.5625 -0.25 -2.5625 -0.25 0 0 Z " fill="#626262" transform="translate(125.5625,18.25)"/>
<path d="M0 0 C2.97 0 5.94 0 9 0 C7 4 7 4 5 7 C6.32 7.33 7.64 7.66 9 8 C9 8.99 9 9.98 9 11 C6.03 11 3.06 11 0 11 C0.53069061 7.17902761 1.49701566 4.93828597 4 2 C2.68 2 1.36 2 0 2 C0 1.34 0 0.68 0 0 Z " fill="#6E6E6E" transform="translate(110,19)"/>
<path d="M0 0 C1.45823212 -0.0270043 2.91660675 -0.04639787 4.375 -0.0625 C5.18710937 -0.07410156 5.99921875 -0.08570313 6.8359375 -0.09765625 C9 0 9 0 11 1 C11 1.99 11 2.98 11 4 C7.7 4.66 4.4 5.32 1 6 C0.67 6.99 0.34 7.98 0 9 C0.66 9.33 1.32 9.66 2 10 C0.02 10.99 0.02 10.99 -2 12 C-1.44687265 7.97007218 -0.8441938 3.97977076 0 0 Z " fill="#4B49FD" transform="translate(18,6)"/>
<path d="M0 0 C0.99 0 1.98 0 3 0 C3 0.99 3 1.98 3 3 C4.32 3 5.64 3 7 3 C7 3.66 7 4.32 7 5 C5.68 5 4.36 5 3 5 C3.33 6.65 3.66 8.3 4 10 C5.32 10.33 6.64 10.66 8 11 C8 11.99 8 12.98 8 14 C5.125 14.1875 5.125 14.1875 2 14 C-0.28062828 10.57905758 -0.21925007 9.31812778 -0.125 5.3125 C-0.10695313 4.31863281 -0.08890625 3.32476563 -0.0703125 2.30078125 C-0.04710938 1.54152344 -0.02390625 0.78226563 0 0 Z " fill="#6D6D6D" transform="translate(81,16)"/>
<path d="M0 0 C2.1875 1.3125 2.1875 1.3125 3.1875 3.3125 C3.227492 5.31210012 3.23096799 7.31297242 3.1875 9.3125 C-0.66050954 8.76278435 -2.16559439 7.04212142 -4.8125 4.3125 C-6.94559192 3.07737921 -6.94559192 3.07737921 -8.8125 2.3125 C-3.55200091 -0.86826689 -3.55200091 -0.86826689 0 0 Z " fill="#4947FD" transform="translate(34.8125,9.6875)"/>
<path d="M0 0 C0.34803805 4.17645661 -0.33781938 5.82586157 -3 9 C-3.69580267 10.31836295 -4.37224433 11.64791086 -5 13 C-7.35448165 10.44931155 -7.98327924 9.28982642 -8.1875 5.75 C-8.125625 4.8425 -8.06375 3.935 -8 3 C-2.25 0 -2.25 0 0 0 Z " fill="#4A48FD" transform="translate(16,8)"/>
<path d="M0 0 C1.98 0.66 3.96 1.32 6 2 C6.22692276 5.32820054 6.32162419 7.41801336 4.6875 10.375 C3 12 3 12 0 12 C0 8.04 0 4.08 0 0 Z " fill="#4745FD" transform="translate(34,20)"/>
<path d="M0 0 C0.66 0 1.32 0 2 0 C3.96189209 3.6678852 5.39301257 6.87248551 6 11 C3.125 11.1875 3.125 11.1875 0 11 C-2 8 -2 8 -1.6875 4.375 C-1 1 -1 1 0 0 Z " fill="#4845FD" transform="translate(7,19)"/>
<path d="M0 0 C1.41750563 0.11509661 2.83401169 0.24253658 4.25 0.375 C5.03890625 0.44460937 5.8278125 0.51421875 6.640625 0.5859375 C9.085877 1.01507113 10.84836903 1.78600638 13 3 C12.01 4.485 12.01 4.485 11 6 C6.93936239 6.52637895 4.86100169 6.66230899 1.5625 4.125 C0 2 0 2 0 0 Z " fill="#4744FD" transform="translate(10,32)"/>
<path d="M0 0 C0.99 0 1.98 0 3 0 C3 0.99 3 1.98 3 3 C5.31 3 7.62 3 10 3 C9.01 3.33 8.02 3.66 7 4 C7.66 6.64 8.32 9.28 9 12 C7.00045254 12.04254356 4.99958364 12.04080783 3 12 C2 11 2 11 1.9375 8.4375 C1.958125 7.633125 1.97875 6.82875 2 6 C3.32 6 4.64 6 6 6 C6 5.34 6 4.68 6 4 C4.68 4 3.36 4 2 4 C2 3.01 2 2.02 2 1 C1.34 0.67 0.68 0.34 0 0 Z " fill="#D8D8D8" transform="translate(82,15)"/>
<path d="M0 0 C0.042721 1.66611905 0.04063832 3.33382885 0 5 C-1 6 -1 6 -3.06640625 6.09765625 C-3.89011719 6.08605469 -4.71382812 6.07445312 -5.5625 6.0625 C-6.38878906 6.05347656 -7.21507812 6.04445313 -8.06640625 6.03515625 C-8.70449219 6.02355469 -9.34257812 6.01195312 -10 6 C-7.92670327 1.38524276 -5.28020563 -1.76006854 0 0 Z " fill="#423FFD" transform="translate(33,32)"/>
<path d="M0 0 C3.63 0 7.26 0 11 0 C11 0.33 11 0.66 11 1 C8.03 1 5.06 1 2 1 C2 1.66 2 2.32 2 3 C3.32 3 4.64 3 6 3 C5.71125 3.556875 5.4225 4.11375 5.125 4.6875 C3.9586747 7.08494645 2.9660119 9.51596939 2 12 C1.34 12 0.68 12 0 12 C0 8.04 0 4.08 0 0 Z " fill="#D2D2D2" transform="translate(108,18)"/>
<path d="M0 0 C5.75 -0.125 5.75 -0.125 8 1 C8 4.3 8 7.6 8 11 C7.01 10.67 6.02 10.34 5 10 C5.33 9.01 5.66 8.02 6 7 C5.01 7 4.02 7 3 7 C3 6.34 3 5.68 3 5 C3.66 5 4.32 5 5 5 C5 4.34 5 3.68 5 3 C3.35 3 1.7 3 0 3 C0 2.01 0 1.02 0 0 Z " fill="#676767" transform="translate(71,18)"/>
<path d="M0 0 C0.99 0 1.98 0 3 0 C3 1.65 3 3.3 3 5 C3.804375 5.144375 4.60875 5.28875 5.4375 5.4375 C8 6 8 6 9 7 C9.07205511 8.68608966 9.08386068 10.37500659 9.0625 12.0625 C9.05347656 12.98160156 9.04445313 13.90070312 9.03515625 14.84765625 C9.02355469 15.55792969 9.01195313 16.26820312 9 17 C8.01 17 7.02 17 6 17 C6 14.03 6 11.06 6 8 C5.01 7.67 4.02 7.34 3 7 C2 6 2 6 1.9375 3.4375 C1.958125 2.633125 1.97875 1.82875 2 1 C1.34 0.67 0.68 0.34 0 0 Z " fill="#707070" transform="translate(60,13)"/>
<path d="M0 0 C0.5878125 0.7425 0.5878125 0.7425 1.1875 1.5 C3.55091715 3.45593143 5.01435003 3.24207973 8 3 C9.125 9.75 9.125 9.75 8 12 C6.68 12 5.36 12 4 12 C3.80664062 11.28972656 3.61328125 10.57945313 3.4140625 9.84765625 C3.15367188 8.92855469 2.89328125 8.00945313 2.625 7.0625 C2.36976562 6.14597656 2.11453125 5.22945312 1.8515625 4.28515625 C1.23339896 1.83254913 1.23339896 1.83254913 -1 1 C-0.67 0.67 -0.34 0.34 0 0 Z " fill="#DDDCFC" transform="translate(8,17)"/>
<path d="M0 0 C2.31 0 4.62 0 7 0 C7 3.96 7 7.92 7 12 C6.01 12 5.02 12 4 12 C3.96261719 11.30132812 3.92523438 10.60265625 3.88671875 9.8828125 C3.82097656 8.97273438 3.75523438 8.06265625 3.6875 7.125 C3.62949219 6.22007813 3.57148437 5.31515625 3.51171875 4.3828125 C3.2117961 1.63778399 3.2117961 1.63778399 0 0 Z " fill="#828282" transform="translate(101,18)"/>
<path d="M0 0 C0.99 0 1.98 0 3 0 C3.33 2.31 3.66 4.62 4 7 C4.66 7 5.32 7 6 7 C6 8.32 6 9.64 6 11 C5.01 11 4.02 11 3 11 C2.49632243 9.54293274 1.99717444 8.08429904 1.5 6.625 C1.2215625 5.81289063 0.943125 5.00078125 0.65625 4.1640625 C0 2 0 2 0 0 Z " fill="#646464" transform="translate(89,19)"/>
<path d="M0 0 C0.66 0 1.32 0 2 0 C1.88601335 1.62580966 1.75844341 3.25067157 1.625 4.875 C1.55539063 5.77992187 1.48578125 6.68484375 1.4140625 7.6171875 C1 10 1 10 -1 12 C-1.99 12 -2.98 12 -4 12 C-3.33501617 7.61110675 -1.81242323 4.0188515 0 0 Z " fill="#DFDEFC" transform="translate(16,9)"/>
<path d="M0 0 C2.86724686 0.57344937 3.8614515 0.8614515 6 3 C5.01 3 4.02 3 3 3 C3.33 5.97 3.66 8.94 4 12 C2.68 11.34 1.36 10.68 0 10 C0.185625 9.0925 0.37125 8.185 0.5625 7.25 C0.95734621 4.31685676 0.94691572 2.7355343 0 0 Z " fill="#6B69FA" transform="translate(28,17)"/>
<path d="M0 0 C0.33 0.99 0.66 1.98 1 3 C-0.32 3.33 -1.64 3.66 -3 4 C-2.34 5.65 -1.68 7.3 -1 9 C-2.98 8.34 -4.96 7.68 -7 7 C-6.67 6.34 -6.34 5.68 -6 5 C-7.32 4.34 -8.64 3.68 -10 3 C-6.7 2.67 -3.4 2.34 0 2 C0 1.34 0 0.68 0 0 Z " fill="#A5A4FB" transform="translate(29,8)"/>
<path d="M0 0 C2.97 0 5.94 0 9 0 C8.34 1.32 7.68 2.64 7 4 C6.01 4 5.02 4 4 4 C4 3.34 4 2.68 4 2 C2.68 2 1.36 2 0 2 C0 1.34 0 0.68 0 0 Z " fill="#5F5F5F" transform="translate(110,19)"/>
<path d="M0 0 C1.32 0.66 2.64 1.32 4 2 C4 3.32 4 4.64 4 6 C1.69 6 -0.62 6 -3 6 C-3 5.34 -3 4.68 -3 4 C-1.68 4 -0.36 4 1 4 C0.67 2.68 0.34 1.36 0 0 Z " fill="#626262" transform="translate(126,19)"/>
<path d="M0 0 C0.66 0 1.32 0 2 0 C2 1.98 2 3.96 2 6 C0.02 6 -1.96 6 -4 6 C-1.125 1.125 -1.125 1.125 0 0 Z " fill="#E3E3E3" transform="translate(118,21)"/>
<path d="M0 0 C0.5878125 0.7425 0.5878125 0.7425 1.1875 1.5 C3.55091715 3.45593143 5.01435003 3.24207973 8 3 C7.67 4.65 7.34 6.3 7 8 C6.01 8 5.02 8 4 8 C1 4.66666667 1 4.66666667 1 2 C0.34 1.67 -0.32 1.34 -1 1 C-0.67 0.67 -0.34 0.34 0 0 Z " fill="#9D9BFB" transform="translate(8,17)"/>
<path d="M0 0 C0.99 0 1.98 0 3 0 C3.25 6.625 3.25 6.625 1 10 C0.67 6.7 0.34 3.4 0 0 Z " fill="#EDEDFC" transform="translate(31,20)"/>
<path d="M0 0 C1.98 0 3.96 0 6 0 C5.67 0.66 5.34 1.32 5 2 C5.66 2.66 6.32 3.32 7 4 C4.69 3.67 2.38 3.34 0 3 C0 2.01 0 1.02 0 0 Z " fill="#E1E1FC" transform="translate(18,12)"/>
<path d="M0 0 C2.64 0 5.28 0 8 0 C8 0.99 8 1.98 8 3 C5.6568787 2.74438677 3.32156597 2.40729228 1 2 C0.67 1.34 0.34 0.68 0 0 Z " fill="#EEEEFD" transform="translate(15,31)"/>
<path d="M0 0 C0.99 0 1.98 0 3 0 C2.67 1.98 2.34 3.96 2 6 C1.34 6 0.68 6 0 6 C0 4.02 0 2.04 0 0 Z M-2 6 C0 7 0 7 0 7 Z " fill="#606060" transform="translate(101,19)"/>
<path d="M0 0 C1.32 0.33 2.64 0.66 4 1 C4 2.32 4 3.64 4 5 C2.68 5 1.36 5 0 5 C0 3.35 0 1.7 0 0 Z " fill="#9D9D9D" transform="translate(123,18)"/>
<path d="M0 0 C1.65 0 3.3 0 5 0 C5 0.99 5 1.98 5 3 C3.02 3 1.04 3 -1 3 C-0.67 2.01 -0.34 1.02 0 0 Z " fill="#6C6C6C" transform="translate(53,15)"/>
</svg>
